<?xml version="1.0" standalone="no"?>
<!DOCTYPE svg PUBLIC "-//W3C//DTD SVG 1.1//EN" "http://www.w3.org/Graphics/SVG/1.1/DTD/svg11.dtd" >
<svg xmlns="http://www.w3.org/2000/svg" xmlns:xlink="http://www.w3.org/1999/xlink" version="1.1">
<metadata></metadata>
<defs>
<font id="juralight" horiz-adv-x="0" >
<font-face units-per-em="1024" ascent="819" descent="-205" />
<missing-glyph horiz-adv-x="260" />
<glyph unicode="&#xd;" />
<glyph unicode=" "  horiz-adv-x="260" />
<glyph unicode="&#x09;" horiz-adv-x="260" />
<glyph unicode="&#xa0;" horiz-adv-x="260" />
<glyph unicode="!" horiz-adv-x="234" d="M164 29q0 -14 -15.5 -25t-31.5 -11q-15 0 -30.5 11t-15.5 25t15.5 25t30.5 11q16 0 31.5 -11t15.5 -25zM96 616q0 28 21 28t21 -28v-419q0 -28 -22 -28q-20 0 -20 28v419z" />
<glyph unicode="&#x22;" horiz-adv-x="285" d="M214 466q0 -28 -22 -28q-20 0 -20 28v149q0 28 21 28t21 -28v-149zM112 466q0 -28 -21 -28q-20 0 -20 28v149q0 28 21 28q20 0 20 -28v-149z" />
<glyph unicode="#" horiz-adv-x="595" d="M313 625q21 0 21 -20q0 -6 -3 -15l-59 -159h134l64 173q8 21 22 21q9 0 15 -6t6 -15q0 -6 -3 -14l-58 -159h70q28 0 28 -21t-28 -21h-86l-51 -142h106q28 0 28 -22q0 -20 -28 -20h-121l-64 -173q-7 -21 -22 -21q-21 0 -21 21q0 6 3 14l59 159h-135l-63 -173 q-7 -21 -22 -21q-20 0 -20 20q0 6 3 15l58 159h-73q-28 0 -28 21t28 21h89l51 142h-110q-27 0 -27 22q0 20 27 20h125l64 173q8 21 21 21zM257 389l-51 -142h134l51 142h-134z" />
<glyph unicode="$" horiz-adv-x="567" d="M156 91q-31 0 -51.5 9t-29 26t-11.5 33t-3 39q0 30 21 30t21 -28q0 -36 13 -51.5t47 -15.5h104v173h-82q-124 0 -124 128q0 58 28.5 88t95.5 30h82v63q0 28 21 28t21 -28v-63h101q31 0 51.5 -9t29 -26t11.5 -33t3 -39q0 -30 -21 -30t-21 28q0 36 -13 51.5t-47 15.5h-94 v-162h75q123 0 123 -134q0 -123 -123 -123h-75v-71q0 -27 -22 -27q-20 0 -20 27v71h-111zM309 306v-173h92q64 0 64 81q0 42 -18 67t-46 25h-92zM267 348v162h-100q-64 0 -64 -76q0 -41 18 -63.5t46 -22.5h100z" />
<glyph unicode="%" horiz-adv-x="540" d="M347 183q0 -14 10.5 -24.5t24.5 -10.5q15 0 25 10.5t10 24.5q0 15 -10 25t-25 10q-14 0 -24.5 -10t-10.5 -25zM305 183q0 31 22.5 54t54.5 23t54.5 -23t22.5 -54t-22.5 -54t-54.5 -23t-54.5 23t-22.5 54zM124 471q0 -14 10.5 -24.5t24.5 -10.5t24.5 10.5t10.5 24.5 t-10.5 24.5t-24.5 10.5t-24.5 -10.5t-10.5 -24.5zM81 471q0 32 23 54.5t55 22.5q31 0 53.5 -22.5t22.5 -54.5t-22.5 -54.5t-53.5 -22.5q-32 0 -55 22.5t-23 54.5zM451 528q7 0 13.5 -6t6.5 -14t-11 -21l-350 -350q-11 -11 -21 -11q-7 0 -13.5 6t-6.5 14q0 10 11 21l350 350 q13 11 21 11z" />
<glyph unicode="&#x26;" horiz-adv-x="494" d="M374 528q0 -8 -6 -14t-15 -6q-10 0 -21 15t-20.5 33.5t-30 33.5t-46.5 15q-49 0 -89 -35.5t-40 -93.5q0 -37 39 -82l240 -277q34 47 34 110q0 31 22 31q19 0 19 -31q0 -80 -46 -143l48 -55q6 -7 6 -18q0 -18 -17 -18q-13 0 -26 14l-39 45q-66 -61 -145 -61q-33 0 -67 10 t-65.5 31t-51.5 60t-20 90q0 49 21.5 97t64.5 77l-14 17q-47 54 -47 103q0 74 55.5 122.5t119.5 48.5q39 0 73 -28.5t49 -55t15 -35.5zM359 84l-208 241q-37 -21 -54.5 -61t-17.5 -82q0 -77 50 -113t112 -36q64 0 118 51z" />
<glyph unicode="'" horiz-adv-x="183" d="M112 466q0 -28 -21 -28q-20 0 -20 28v149q0 28 21 28q20 0 20 -28v-149z" />
<glyph unicode="(" horiz-adv-x="237" d="M193 636q-54 0 -66 -20.5t-12 -112.5v-370q0 -92 12 -112.5t66 -20.5v-42q-45 0 -69 12t-37.5 50.5t-13.5 112.5v370q0 74 13.5 112.5t37.5 50.5t69 12v-42z" />
<glyph unicode=")" horiz-adv-x="236" d="M44 0q53 0 65 20.5t12 112.5v370q0 92 -12 112.5t-65 20.5v42q67 0 93 -33.5t26 -141.5v-370q0 -108 -26 -141.5t-93 -33.5v42z" />
<glyph unicode="*" horiz-adv-x="387" d="M322 429q0 -5 -5 -12.5t-15 -7.5q-6 0 -18 5l-70 41v-81q0 -28 -21 -28t-21 28v81l-70 -41q-12 -5 -18 -5q-8 0 -13.5 6.5t-5.5 13.5q0 12 16 22l70 41l-70 39q-16 10 -16 22q0 5 4.5 12.5t14.5 7.5q6 0 18 -5l70 -41v81q0 28 22 28q20 0 20 -28v-81l70 41q12 5 18 5 q8 0 14 -6.5t6 -13.5q0 -11 -17 -22l-69 -39l69 -41q17 -11 17 -22z" />
<glyph unicode="+" horiz-adv-x="510" d="M276 20q0 -27 -21 -27t-21 27v189h-169q-26 0 -26 22q0 21 26 21h169v188q0 28 22 28q20 0 20 -28v-188h167q29 0 29 -23q0 -20 -29 -20h-167v-189z" />
<glyph unicode="," horiz-adv-x="203" d="M97 61q10 0 23 -5t13 -15q0 -9 -4 -17l-42 -83q-9 -21 -20 -21q-17 0 -17 20q0 6 3 15l24 86q6 20 20 20z" />
<glyph unicode="-" horiz-adv-x="446" d="M99 209q-26 0 -26 22q0 21 26 21h245q29 0 29 -23q0 -20 -29 -20h-245z" />
<glyph unicode="." horiz-adv-x="224" d="M66 29q0 14 15 25t31 11q15 0 30.5 -11t15.5 -25t-15.5 -25t-30.5 -11q-16 0 -31 11t-15 25z" />
<glyph unicode="/" horiz-adv-x="349" d="M284 645q22 0 22 -19q0 -7 -3 -16l-218 -598q-6 -20 -21 -20q-21 0 -21 19q0 5 3 16l218 598q6 20 20 20z" />
<glyph unicode="0" horiz-adv-x="598" d="M119 497v-359q0 -37 35 -66.5t85 -29.5h120q50 0 85 29.5t35 66.5v359q0 37 -35 66.5t-85 29.5h-120q-50 0 -85 -29.5t-35 -66.5zM521 154q0 -68 -49 -111t-121 -43h-104q-72 0 -121 43t-49 111v328q0 68 49 111t121 43h104q72 0 121 -43t49 -111v-328z" />
<glyph unicode="1" horiz-adv-x="243" d="M113 616l-34 -33q-12 -13 -25 -13q-19 0 -19 18q0 11 12 22l62 63q12 12 24 12q4 0 8.5 -1.5t9 -7t4.5 -14.5v-642q0 -27 -21 -27t-21 27v596z" />
<glyph unicode="2" horiz-adv-x="568" d="M506 460q0 -49 -41.5 -89t-100 -71t-117.5 -63.5t-100.5 -82.5t-41.5 -112h371q30 0 30 -22q0 -20 -30 -20h-413v44q0 51 22 94t57.5 71.5t78.5 53.5t85.5 46t78 42.5t57.5 49t22 59.5q0 86 -36 110t-129 24h-135q-34 0 -47 -15t-13 -50q0 -30 -22 -30q-20 0 -20 30 q0 58 22 82.5t73 24.5h142q51 0 85.5 -6.5t64 -24.5t43.5 -54t14 -91z" />
<glyph unicode="3" horiz-adv-x="576" d="M325 594h-80q-45 0 -92.5 -17.5t-47.5 -49.5q0 -28 -21 -28t-21 30q0 42 47 74.5t128 32.5h77q104 0 148 -41t44 -144q0 -35 -48.5 -76.5t-81.5 -48.5q32 -6 81 -55t49 -86q0 -103 -44 -144t-148 -41h-77q-81 0 -128 32.5t-47 73.5q0 31 21 31t21 -28q0 -32 47.5 -49.5 t92.5 -17.5h80q80 0 110.5 32.5t30.5 91.5q0 50 -65.5 94t-120.5 44q-32 0 -32 22q0 21 32 21q57 0 121.5 37.5t64.5 85.5q0 59 -30.5 91.5t-110.5 32.5z" />
<glyph unicode="4" horiz-adv-x="513" d="M453 175h-61v-155q0 -27 -21 -27t-21 27v155h-318v56l303 405h57v-419h61q27 0 27 -21t-27 -21zM350 217v377l-281 -377h281z" />
<glyph unicode="5" horiz-adv-x="548" d="M275 -9q-62 0 -137 34.5t-75 64.5q0 8 6 14.5t13 6.5q3 0 30.5 -19.5t72 -39t90.5 -19.5q85 0 132.5 51.5t47.5 142.5q0 44 -16 78t-40.5 52t-49.5 26.5t-49 8.5h-231l9 120q6 69 30 96.5t79 27.5h241q27 0 27 -22q0 -20 -27 -20h-247q-28 0 -42 -15t-17 -50l-6 -95h175 q80 0 143 -56.5t63 -150.5q0 -110 -62.5 -173t-159.5 -63z" />
<glyph unicode="6" horiz-adv-x="536" d="M52 207q0 89 21.5 166t51.5 124.5t64 82.5t58.5 49.5t34.5 14.5q22 0 22 -18q0 -13 -18 -23q-53 -29 -101.5 -91t-72.5 -153q64 64 162 64q95 0 158.5 -61t63.5 -155t-63.5 -155t-158.5 -61t-158.5 61t-63.5 155zM94 207q0 -78 48.5 -126t131.5 -48t131.5 48t48.5 126 t-48.5 126t-131.5 48t-131.5 -48t-48.5 -126z" />
<glyph unicode="7" horiz-adv-x="478" d="M217 -10q-22 0 -22 19q0 8 4 19l206 566h-273q-34 0 -47.5 -15t-13.5 -50q0 -30 -21 -30t-21 30q0 58 22 82.5t73 24.5h310q21 0 21 -18q0 -8 -4 -19l-213 -586q-8 -23 -21 -23z" />
<glyph unicode="8" horiz-adv-x="592" d="M116 174q0 -36 7 -60.5t18.5 -38.5t34 -21.5t45.5 -9.5t61 -2h29q47 0 73.5 3.5t50 16.5t32.5 40t9 72t-9.5 72t-32.5 40.5t-49.5 17t-73.5 3.5h-29q-48 0 -74.5 -3.5t-49.5 -17t-32.5 -40.5t-9.5 -72zM518 174q0 -55 -14 -90.5t-43.5 -53.5t-64 -24t-85.5 -6h-29 q-106 0 -157 34.5t-51 139.5q0 115 70 152q-70 32 -70 146q0 45 10.5 75.5t26 48t45 26.5t56.5 11.5t70 2.5h29q43 0 70 -2.5t56 -11.5t44.5 -26.5t26 -48t10.5 -75.5q0 -115 -69 -146q69 -36 69 -152zM476 472q0 36 -7.5 59.5t-17.5 36t-35 18.5t-44 7t-61 1h-29 q-42 0 -61 -1t-44.5 -7t-35.5 -18.5t-17.5 -36t-7.5 -59.5q0 -30 4 -51.5t15 -35t21.5 -21t33.5 -11t40 -4t52 -0.5h29q35 0 51.5 0.5t40 4t33.5 11t21 21t15 35t4 51.5z" />
<glyph unicode="9" horiz-adv-x="537" d="M42 471q0 53 25.5 89t67.5 51t75 20t69 5q207 0 207 -166q0 -107 -30.5 -200t-79.5 -154.5t-110 -96.5t-123 -35q-26 0 -26 22q0 21 26 21q35 0 76.5 18.5t84.5 55t78 100.5t51 144q-50 -38 -154 -38q-237 0 -237 164zM279 594q-195 0 -195 -123q0 -32 13 -55.5t31.5 -36 t47 -20t51 -9t52.5 -1.5q165 0 165 121q0 124 -165 124z" />
<glyph unicode=":" horiz-adv-x="238" d="M73 433q0 14 15 25t31 11q15 0 30.5 -11t15.5 -25t-15.5 -25t-30.5 -11q-16 0 -31 11t-15 25zM73 80q0 14 15 25t31 11q15 0 30.5 -11t15.5 -25t-15.5 -25t-30.5 -11q-16 0 -31 11t-15 25z" />
<glyph unicode=";" horiz-adv-x="241" d="M73 433q0 14 15 25t31 11q15 0 30.5 -11t15.5 -25t-15.5 -25t-30.5 -11q-16 0 -31 11t-15 25zM127 112q10 0 23 -5t13 -15q0 -9 -4 -17l-42 -83q-9 -21 -20 -21q-17 0 -17 20q0 6 3 15l24 86q6 20 20 20z" />
<glyph unicode="&#x3c;" horiz-adv-x="522" d="M450 116q0 -6 -4.5 -14t-14.5 -8q-7 0 -19 6l-363 210q-16 11 -16 23t16 21l363 210q9 5 18 5q20 0 20 -18q0 -12 -16 -24l-339 -194l338 -196q17 -9 17 -21z" />
<glyph unicode="=" horiz-adv-x="458" d="M105 259q-26 0 -26 22q0 21 26 21h245q29 0 29 -23q0 -20 -29 -20h-245zM105 362q-26 0 -26 22q0 21 26 21h245q29 0 29 -23q0 -20 -29 -20h-245z" />
<glyph unicode="&#x3e;" horiz-adv-x="522" d="M72 548q0 6 4.5 13.5t14.5 7.5q7 0 18 -6l364 -210q16 -11 16 -22q0 -13 -16 -22l-364 -210q-8 -5 -17 -5q-20 0 -20 19q0 13 16 23l339 195l-338 195q-17 9 -17 22z" />
<glyph unicode="?" horiz-adv-x="528" d="M201 29q0 14 15 25t31 11q15 0 30.5 -11t15.5 -25t-15.5 -25t-30.5 -11q-16 0 -31 11t-15 25zM268 303v-109q0 -28 -21 -28t-21 28v140l153 42q28 8 46 37t18 71q0 44 -24.5 81t-77.5 37h-93q-48 0 -74.5 -3.5t-50 -16t-32.5 -39.5t-9 -72q0 -28 -21 -28q-22 0 -22 28 q0 55 14 90.5t44.5 53t64.5 23.5t86 6h76q86 0 123.5 -47t37.5 -113t-27.5 -101t-95.5 -54z" />
<glyph unicode="@" horiz-adv-x="584" d="M420 0h-141q-95 0 -151.5 64t-56.5 177v154q0 113 56.5 177t151.5 64h29q95 0 151.5 -64t56.5 -177q0 -31 -1 -51t-6 -44t-13.5 -38.5t-24.5 -30t-39 -23.5t-57 -13t-78 -5q-70 0 -95.5 32.5t-25.5 109.5q0 76 25.5 108.5t95.5 32.5q71 0 96.5 -32.5t25.5 -108.5 q0 -57 -13 -89q28 6 41 18t20 43t7 91q0 94 -42 146.5t-124 52.5h-29q-82 0 -124 -52.5t-42 -146.5v-154q0 -94 42 -146.5t124 -52.5h134q34 0 47.5 15t13.5 52q0 28 20 28q22 0 22 -31q0 -22 -3 -38t-12 -33t-29.5 -26t-51.5 -9zM297 232q52 0 66 20.5t14 79.5 q0 58 -14 78.5t-66 20.5q-51 0 -65 -20.5t-14 -78.5q0 -59 14 -79.5t65 -20.5z" />
<glyph unicode="A" horiz-adv-x="548" d="M44 -16q-21 0 -21 20q0 6 3 14l225 618h46l225 -618q3 -7 3 -14q0 -20 -21 -20q-14 0 -22 20l-72 200h-272l-72 -200q-9 -20 -22 -20zM154 246h240l-121 329z" />
<glyph unicode="B" horiz-adv-x="584" d="M126 42h195q47 0 73.5 3.5t49.5 17t32.5 40.5t9.5 72v29q0 45 -9.5 72t-32.5 40.5t-49.5 17t-73.5 3.5h-195v-295zM84 31v574q0 31 19 31h176q103 0 155 -32t52 -118q0 -84 -55 -119q49 -15 73 -53t24 -110v-29q0 -105 -51 -140t-156 -35h-218q-19 0 -19 31zM279 379 q90 0 127.5 21t37.5 86q0 66 -37.5 87t-127.5 21h-153v-215h153z" />
<glyph unicode="C" horiz-adv-x="572" d="M421 0h-141q-106 0 -157 35t-51 140v286q0 105 51 140t157 35h141q31 0 51.5 -9t29 -26t11.5 -33t3 -39q0 -30 -21 -30t-21 28q0 36 -13 51.5t-47 15.5h-134q-48 0 -74.5 -3.5t-49.5 -17t-32.5 -40.5t-9.5 -72v-286q0 -45 9.5 -72t32.5 -40.5t49.5 -17t74.5 -3.5h134 q34 0 47 15t13 52q0 28 21 28t21 -31q0 -22 -3 -38t-11.5 -33t-29 -26t-51.5 -9z" />
<glyph unicode="D" horiz-adv-x="600" d="M528 461v-286q0 -105 -51 -140t-156 -35h-218q-19 0 -19 31v574q0 31 19 31h218q105 0 156 -35t51 -140zM486 175v286q0 45 -9.5 72t-32.5 40.5t-49.5 17t-73.5 3.5h-195v-552h195q47 0 73.5 3.5t49.5 17t32.5 40.5t9.5 72z" />
<glyph unicode="E" horiz-adv-x="577" d="M126 337v-295h373q29 0 29 -23q0 -19 -29 -19h-396q-19 0 -19 31v574q0 31 19 31h396q29 0 29 -23q0 -19 -29 -19h-373v-215h255q30 0 30 -23q0 -19 -30 -19h-255z" />
<glyph unicode="F" horiz-adv-x="558" d="M126 23q0 -30 -21 -30t-21 30v582q0 31 19 31h396q29 0 29 -23q0 -19 -29 -19h-373v-215h255q30 0 30 -23q0 -19 -30 -19h-255v-314z" />
<glyph unicode="G" horiz-adv-x="585" d="M474 251h-133q-30 0 -30 20q0 22 30 22h175v-187q0 -22 -3 -38t-11.5 -33t-29 -26t-51.5 -9h-141q-52 0 -86 6t-64 24t-44 54t-14 91v286q0 55 14 91t44 54t64 24t86 6h141q31 0 51.5 -9t29 -26t11.5 -33t3 -38q0 -31 -21 -31t-21 29q0 36 -13 51t-47 15h-134 q-48 0 -74.5 -3.5t-49.5 -17t-32.5 -40.5t-9.5 -72v-286q0 -45 9.5 -72t32.5 -40.5t49.5 -17t74.5 -3.5h134q34 0 47 15t13 51v143z" />
<glyph unicode="H" horiz-adv-x="612" d="M126 23q0 -30 -21 -30t-21 30v589q0 31 19 31q23 0 23 -31v-248h360v248q0 31 20 31q22 0 22 -31v-589q0 -30 -20 -30q-22 0 -22 30v299h-360v-299z" />
<glyph unicode="I" horiz-adv-x="210" d="M126 20q0 -27 -22 -27q-20 0 -20 27v595q0 28 21 28t21 -28v-595z" />
<glyph unicode="J" horiz-adv-x="530" d="M241 34q48 0 74.5 3.5t49.5 17t32.5 40.5t9.5 72v448q0 28 21 28t21 -28v-448q0 -55 -14 -91t-44 -54t-64 -24t-86 -6t-86.5 6t-64.5 24t-44 54t-14 91q0 28 23 28q20 0 20 -28q0 -86 36 -109.5t130 -23.5z" />
<glyph unicode="K" horiz-adv-x="497" d="M494 13q0 -8 -7 -14t-14 -6q-11 0 -21 13l-268 319l-58 -70v-235q0 -27 -22 -27q-20 0 -20 27v595q0 28 21 28t21 -28v-294l260 309q10 13 21 13q7 0 13.5 -5.5t6.5 -13.5q0 -10 -9 -21l-206 -246l272 -324q10 -10 10 -20z" />
<glyph unicode="L" horiz-adv-x="495" d="M103 0q-19 0 -19 31v584q0 28 21 28t21 -28v-573h318q28 0 28 -22q0 -20 -28 -20h-341z" />
<glyph unicode="M" horiz-adv-x="633" d="M316 279q-7 0 -12 6l-178 272v-534q0 -30 -21 -30t-21 30v589q0 31 19 31q15 0 26 -17l187 -284l188 284q11 17 25 17q20 0 20 -31v-589q0 -30 -22 -30q-20 0 -20 30v534l-178 -272q-5 -6 -13 -6z" />
<glyph unicode="N" horiz-adv-x="612" d="M508 -7q-12 0 -16 7l-366 557v-534q0 -30 -21 -30t-21 30v589q0 31 19 31q15 0 26 -17l357 -542v528q0 31 20 31q22 0 22 -31v-589q0 -30 -20 -30z" />
<glyph unicode="O" horiz-adv-x="574" d="M287 -9q-97 0 -159.5 63t-62.5 173v182q0 110 62.5 173t159.5 63t159.5 -63t62.5 -173v-182q0 -110 -62.5 -173t-159.5 -63zM287 603q-84 0 -132 -51.5t-48 -142.5v-182q0 -91 48 -142.5t132 -51.5t132 51.5t48 142.5v182q0 91 -48 142.5t-132 51.5z" />
<glyph unicode="P" horiz-adv-x="520" d="M126 20q0 -27 -22 -27q-20 0 -20 27v585q0 31 19 31h176q103 0 155 -32t52 -118q0 -73 -43.5 -111t-121.5 -38h-195v-317zM279 379q90 0 127.5 21t37.5 86q0 66 -37.5 87t-127.5 21h-153v-215h153z" />
<glyph unicode="Q" horiz-adv-x="574" d="M287 603q-84 0 -132 -51.5t-48 -142.5v-182q0 -91 48 -142.5t132 -51.5q69 0 112 34l-58 57q-11 11 -11 20q0 7 6 14t14 7q10 0 21 -11l58 -59q38 50 38 132v182q0 91 -48 142.5t-132 51.5zM287 -9q-97 0 -159.5 63t-62.5 173v182q0 110 62.5 173t159.5 63t159.5 -63 t62.5 -173v-182q0 -99 -51 -160l38 -38q10 -10 10 -21q0 -7 -5.5 -13.5t-13.5 -6.5t-21 11l-37 38q-60 -46 -142 -46z" />
<glyph unicode="R" horiz-adv-x="549" d="M279 379q90 0 127.5 21t37.5 86q0 66 -37.5 87t-127.5 21h-153v-215h153zM126 20q0 -27 -22 -27q-20 0 -20 27v585q0 31 19 31h176q103 0 155 -32t52 -118q0 -63 -32 -100t-91 -46q33 -26 65.5 -104.5t49 -141t16.5 -74.5q0 -27 -22 -27q-9 0 -14.5 8t-5.5 19 q0 14 -14 71t-48 135t-76 111h-188v-317z" />
<glyph unicode="S" horiz-adv-x="570" d="M104 484q0 -42 18.5 -71.5t45.5 -36.5l217 -52q123 -31 123 -170q0 -66 -37.5 -114t-123.5 -48h-76q-52 0 -86.5 6t-64.5 24t-44 54t-14 91q0 28 23 28q20 0 20 -28q0 -86 36 -109.5t130 -23.5h93q53 0 77.5 38t24.5 82q0 51 -20.5 84t-43.5 38l-216 53q-68 16 -96 52 t-28 103q0 66 38 113t124 47h76q52 0 86 -6t64 -23.5t44 -53t14 -90.5q0 -28 -22 -28q-21 0 -21 28q0 45 -9 72t-32.5 39.5t-49.5 16t-74 3.5h-94q-53 0 -77.5 -37.5t-24.5 -80.5z" />
<glyph unicode="T" horiz-adv-x="460" d="M405 636q28 0 28 -22q0 -20 -28 -20h-154v-574q0 -27 -22 -27q-20 0 -20 27v574h-155q-28 0 -28 21t28 21h351z" />
<glyph unicode="U" horiz-adv-x="598" d="M479 615q0 28 22 28q20 0 20 -28v-388q0 -110 -62.5 -173t-159.5 -63t-159.5 63t-62.5 173v388q0 28 21 28t21 -28v-388q0 -91 48 -142.5t132 -51.5t132 51.5t48 142.5v388z" />
<glyph unicode="V" horiz-adv-x="548" d="M23 632q0 7 4.5 12t9 6.5t7.5 1.5q13 0 22 -20l208 -572l208 572q8 20 22 20q3 0 7.5 -1.5t9 -6.5t4.5 -12q0 -6 -3 -15l-225 -617h-46l-225 617q-3 9 -3 15z" />
<glyph unicode="W" horiz-adv-x="892" d="M444 652q18 0 25 -22l177 -570l176 572q8 20 20 20q3 0 8 -1.5t10 -6.5t5 -12q0 -6 -3 -15l-192 -617h-50l-176 565l-175 -565h-49l-188 617q-1 3 -4.5 8t-3.5 7q0 7 5.5 12t10.5 6.5t8 1.5q13 0 19 -20l178 -572l176 570q7 22 23 22z" />
<glyph unicode="X" horiz-adv-x="537" d="M481 643q7 0 14 -6t7 -14q0 -11 -7 -19l-201 -287l201 -285q7 -11 7 -20q0 -8 -6.5 -13.5t-14.5 -5.5q-10 0 -21 14l-192 274l-191 -274q-11 -14 -22 -14q-7 0 -13.5 5.5t-6.5 13.5q0 9 7 20l201 285l-201 287q-7 8 -7 19q0 8 6.5 14t13.5 6q11 0 22 -16l191 -273 l192 273q11 16 21 16z" />
<glyph unicode="Y" horiz-adv-x="499" d="M229 310l-206 294q-7 10 -7 19q0 8 6.5 14t13.5 6q10 0 21 -16l192 -273l191 273q13 16 22 16q7 0 13.5 -6t6.5 -14q0 -9 -7 -19l-205 -294v-290q0 -27 -21 -27q-20 0 -20 27v290z" />
<glyph unicode="Z" horiz-adv-x="535" d="M46 0v44l396 550h-366q-31 0 -31 21t31 21h413v-46l-394 -548h364q30 0 30 -22q0 -20 -30 -20h-413z" />
<glyph unicode="[" horiz-adv-x="244" d="M200 636h-78v-636h78v-42h-120v720h120v-42z" />
<glyph unicode="\" horiz-adv-x="349" d="M64 645q15 0 21 -20l218 -598q3 -10 3 -16q0 -19 -22 -19q-14 0 -20 20l-218 598q-3 9 -3 16q0 19 21 19z" />
<glyph unicode="]" horiz-adv-x="244" d="M44 0h78v636h-78v42h120v-720h-120v42z" />
<glyph unicode="^" horiz-adv-x="443" d="M223 590h-3l-93 -207q-9 -18 -24 -18q-18 0 -18 18q0 2 2 10l108 243h54l107 -243q2 -4 2 -10q0 -18 -18 -18q-15 0 -24 18z" />
<glyph unicode="_" horiz-adv-x="475" d="M28 -42q-28 0 -28 22q0 20 28 20h419q28 0 28 -22q0 -20 -28 -20h-419z" />
<glyph unicode="`" horiz-adv-x="212" d="M34 657q0 9 6.5 15t13.5 6q9 0 21 -13l96 -115q8 -9 8 -20q0 -8 -6.5 -14t-13.5 -6q-9 0 -21 13l-96 115q-8 9 -8 19z" />
<glyph unicode="a" horiz-adv-x="534" d="M268 248q-48 0 -74.5 -3.5t-49.5 -17t-32.5 -40.5t-9.5 -72q0 -28 18.5 -50.5t41.5 -22.5h93q79 0 122 48t43 138v20h-152zM268 290h152v64q0 35 -13 50t-47 15h-141q-117 0 -117 -65q0 -30 -22 -30q-20 0 -20 30q0 54 42.5 80.5t109.5 26.5h155q55 0 75 -27t20 -97v-314 q0 -30 -21 -30t-21 30v49q-54 -72 -165 -72h-93q-45 0 -73.5 32.5t-28.5 87.5q0 42 10 73t27 49.5t44 29t57 14.5t70 4z" />
<glyph unicode="b" horiz-adv-x="580" d="M116 389q56 72 166 72h29q105 0 156 -35t51 -140v-111q0 -105 -51 -140t-156 -35h-29q-110 0 -166 72v-49q0 -30 -21 -30t-21 30v589q0 31 19 31q23 0 23 -31v-223zM282 419q-80 0 -123 -48.5t-43 -138.5v-4q0 -90 43 -138t123 -48h29q47 0 73.5 3.5t49.5 17t32.5 40.5 t9.5 72v111q0 45 -9.5 72t-32.5 40.5t-49.5 17t-73.5 3.5h-29z" />
<glyph unicode="c" horiz-adv-x="564" d="M411 0h-141q-106 0 -157 35t-51 140v111q0 105 51 140t157 35h141q31 0 51.5 -9t29 -26.5t11.5 -33t3 -38.5q0 -30 -21 -30t-21 28q0 36 -13 51.5t-47 15.5h-134q-48 0 -74.5 -3.5t-49.5 -17t-32.5 -40.5t-9.5 -72v-111q0 -45 9.5 -72t32.5 -40.5t49.5 -17t74.5 -3.5h134 q34 0 47 15t13 52q0 28 21 28t21 -31q0 -22 -3 -38t-11.5 -33t-29 -26t-51.5 -9z" />
<glyph unicode="d" horiz-adv-x="580" d="M104 175q0 -45 9.5 -72t32.5 -40.5t49.5 -17t74.5 -3.5h29q79 0 122 48t43 138v191h-194q-48 0 -74.5 -3.5t-49.5 -17t-32.5 -40.5t-9.5 -72v-111zM62 286q0 105 51 140t157 35h194v151q0 31 23 31q19 0 19 -31v-589q0 -30 -21 -30t-21 30v49q-54 -72 -165 -72h-29 q-106 0 -157 35t-51 140v111z" />
<glyph unicode="e" horiz-adv-x="566" d="M506 286v-36h-402v-75q0 -45 9.5 -72t32.5 -40.5t49.5 -17t74.5 -3.5h134q34 0 47 15t13 52q0 28 21 28t21 -31q0 -22 -3 -38t-11.5 -33t-29 -26t-51.5 -9h-141q-106 0 -157 35t-51 140v111q0 105 51 140t157 35h29q105 0 156 -35t51 -140zM299 419h-29q-92 0 -129 -23 t-37 -104h360q0 81 -37 104t-128 23z" />
<glyph unicode="f" horiz-adv-x="313" d="M287 594q-48 0 -74.5 -3.5t-49.5 -17t-32.5 -40.5t-9.5 -72h143q31 0 31 -23q0 -19 -31 -19h-143v-395q0 -31 -23 -31q-19 0 -19 31v395q-31 0 -31 22q0 20 31 20q0 56 14 91.5t44 53.5t64 24t86 6q31 0 31 -23q0 -19 -31 -19z" />
<glyph unicode="g" horiz-adv-x="581" d="M62 286q0 105 51 140t157 35h29q111 0 165 -72v49q0 30 21 30t21 -30v-530q0 -64 -18 -88.5t-68 -24.5h-263q-31 0 -51.5 9t-29 26.5t-11.5 33t-3 38.5q0 30 21 30t21 -28q0 -36 13 -51.5t47 -15.5h249q31 0 41 11.5t10 43.5v117q-20 -9 -53 -9h-141q-106 0 -157 35 t-51 140v111zM104 175q0 -45 9.5 -72t32.5 -40.5t49.5 -17t74.5 -3.5h134q34 0 47 14.5t13 49.5v126q0 90 -43 138.5t-122 48.5h-29q-48 0 -74.5 -3.5t-49.5 -17t-32.5 -40.5t-9.5 -72v-111z" />
<glyph unicode="h" horiz-adv-x="588" d="M282 419q-80 0 -123 -48.5t-43 -138.5v-209q0 -30 -21 -30t-21 30v589q0 31 19 31q23 0 23 -31v-223q56 72 166 72h29q105 0 156 -35t51 -140v-263q0 -30 -20 -30q-22 0 -22 30v263q0 45 -9.5 72t-32.5 40.5t-49.5 17t-73.5 3.5h-29z" />
<glyph unicode="i" horiz-adv-x="190" d="M49 601q0 14 15 25t31 11q15 0 30.5 -11t15.5 -25t-15.5 -25t-30.5 -11q-16 0 -31 11t-15 25zM116 20q0 -27 -22 -27q-20 0 -20 27v420q0 28 21 28t21 -28v-420z" />
<glyph unicode="j" horiz-adv-x="192" d="M50 601q0 14 15.5 25t30.5 11q16 0 31 -11t15 -25t-15 -25t-31 -11q-15 0 -30.5 11t-15.5 25zM117 0q0 -56 -14 -92t-44 -53.5t-64 -23.5t-86 -6q-31 0 -31 22q0 20 31 20q48 0 74.5 3.5t49.5 17t32.5 40.5t9.5 72v437q0 31 22 31q20 0 20 -31v-437z" />
<glyph unicode="k" horiz-adv-x="433" d="M421 14q0 -7 -5.5 -13.5t-13.5 -6.5q-10 0 -21 11l-231 232l-34 -34v-183q0 -27 -22 -27q-20 0 -20 27v595q0 28 21 28t21 -28v-353l192 193q13 11 21 11q7 0 13.5 -6t6.5 -15t-11 -20l-159 -159l232 -231q10 -10 10 -21z" />
<glyph unicode="l" horiz-adv-x="260" d="M192 0h-7q-55 0 -75 27t-20 97v489q0 30 21 30t21 -30v-507q0 -35 13 -49.5t47 -14.5q30 0 30 -22q0 -20 -30 -20z" />
<glyph unicode="m" horiz-adv-x="812" d="M251 419q-64 0 -99.5 -48.5t-35.5 -138.5v-209q0 -30 -21 -30t-21 30v414q0 31 19 31q23 0 23 -31v-48q30 39 59 55.5t76 16.5q67 0 108 -18t58 -69q47 87 146 87q89 0 133.5 -35t44.5 -140v-263q0 -30 -21 -30t-21 30v263q0 45 -7 72t-26 40.5t-41 17t-62 3.5 q-64 0 -99.5 -48.5t-35.5 -138.5v-209q0 -30 -20 -30q-22 0 -22 30v263q0 45 -7 72t-26 40.5t-40.5 17t-61.5 3.5z" />
<glyph unicode="n" horiz-adv-x="587" d="M282 419q-80 0 -123 -48.5t-43 -138.5v-209q0 -30 -21 -30t-21 30v414q0 31 19 31q23 0 23 -31v-48q56 72 166 72h29q105 0 156 -35t51 -140v-263q0 -30 -20 -30q-22 0 -22 30v263q0 45 -9.5 72t-32.5 40.5t-49.5 17t-73.5 3.5h-29z" />
<glyph unicode="o" horiz-adv-x="568" d="M299 0h-29q-106 0 -157 35t-51 140v111q0 105 51 140t157 35h29q105 0 156 -35t51 -140v-111q0 -105 -51 -140t-156 -35zM270 42h29q47 0 73.5 3.5t49.5 17t32.5 40.5t9.5 72v111q0 45 -9.5 72t-32.5 40.5t-49.5 17t-73.5 3.5h-29q-48 0 -74.5 -3.5t-49.5 -17 t-32.5 -40.5t-9.5 -72v-111q0 -45 9.5 -72t32.5 -40.5t49.5 -17t74.5 -3.5z" />
<glyph unicode="p" horiz-adv-x="581" d="M477 286q0 45 -9.5 72t-32.5 40.5t-49.5 17t-73.5 3.5h-29q-80 0 -123 -48.5t-43 -138.5v-190h195q47 0 73.5 3.5t49.5 17t32.5 40.5t9.5 72v111zM519 175q0 -105 -51 -140t-156 -35h-195v-152q0 -30 -23 -30q-19 0 -19 30v590q0 30 21 30t21 -30v-49q56 72 166 72h29 q105 0 156 -35t51 -140v-111z" />
<glyph unicode="q" horiz-adv-x="581" d="M104 286v-111q0 -45 9.5 -72t32.5 -40.5t49.5 -17t74.5 -3.5h194v190q0 90 -43 138.5t-122 48.5h-29q-48 0 -74.5 -3.5t-49.5 -17t-32.5 -40.5t-9.5 -72zM62 175v111q0 105 51 140t157 35h29q111 0 165 -72v49q0 30 21 30t21 -30v-590q0 -30 -19 -30q-23 0 -23 30v152 h-194q-106 0 -157 35t-51 140z" />
<glyph unicode="r" horiz-adv-x="372" d="M282 419q-80 0 -123 -48.5t-43 -138.5v-209q0 -30 -21 -30t-21 30v414q0 31 19 31q23 0 23 -31v-48q56 72 166 72h46q30 0 30 -21t-30 -21h-46z" />
<glyph unicode="s" horiz-adv-x="566" d="M155 0q-31 0 -51.5 9t-29 26t-11.5 33t-3 38q0 31 21 31t21 -28q0 -37 13 -52t47 -15h238q64 0 64 81q0 42 -18 67t-46 25h-216q-124 0 -124 128q0 58 28.5 88t95.5 30h225q31 0 51.5 -9t29 -26.5t11.5 -33t3 -38.5q0 -30 -21 -30t-21 28q0 36 -13 51.5t-47 15.5h-236 q-64 0 -64 -76q0 -41 18 -63.5t46 -22.5h217q123 0 123 -134q0 -123 -123 -123h-228z" />
<glyph unicode="t" horiz-adv-x="330" d="M119 175q0 -45 9.5 -72t32.5 -40.5t49.5 -17t74.5 -3.5q30 0 30 -19q0 -23 -30 -23q-51 0 -86 6.5t-64.5 24.5t-43.5 53.5t-14 90.5v244q-31 0 -31 22q0 20 31 20v109q0 31 19 31q23 0 23 -31v-109h143q31 0 31 -23q0 -19 -31 -19h-143v-244z" />
<glyph unicode="u" horiz-adv-x="588" d="M307 42q79 0 122 48t43 138v210q0 30 21 30t21 -30v-414q0 -31 -19 -31q-23 0 -23 31v48q-54 -72 -165 -72h-29q-106 0 -157 35t-51 140v263q0 30 20 30q22 0 22 -30v-263q0 -45 9.5 -72t32.5 -40.5t49.5 -17t74.5 -3.5h29z" />
<glyph unicode="v" horiz-adv-x="499" d="M212 0l-181 439q-3 2 -3 10t5.5 13.5t13.5 5.5q15 0 23 -19l173 -403h7l180 404q9 18 23 18q19 0 19 -18q0 -8 -3 -11l-193 -439h-64z" />
<glyph unicode="w" horiz-adv-x="771" d="M408 450l138 -404h6l145 404q6 18 17 18q8 0 17.5 -5.5t9.5 -12.5q0 -8 -3 -11l-155 -439h-71l-126 384l-136 -384h-71l-145 439q-3 2 -3 10q0 7 10 13t17 6q10 0 17 -19l139 -403h6l144 404q3 17 23 17q16 0 21 -17z" />
<glyph unicode="x" horiz-adv-x="488" d="M450 8q0 -8 -6.5 -13.5t-13.5 -5.5q-10 0 -20 12l-165 197l-166 -197q-11 -12 -21 -12q-7 0 -13.5 5.5t-6.5 13.5q0 7 9 21l170 201l-170 203q-9 11 -9 20q0 8 6.5 13.5t13.5 5.5q10 0 21 -12l166 -197l165 197q10 12 20 12q7 0 13.5 -5.5t6.5 -13.5q0 -9 -9 -20 l-170 -203l170 -201q9 -14 9 -21z" />
<glyph unicode="y" horiz-adv-x="589" d="M514 -92q0 -64 -18 -88.5t-68 -24.5h-263q-31 0 -51.5 9t-29 26.5t-11.5 33t-3 38.5q0 30 21 30t21 -28q0 -36 13 -51.5t47 -15.5h249q31 0 41 11.5t10 43.5v180q-54 -72 -165 -72h-29q-106 0 -157 35t-51 140v261q0 32 21 32t21 -32v-261q0 -45 9.5 -72t32.5 -40.5 t49.5 -17t74.5 -3.5h29q79 0 122 48t43 138v208q0 32 22 32q20 0 20 -32v-528z" />
<glyph unicode="z" horiz-adv-x="530" d="M108 42h269q28 0 42 12.5t16.5 27t2.5 42.5q0 31 21 31t21 -31q0 -70 -20.5 -97t-74.5 -27h-327v59l354 360h-252q-39 0 -49.5 -20.5t-10.5 -61.5q0 -31 -22 -31q-20 0 -20 31q0 70 20 97t75 27h306v-62z" />
<glyph unicode="{" horiz-adv-x="250" d="M76 317q9 -4 21.5 -11.5t33.5 -29t21 -40.5q0 -26 -14 -71t-14 -57q0 -69 13 -88.5t65 -19.5v-42q-66 0 -93 30.5t-27 119.5q0 18 14 63.5t14 64.5t-19 39.5t-38 30.5l-19 11q9 4 21.5 12t33.5 30t21 41t-14 64.5t-14 63.5q0 89 27 119.5t93 30.5v-42q-52 0 -65 -20 t-13 -88q0 -12 14 -57.5t14 -70.5q0 -19 -19 -40t-38 -32z" />
<glyph unicode="|" horiz-adv-x="204" d="M123 20q0 -27 -22 -27q-20 0 -20 27v595q0 28 21 28t21 -28v-595z" />
<glyph unicode="}" horiz-adv-x="251" d="M174 318q-9 4 -21.5 12t-33.5 29.5t-21 40.5q0 25 14 70.5t14 57.5q0 68 -13 88t-65 20v42q66 0 93 -30.5t27 -119.5q0 -18 -14 -63.5t-14 -64.5t19 -39.5t38 -31.5l19 -11q-9 -4 -21.5 -12t-33.5 -29.5t-21 -40.5t14 -64.5t14 -63.5q0 -89 -27 -119.5t-93 -30.5v42 q52 0 65 19.5t13 88.5q0 12 -14 57t-14 71q0 19 19 39.5t38 31.5z" />
<glyph unicode="~" horiz-adv-x="418" d="M256 231q4 -2 7 -2q4 0 11 5l31 28q11 8 19 8t14.5 -5t6.5 -13q0 -12 -12 -23l-47 -39q-7 -7 -16 -7q-4 0 -10 2l-98 36q-4 2 -8 2t-11 -5l-31 -28q-11 -8 -19 -8q-7 0 -13.5 5.5t-6.5 13.5q0 13 12 22l47 39q5 7 15 7q3 0 11 -2z" />
<glyph unicode="&#xa1;" horiz-adv-x="218" d="M130 -138q0 -27 -22 -27q-20 0 -20 27v420q0 28 21 28t21 -28v-420zM62 450q0 14 15.5 25t30.5 11q16 0 31.5 -11t15.5 -25t-15.5 -25t-31.5 -11q-15 0 -30.5 11t-15.5 25z" />
<glyph unicode="&#xa2;" horiz-adv-x="471" d="M261 20q0 -27 -22 -27q-20 0 -20 27v104q-85 4 -127 41t-42 133v42q0 95 42.5 132.5t126.5 41.5v101q0 28 22 28q20 0 20 -28v-100h57q58 0 77 -29t19 -77q0 -31 -22 -31q-20 0 -20 29q0 36 -13.5 51t-47.5 15h-50v-308h48q34 0 47.5 15t13.5 51q0 29 20 29q22 0 22 -31 q0 -22 -3 -38t-12 -33t-29.5 -26t-51.5 -9h-55v-103zM219 166v306q-68 -2 -97.5 -29.5t-29.5 -102.5v-42q0 -77 28.5 -103.5t98.5 -28.5z" />
<glyph unicode="&#xa3;" horiz-adv-x="491" d="M82 0q-17 0 -17 23q0 5 1 8l38 437q5 55 21 91.5t42.5 53.5t53 23.5t62.5 6.5q69 0 108.5 -29.5t39.5 -112.5q0 -28 -22 -28q-20 0 -20 28q0 34 -8 55.5t-25.5 30.5t-33.5 11.5t-43 2.5q-60 0 -93 -25t-40 -108l-9 -104h39q27 0 27 -22q0 -20 -27 -20h-43l-24 -280h296 q28 0 28 -22q0 -20 -28 -20h-323z" />
<glyph unicode="&#xa4;" horiz-adv-x="493" d="M137 230q0 -45 32 -77t78 -32q45 0 77 32t32 77q0 46 -32 78t-77 32q-46 0 -78 -32t-32 -78zM131 145q-28 37 -28 85q0 49 28 85l-48 49q-11 11 -11 20q0 7 6.5 13.5t13.5 6.5q9 0 20 -11l49 -48q37 29 86 29q48 0 85 -29l48 48q11 11 21 11q6 0 13 -5.5t7 -13.5 q0 -11 -12 -21l-48 -49q29 -35 29 -85q0 -48 -29 -85l48 -48q12 -10 12 -20q0 -7 -7 -14t-14 -7q-10 0 -20 12l-48 48q-37 -29 -85 -29q-49 0 -86 29l-49 -48q-10 -12 -21 -12q-6 0 -12.5 5.5t-6.5 14.5q0 10 11 21z" />
<glyph unicode="&#xa5;" horiz-adv-x="529" d="M245 310l-206 294q-7 10 -7 19q0 8 6.5 14t13.5 6q10 0 21 -16l192 -273l191 273q13 16 22 16q7 0 13.5 -6t6.5 -14q0 -9 -7 -19l-205 -294v-38h99q28 0 28 -22q0 -21 -28 -21h-99v-46h99q28 0 28 -22q0 -21 -28 -21h-99v-120q0 -27 -21 -27q-20 0 -20 27v120h-105 q-27 0 -27 23q0 20 27 20h105v46h-105q-27 0 -27 23q0 20 27 20h105v38z" />
<glyph unicode="&#xa6;" horiz-adv-x="207" d="M83 616q0 27 21 27q20 0 20 -27v-215q0 -28 -22 -28q-19 0 -19 28v215zM83 237q0 26 21 26q20 0 20 -26v-215q0 -29 -22 -29q-19 0 -19 29v215z" />
<glyph unicode="&#xa7;" horiz-adv-x="510" d="M435 289q0 -77 -53 -94q53 -25 53 -96q0 -99 -100 -99h-184q-33 0 -50.5 14t-21.5 30.5t-4 41.5t22 25q8 0 14 -6t6 -17q0 -29 8.5 -37.5t36.5 -8.5h184q27 0 37 13.5t10 43.5q0 69 -43 75l-175 25q-100 14 -100 107q0 76 53 93q-53 25 -53 96q0 99 100 99h185 q25 0 41 -7t23 -21t9 -27t2 -31q0 -25 -21 -25t-21 23q0 29 -8.5 37.5t-36.5 8.5h-184q-27 0 -37 -14t-10 -43q0 -69 43 -75l175 -25q100 -14 100 -106zM117 306q0 -43 55 -64t135 -21q53 0 69.5 11t16.5 57q0 43 -55 63.5t-135 20.5q-53 0 -69.5 -11t-16.5 -56z" />
<glyph unicode="&#xa8;" horiz-adv-x="367" d="M211 630q0 14 15 25t31 11q15 0 30.5 -11t15.5 -25t-15.5 -25t-30.5 -11q-16 0 -31 11t-15 25zM65 630q0 14 15 25t31 11q15 0 30.5 -11t15.5 -25t-15.5 -25t-30.5 -11q-16 0 -31 11t-15 25z" />
<glyph unicode="&#xa9;" horiz-adv-x="604" d="M347 219h-50q-37 0 -63.5 20t-26.5 59v39q0 39 26.5 59t63.5 20h50q20 0 32 -10.5t15 -21t3 -22.5q0 -11 -15 -11q-14 0 -14 10q0 24 -23 24h-48q-25 0 -42.5 -12.5t-17.5 -35.5v-39q0 -23 17.5 -35.5t42.5 -12.5h48q23 0 23 23q0 11 14 11q15 0 15 -12q0 -11 -3 -21.5 t-15 -21t-32 -10.5zM317 87h-29q-106 0 -157 35t-51 140v111q0 105 51 140t157 35h29q105 0 156 -35t51 -140v-111q0 -105 -51 -140t-156 -35zM288 129h29q47 0 73.5 3.5t49.5 17t32.5 40.5t9.5 72v111q0 45 -9.5 72t-32.5 40.5t-49.5 17t-73.5 3.5h-29q-48 0 -74.5 -3.5 t-49.5 -17t-32.5 -40.5t-9.5 -72v-111q0 -45 9.5 -72t32.5 -40.5t49.5 -17t74.5 -3.5z" />
<glyph unicode="&#xaa;" horiz-adv-x="376" d="M89 164q-21 0 -21 18q0 17 21 17h196q23 0 23 -19q0 -16 -23 -16h-196zM252 354h-62q-37 0 -51.5 -8.5t-14.5 -36.5q0 -11 7 -20t17 -9h37q32 0 49.5 19t17.5 55zM190 385h62v19q0 14 -5.5 20t-19.5 6h-79q-13 0 -18.5 -6t-5.5 -20q0 -12 -16 -12q-15 0 -15 12 q0 24 14.5 40.5t37.5 16.5h85q53 0 53 -64v-139q0 -12 -16 -12q-15 0 -15 12v34q-8 -22 -22 -32.5t-45 -10.5h-37q-24 0 -39.5 19t-15.5 43q0 42 23.5 58t73.5 16z" />
<glyph unicode="&#xab;" horiz-adv-x="484" d="M256 178q13 -13 13 -28t-15 -15q-14 0 -20 6l-182 169q-16 14 -16 23q0 7 16 21l182 169q5 5 20 5t15 -14t-13 -28l-158 -153zM410 178q13 -13 13 -28t-15 -15q-14 0 -20 6l-182 169q-16 14 -16 23q0 7 16 21l182 169q5 5 20 5t15 -14t-13 -28l-158 -153z" />
<glyph unicode="&#xac;" horiz-adv-x="515" d="M436 225v-84q0 -28 -23 -28q-20 0 -20 28v68h-284q-26 0 -26 22q0 21 26 21h298q29 0 29 -27z" />
<glyph unicode="&#xad;" horiz-adv-x="446" d="M99 209q-26 0 -26 22q0 21 26 21h245q29 0 29 -23q0 -20 -29 -20h-245z" />
<glyph unicode="&#xae;" horiz-adv-x="604" d="M301 334q40 0 56.5 5t16.5 22q0 18 -16.5 23.5t-56.5 5.5h-67v-56h67zM234 217q0 -9 -16 -9q-15 0 -15 9v194q0 10 14 10h84q104 0 104 -60q0 -21 -15 -37.5t-40 -19.5q15 -9 29.5 -30t21.5 -37.5t7 -19.5q0 -9 -16 -9q-5 0 -10 3t-5 6t-7.5 18t-24 36t-34.5 32h-77v-86z M317 87h-29q-106 0 -157 35t-51 140v111q0 105 51 140t157 35h29q105 0 156 -35t51 -140v-111q0 -105 -51 -140t-156 -35zM288 129h29q47 0 73.5 3.5t49.5 17t32.5 40.5t9.5 72v111q0 45 -9.5 72t-32.5 40.5t-49.5 17t-73.5 3.5h-29q-48 0 -74.5 -3.5t-49.5 -17t-32.5 -40.5 t-9.5 -72v-111q0 -45 9.5 -72t32.5 -40.5t49.5 -17t74.5 -3.5z" />
<glyph unicode="&#xaf;" horiz-adv-x="429" d="M91 678q-26 0 -26 22q0 21 26 21h245q29 0 29 -23q0 -20 -29 -20h-245z" />
<glyph unicode="&#xb0;" horiz-adv-x="394" d="M95 535q0 -43 30 -73t72 -30q43 0 73 30t30 73q0 42 -30 72t-73 30q-42 0 -72 -30t-30 -72zM54 535q0 59 42 101t101 42t101.5 -42t42.5 -101t-42.5 -101.5t-101.5 -42.5t-101 42.5t-42 101.5z" />
<glyph unicode="&#xb1;" horiz-adv-x="573" d="M474 43q29 0 29 -23q0 -20 -29 -20h-378q-26 0 -26 23q0 20 26 20h378zM307 143q0 -27 -21 -27t-21 27v127h-169q-26 0 -26 23q0 20 26 20h169v127q0 28 22 28q20 0 20 -28v-127h167q29 0 29 -22q0 -21 -29 -21h-167v-127z" />
<glyph unicode="&#xb2;" horiz-adv-x="310" d="M266 682q0 -28 -29.5 -52.5t-64.5 -40.5t-64.5 -41.5t-29.5 -53.5h166q8 0 15 -5.5t7 -11.5q0 -5 -7 -10.5t-15 -5.5h-203v22q0 35 20 62.5t48 44.5t56 31t48 29t20 32q0 35 -18 43.5t-69 8.5h-26q-43 0 -43 -31q0 -7 -5.5 -12.5t-12.5 -5.5q-6 0 -12 5.5t-6 12.5 q0 27 22.5 45.5t52.5 18.5h30q61 0 90.5 -16t29.5 -69z" />
<glyph unicode="&#xb3;" horiz-adv-x="280" d="M143 734h-12q-23 0 -44 -8.5t-21 -24.5q0 -13 -19 -13q-17 0 -17 15q0 21 26.5 42.5t70.5 21.5h12q57 0 80.5 -19t23.5 -64q0 -24 -25 -43t-45 -23q21 -3 45.5 -25.5t24.5 -52.5q0 -42 -23.5 -60.5t-80.5 -18.5h-12q-44 0 -70.5 21.5t-26.5 42.5q0 15 17 15q19 0 19 -13 q0 -16 21 -24.5t44 -8.5h12q43 0 55.5 12t12.5 35q0 24 -30.5 42t-61.5 18q-18 0 -18 17q0 16 18 16q32 0 62 15t30 38q0 11 -2 18t-8 14.5t-20.5 11t-37.5 3.5z" />
<glyph unicode="&#xb4;" horiz-adv-x="212" d="M179 657q0 -10 -8 -19l-96 -115q-12 -13 -21 -13q-7 0 -13.5 6t-6.5 14q0 11 8 20l96 115q12 13 21 13q7 0 13.5 -6t6.5 -15z" />
<glyph unicode="&#xb5;" horiz-adv-x="564" d="M290 42q79 0 122.5 48t43.5 138v210q0 30 20 30q22 0 22 -30v-414q0 -31 -20 -31q-22 0 -22 31v48q-56 -72 -166 -72t-166 72v-244q0 -31 -23 -31q-19 0 -19 31v610q0 30 20 30q22 0 22 -30v-210q0 -90 43 -138t123 -48z" />
<glyph unicode="&#xb6;" horiz-adv-x="447" d="M358 20q0 -27 -20 -27q-22 0 -22 27v574h-31v-574q0 -27 -20 -27q-22 0 -22 27v317h-42q-78 0 -121.5 38t-43.5 111q0 86 52 118t155 32h115v-616z" />
<glyph unicode="&#xb7;" horiz-adv-x="232" d="M70 387q0 14 15 25t31 11q15 0 30.5 -11t15.5 -25t-15.5 -25t-30.5 -11q-16 0 -31 11t-15 25z" />
<glyph unicode="&#xb8;" horiz-adv-x="242" d="M42 -120q0 13 10 13q3 0 26 -9t40 -9q47 0 47 31q0 12 -11 23.5t-23.5 19.5t-23.5 25.5t-11 40.5h42q0 -18 11 -31t23.5 -20t23.5 -20.5t11 -32.5q0 -33 -26 -54.5t-65 -21.5q-23 0 -48.5 10.5t-25.5 34.5z" />
<glyph unicode="&#xb9;" horiz-adv-x="138" d="M52 715l-27 -27q-9 -10 -20 -10q-15 0 -15 14q0 9 10 18l49 50q10 10 19 10q18 0 18 -19v-271q0 -22 -17 -22t-17 22v235z" />
<glyph unicode="&#xba;" horiz-adv-x="376" d="M183 280h9q36 0 48 9t12 44v44q0 35 -12 44t-48 9h-9q-36 0 -47.5 -9t-11.5 -44v-44q0 -35 11.5 -44t47.5 -9zM192 249h-9q-51 0 -70.5 17t-19.5 67v44q0 49 19.5 66.5t70.5 17.5h9q52 0 71.5 -17.5t19.5 -66.5v-44q0 -50 -19.5 -67t-71.5 -17zM89 164q-21 0 -21 18 q0 17 21 17h196q23 0 23 -19q0 -16 -23 -16h-196z" />
<glyph unicode="&#xbb;" horiz-adv-x="484" d="M74 178l158 155l-158 153q-13 14 -13 28t15 14q14 0 19 -5l183 -169q16 -14 16 -21q0 -9 -16 -23l-183 -169q-6 -6 -19 -6q-15 0 -15 15t13 28zM228 178l158 155l-158 153q-13 14 -13 28t15 14q14 0 19 -5l183 -169q16 -14 16 -21q0 -9 -16 -23l-183 -169q-6 -6 -19 -6 q-15 0 -15 15t13 28z" />
<glyph unicode="&#xbc;" horiz-adv-x="579" d="M517 100h-49v-82q0 -22 -17 -22t-17 22v82h-132v45l120 160h46v-172h49q21 0 21 -16q0 -17 -21 -17zM434 133v138l-103 -138h103zM481 534q15 0 15 -15q0 -8 -11 -21l-409 -409q-11 -11 -21 -11q-15 0 -15 15q0 10 11 21l409 409q13 11 21 11zM159 581l-27 -27 q-9 -10 -20 -10q-15 0 -15 14q0 9 10 18l49 50q10 10 19 10q18 0 18 -19v-271q0 -22 -17 -22t-17 22v235z" />
<glyph unicode="&#xbd;" horiz-adv-x="602" d="M159 581l-27 -27q-9 -10 -20 -10q-15 0 -15 14q0 9 10 18l49 50q10 10 19 10q18 0 18 -19v-271q0 -22 -17 -22t-17 22v235zM549 220q0 -28 -29.5 -52.5t-64.5 -40.5t-64.5 -41.5t-29.5 -53.5h166q8 0 15 -5.5t7 -11.5q0 -5 -7 -10.5t-15 -5.5h-203v22q0 35 20 62.5 t48 44.5t56 31t48 29t20 32q0 35 -18 43.5t-69 8.5h-26q-43 0 -43 -31q0 -7 -5.5 -12.5t-12.5 -5.5q-6 0 -12 5.5t-6 12.5q0 27 22.5 45.5t52.5 18.5h30q61 0 90.5 -16t29.5 -69zM481 534q15 0 15 -15q0 -8 -11 -21l-409 -409q-11 -11 -21 -11q-15 0 -15 15q0 10 11 21 l409 409q13 11 21 11z" />
<glyph unicode="&#xbe;" horiz-adv-x="622" d="M179 603h-12q-23 0 -44 -8.5t-21 -24.5q0 -13 -19 -13q-17 0 -17 15q0 21 26.5 42.5t70.5 21.5h12q57 0 80.5 -19t23.5 -64q0 -24 -25 -43t-45 -23q21 -3 45.5 -25.5t24.5 -52.5q0 -42 -23.5 -60.5t-80.5 -18.5h-12q-44 0 -70.5 21.5t-26.5 42.5q0 15 17 15q19 0 19 -13 q0 -16 21 -24.5t44 -8.5h12q43 0 55.5 12t12.5 35q0 24 -30.5 42t-61.5 18q-18 0 -18 17q0 16 18 16q32 0 62 15t30 38q0 11 -2 18t-8 14.5t-20.5 11t-37.5 3.5zM531 534q15 0 15 -15q0 -8 -11 -21l-409 -409q-11 -11 -21 -11q-15 0 -15 15q0 10 11 21l409 409q13 11 21 11z M558 100h-49v-82q0 -22 -17 -22t-17 22v82h-132v45l120 160h46v-172h49q21 0 21 -16q0 -17 -21 -17zM475 133v138l-103 -138h103z" />
<glyph unicode="&#xbf;" horiz-adv-x="520" d="M324 450q0 -14 -15.5 -25t-30.5 -11q-16 0 -31.5 11t-15.5 25t15.5 25t31.5 11q15 0 30.5 -11t15.5 -25zM256 176v109q0 28 22 28q20 0 20 -28v-140l-153 -42q-27 -8 -45.5 -37.5t-18.5 -70.5q0 -44 24.5 -81t77.5 -37h94q48 0 74 3.5t49.5 16t32.5 39.5t9 72q0 28 21 28 q22 0 22 -28q0 -55 -14 -90.5t-44 -53t-64 -23.5t-86 -6h-76q-86 0 -124 47t-38 113t28 101t96 54z" />
<glyph unicode="&#xc0;" horiz-adv-x="548" d="M171 799q0 6 6.5 13t14.5 7q10 0 20 -11l70 -69q11 -13 11 -22q0 -6 -6 -12.5t-14 -6.5q-11 0 -21 11l-69 69q-12 12 -12 21zM44 -16q-21 0 -21 20q0 6 3 14l225 618h46l225 -618q3 -7 3 -14q0 -20 -21 -20q-14 0 -22 20l-72 200h-272l-72 -200q-9 -20 -22 -20zM154 246 h240l-121 329z" />
<glyph unicode="&#xc1;" horiz-adv-x="548" d="M357 799q0 -8 -11 -21l-70 -69q-10 -11 -20 -11q-8 0 -14.5 6.5t-6.5 12.5q0 10 12 22l69 69q10 11 21 11q8 0 14 -7t6 -13zM44 -16q-21 0 -21 20q0 6 3 14l225 618h46l225 -618q3 -7 3 -14q0 -20 -21 -20q-14 0 -22 20l-72 200h-272l-72 -200q-9 -20 -22 -20zM154 246 h240l-121 329z" />
<glyph unicode="&#xc2;" horiz-adv-x="548" d="M275 773h-3l-92 -104q-16 -18 -24 -18q-18 0 -18 18q0 9 4 13l104 137h55l106 -137q4 -5 4 -13q0 -18 -18 -18q-4 0 -7.5 1.5t-5 3t-5.5 6.5t-6 7zM44 -16q-21 0 -21 20q0 6 3 14l225 618h46l225 -618q3 -7 3 -14q0 -20 -21 -20q-14 0 -22 20l-72 200h-272l-72 -200 q-9 -20 -22 -20zM154 246h240l-121 329z" />
<glyph unicode="&#xc3;" horiz-adv-x="548" d="M321 755q4 -2 7 -2q4 0 11 5l31 28q11 8 19 8t14.5 -5t6.5 -13q0 -12 -12 -23l-47 -39q-7 -7 -16 -7q-4 0 -10 2l-98 36q-4 2 -8 2t-11 -5l-31 -28q-11 -8 -19 -8q-7 0 -13.5 5.5t-6.5 13.5q0 13 12 22l47 39q5 7 15 7q3 0 11 -2zM44 -16q-21 0 -21 20q0 6 3 14l225 618 h46l225 -618q3 -7 3 -14q0 -20 -21 -20q-14 0 -22 20l-72 200h-272l-72 -200q-9 -20 -22 -20zM154 246h240l-121 329z" />
<glyph unicode="&#xc4;" horiz-adv-x="548" d="M301 743q0 14 15 25t31 11q15 0 30.5 -11t15.5 -25t-15.5 -25t-30.5 -11q-16 0 -31 11t-15 25zM155 743q0 14 15 25t31 11q15 0 30.5 -11t15.5 -25t-15.5 -25t-30.5 -11q-16 0 -31 11t-15 25zM44 -16q-21 0 -21 20q0 6 3 14l225 618h46l225 -618q3 -7 3 -14 q0 -20 -21 -20q-14 0 -22 20l-72 200h-272l-72 -200q-9 -20 -22 -20zM154 246h240l-121 329z" />
<glyph unicode="&#xc5;" horiz-adv-x="548" d="M225 716q0 -20 14.5 -34.5t34.5 -14.5t34.5 14.5t14.5 34.5t-14.5 34.5t-34.5 14.5t-34.5 -14.5t-14.5 -34.5zM198 716q0 32 22 54t54 22t54 -22t22 -54t-22 -54t-54 -22t-54 22t-22 54zM44 -16q-21 0 -21 20q0 6 3 14l225 618h46l225 -618q3 -7 3 -14q0 -20 -21 -20 q-14 0 -22 20l-72 200h-272l-72 -200q-9 -20 -22 -20zM154 246h240l-121 329z" />
<glyph unicode="&#xc6;" horiz-adv-x="846" d="M435 337v-295h334q29 0 29 -23q0 -19 -29 -19h-356q-19 0 -19 31v173h-219l-123 -199q-13 -21 -29 -21q-15 0 -15 13q0 7 7 21l383 610q5 8 15 8h356q29 0 29 -23q0 -19 -29 -19h-334v-215h215q31 0 31 -23q0 -19 -31 -19h-215zM394 246v304l-191 -304h191z" />
<glyph unicode="&#xc7;" horiz-adv-x="572" d="M220 -120q0 13 10 13q3 0 26 -9t40 -9q47 0 47 31q0 14 -15 26.5t-32 28.5t-21 39q-103 1 -153 36t-50 139v286q0 105 51 140t157 35h141q31 0 51.5 -9t29 -26t11.5 -33t3 -39q0 -30 -21 -30t-21 28q0 36 -13 51.5t-47 15.5h-134q-48 0 -74.5 -3.5t-49.5 -17t-32.5 -40.5 t-9.5 -72v-286q0 -45 9.5 -72t32.5 -40.5t49.5 -17t74.5 -3.5h134q34 0 47 15t13 52q0 28 21 28t21 -31q0 -22 -3 -38t-11.5 -33t-29 -26t-51.5 -9h-103q4 -15 21.5 -27.5t31.5 -26.5t14 -35q0 -33 -26 -54.5t-65 -21.5q-23 0 -48.5 10.5t-25.5 34.5z" />
<glyph unicode="&#xc8;" horiz-adv-x="577" d="M199 799q0 6 6.5 13t14.5 7q10 0 20 -11l70 -69q11 -13 11 -22q0 -6 -6 -12.5t-14 -6.5q-11 0 -21 11l-69 69q-12 12 -12 21zM126 337v-295h373q29 0 29 -23q0 -19 -29 -19h-396q-19 0 -19 31v574q0 31 19 31h396q29 0 29 -23q0 -19 -29 -19h-373v-215h255q30 0 30 -23 q0 -19 -30 -19h-255z" />
<glyph unicode="&#xc9;" horiz-adv-x="577" d="M372 799q0 -8 -11 -21l-70 -69q-10 -11 -20 -11q-8 0 -14.5 6.5t-6.5 12.5q0 10 12 22l69 69q10 11 21 11q8 0 14 -7t6 -13zM126 337v-295h373q29 0 29 -23q0 -19 -29 -19h-396q-19 0 -19 31v574q0 31 19 31h396q29 0 29 -23q0 -19 -29 -19h-373v-215h255q30 0 30 -23 q0 -19 -30 -19h-255z" />
<glyph unicode="&#xca;" horiz-adv-x="577" d="M302 773h-3l-92 -104q-2 -2 -5.5 -6t-5 -5.5t-4 -3.5t-4.5 -2.5t-5 -0.5q-18 0 -18 18q0 9 4 13l104 137h55l106 -137q4 -5 4 -13q0 -18 -18 -18q-4 0 -7.5 1.5t-5 3t-5.5 6.5t-6 7zM126 337v-295h373q29 0 29 -23q0 -19 -29 -19h-396q-19 0 -19 31v574q0 31 19 31h396 q29 0 29 -23q0 -19 -29 -19h-373v-215h255q30 0 30 -23q0 -19 -30 -19h-255z" />
<glyph unicode="&#xcb;" horiz-adv-x="577" d="M329 743q0 14 15 25t31 11q15 0 30.5 -11t15.5 -25t-15.5 -25t-30.5 -11q-16 0 -31 11t-15 25zM183 743q0 14 15 25t31 11q15 0 30.5 -11t15.5 -25t-15.5 -25t-30.5 -11q-16 0 -31 11t-15 25zM126 337v-295h373q29 0 29 -23q0 -19 -29 -19h-396q-19 0 -19 31v574 q0 31 19 31h396q29 0 29 -23q0 -19 -29 -19h-373v-215h255q30 0 30 -23q0 -19 -30 -19h-255z" />
<glyph unicode="&#xcc;" horiz-adv-x="210" d="M4 799q0 6 6.5 13t14.5 7q10 0 20 -11l70 -69q11 -13 11 -22q0 -6 -6 -12.5t-14 -6.5q-11 0 -21 11l-69 69q-12 12 -12 21zM126 20q0 -27 -22 -27q-20 0 -20 27v595q0 28 21 28t21 -28v-595z" />
<glyph unicode="&#xcd;" horiz-adv-x="210" d="M207 799q0 -8 -11 -21l-70 -69q-10 -11 -20 -11q-8 0 -14.5 6.5t-6.5 12.5q0 10 12 22l69 69q10 11 21 11q8 0 14 -7t6 -13zM126 20q0 -27 -22 -27q-20 0 -20 27v595q0 28 21 28t21 -28v-595z" />
<glyph unicode="&#xce;" horiz-adv-x="210" d="M107 773h-3l-92 -104q-16 -18 -24 -18q-18 0 -18 18q0 9 4 13l104 137h55l106 -137q4 -5 4 -13q0 -18 -18 -18q-4 0 -7.5 1.5t-5 3t-5.5 6.5t-6 7zM126 20q0 -27 -22 -27q-20 0 -20 27v595q0 28 21 28t21 -28v-595z" />
<glyph unicode="&#xcf;" horiz-adv-x="210" d="M133 743q0 14 15 25t31 11q15 0 30.5 -11t15.5 -25t-15.5 -25t-30.5 -11q-16 0 -31 11t-15 25zM-13 743q0 14 15 25t31 11q15 0 30.5 -11t15.5 -25t-15.5 -25t-30.5 -11q-16 0 -31 11t-15 25zM126 20q0 -27 -22 -27q-20 0 -20 27v595q0 28 21 28t21 -28v-595z" />
<glyph unicode="&#xd0;" horiz-adv-x="600" d="M76 303q-27 0 -27 23q0 20 27 20h8v259q0 31 19 31h218q105 0 156 -35t51 -140v-286q0 -105 -51 -140t-156 -35h-218q-19 0 -19 31v272h-8zM486 175v286q0 45 -9.5 72t-32.5 40.5t-49.5 17t-73.5 3.5h-195v-248h106q29 0 29 -22q0 -21 -29 -21h-106v-261h195 q47 0 73.5 3.5t49.5 17t32.5 40.5t9.5 72z" />
<glyph unicode="&#xd1;" horiz-adv-x="612" d="M352 755q4 -2 7 -2q4 0 11 5l31 28q11 8 19 8t14.5 -5t6.5 -13q0 -12 -12 -23l-47 -39q-7 -7 -16 -7q-4 0 -10 2l-98 36q-4 2 -8 2t-11 -5l-31 -28q-11 -8 -19 -8q-7 0 -13.5 5.5t-6.5 13.5q0 13 12 22l47 39q5 7 15 7q3 0 11 -2zM508 -7q-12 0 -16 7l-366 557v-534 q0 -30 -21 -30t-21 30v589q0 31 19 31q15 0 26 -17l357 -542v528q0 31 20 31q22 0 22 -31v-589q0 -30 -20 -30z" />
<glyph unicode="&#xd2;" horiz-adv-x="574" d="M185 799q0 6 6.5 13t14.5 7q10 0 20 -11l70 -69q11 -13 11 -22q0 -6 -6 -12.5t-14 -6.5q-11 0 -21 11l-69 69q-12 12 -12 21zM287 -9q-97 0 -159.5 63t-62.5 173v182q0 110 62.5 173t159.5 63t159.5 -63t62.5 -173v-182q0 -110 -62.5 -173t-159.5 -63zM287 603 q-84 0 -132 -51.5t-48 -142.5v-182q0 -91 48 -142.5t132 -51.5t132 51.5t48 142.5v182q0 91 -48 142.5t-132 51.5z" />
<glyph unicode="&#xd3;" horiz-adv-x="574" d="M388 799q0 -8 -11 -21l-70 -69q-10 -11 -20 -11q-8 0 -14.5 6.5t-6.5 12.5q0 10 12 22l69 69q10 11 21 11q8 0 14 -7t6 -13zM287 -9q-97 0 -159.5 63t-62.5 173v182q0 110 62.5 173t159.5 63t159.5 -63t62.5 -173v-182q0 -110 -62.5 -173t-159.5 -63zM287 603 q-84 0 -132 -51.5t-48 -142.5v-182q0 -91 48 -142.5t132 -51.5t132 51.5t48 142.5v182q0 91 -48 142.5t-132 51.5z" />
<glyph unicode="&#xd4;" horiz-adv-x="574" d="M288 773h-3l-92 -104q-2 -2 -5.5 -6t-5 -5.5t-4 -3.5t-4.5 -2.5t-5 -0.5q-18 0 -18 18q0 9 4 13l104 137h55l106 -137q4 -5 4 -13q0 -18 -18 -18q-4 0 -7.5 1.5t-5 3t-5.5 6.5t-6 7zM287 -9q-97 0 -159.5 63t-62.5 173v182q0 110 62.5 173t159.5 63t159.5 -63t62.5 -173 v-182q0 -110 -62.5 -173t-159.5 -63zM287 603q-84 0 -132 -51.5t-48 -142.5v-182q0 -91 48 -142.5t132 -51.5t132 51.5t48 142.5v182q0 91 -48 142.5t-132 51.5z" />
<glyph unicode="&#xd5;" horiz-adv-x="574" d="M334 755q4 -2 7 -2q4 0 11 5l31 28q11 8 19 8t14.5 -5t6.5 -13q0 -12 -12 -23l-47 -39q-7 -7 -16 -7q-4 0 -10 2l-98 36q-4 2 -8 2t-11 -5l-31 -28q-11 -8 -19 -8q-7 0 -13.5 5.5t-6.5 13.5q0 13 12 22l47 39q5 7 15 7q3 0 11 -2zM287 -9q-97 0 -159.5 63t-62.5 173v182 q0 110 62.5 173t159.5 63t159.5 -63t62.5 -173v-182q0 -110 -62.5 -173t-159.5 -63zM287 603q-84 0 -132 -51.5t-48 -142.5v-182q0 -91 48 -142.5t132 -51.5t132 51.5t48 142.5v182q0 91 -48 142.5t-132 51.5z" />
<glyph unicode="&#xd6;" horiz-adv-x="574" d="M315 743q0 14 15 25t31 11q15 0 30.5 -11t15.5 -25t-15.5 -25t-30.5 -11q-16 0 -31 11t-15 25zM169 743q0 14 15 25t31 11q15 0 30.5 -11t15.5 -25t-15.5 -25t-30.5 -11q-16 0 -31 11t-15 25zM287 -9q-97 0 -159.5 63t-62.5 173v182q0 110 62.5 173t159.5 63t159.5 -63 t62.5 -173v-182q0 -110 -62.5 -173t-159.5 -63zM287 603q-84 0 -132 -51.5t-48 -142.5v-182q0 -91 48 -142.5t132 -51.5t132 51.5t48 142.5v182q0 91 -48 142.5t-132 51.5z" />
<glyph unicode="&#xd7;" horiz-adv-x="491" d="M71 384q0 7 6.5 13.5t13.5 6.5q9 0 20 -11l135 -133l133 133q11 11 21 11q6 0 13 -5.5t7 -13.5q0 -11 -12 -21l-133 -134l133 -133q12 -10 12 -20q0 -7 -7 -14t-14 -7q-9 0 -20 12l-133 133l-135 -133q-11 -12 -21 -12q-6 0 -12.5 5.5t-6.5 14.5q0 10 11 21l133 133 l-133 134q-11 11 -11 20z" />
<glyph unicode="&#xd8;" horiz-adv-x="574" d="M287 603q-84 0 -132 -51.5t-48 -142.5v-182q0 -76 33 -124l266 461q-47 39 -119 39zM460 638q3 0 7.5 -1.5t9 -6.5t4.5 -12q0 -6 -5 -18l-19 -30q52 -63 52 -161v-182q0 -110 -62.5 -173t-159.5 -63q-82 0 -138 44l-12 -21q-9 -16 -22 -16q-5 0 -12.5 4.5t-7.5 14.5 q0 7 5 19l17 29q-52 61 -52 162v182q0 110 62.5 173t159.5 63q83 0 139 -45l13 22q9 16 21 16zM435 531l-266 -460q46 -38 118 -38q84 0 132 51.5t48 142.5v182q0 75 -32 122z" />
<glyph unicode="&#xd9;" horiz-adv-x="598" d="M198 783q0 9 6.5 15t13.5 6q9 0 21 -13l96 -115q8 -9 8 -20q0 -8 -6.5 -14t-13.5 -6q-9 0 -21 13l-96 115q-8 9 -8 19zM479 615q0 28 22 28q20 0 20 -28v-388q0 -110 -62.5 -173t-159.5 -63t-159.5 63t-62.5 173v388q0 28 21 28t21 -28v-388q0 -91 48 -142.5t132 -51.5 t132 51.5t48 142.5v388z" />
<glyph unicode="&#xda;" horiz-adv-x="598" d="M424 783q0 -10 -8 -19l-96 -115q-12 -13 -21 -13q-7 0 -13.5 6t-6.5 14q0 11 8 20l96 115q12 13 21 13q7 0 13.5 -6t6.5 -15zM479 615q0 28 22 28q20 0 20 -28v-388q0 -110 -62.5 -173t-159.5 -63t-159.5 63t-62.5 173v388q0 28 21 28t21 -28v-388q0 -91 48 -142.5 t132 -51.5t132 51.5t48 142.5v388z" />
<glyph unicode="&#xdb;" horiz-adv-x="598" d="M300 773h-3l-92 -104q-7 -9 -12 -13.5t-12 -4.5q-18 0 -18 18q0 9 4 13l104 137h55l106 -137q4 -5 4 -13q0 -18 -18 -18q-4 0 -7.5 1.5t-5 3t-5.5 6.5t-6 7zM479 615q0 28 22 28q20 0 20 -28v-388q0 -110 -62.5 -173t-159.5 -63t-159.5 63t-62.5 173v388q0 28 21 28 t21 -28v-388q0 -91 48 -142.5t132 -51.5t132 51.5t48 142.5v388z" />
<glyph unicode="&#xdc;" horiz-adv-x="598" d="M327 743q0 14 15 25t31 11q15 0 30.5 -11t15.5 -25t-15.5 -25t-30.5 -11q-16 0 -31 11t-15 25zM181 743q0 14 15 25t31 11q15 0 30.5 -11t15.5 -25t-15.5 -25t-30.5 -11q-16 0 -31 11t-15 25zM479 615q0 28 22 28q20 0 20 -28v-388q0 -110 -62.5 -173t-159.5 -63 t-159.5 63t-62.5 173v388q0 28 21 28t21 -28v-388q0 -91 48 -142.5t132 -51.5t132 51.5t48 142.5v388z" />
<glyph unicode="&#xdd;" horiz-adv-x="499" d="M374 783q0 -10 -8 -19l-96 -115q-12 -13 -21 -13q-7 0 -13.5 6t-6.5 14q0 11 8 20l96 115q12 13 21 13q7 0 13.5 -6t6.5 -15zM229 310l-206 294q-7 10 -7 19q0 8 6.5 14t13.5 6q10 0 21 -16l192 -273l191 273q13 16 22 16q7 0 13.5 -6t6.5 -14q0 -9 -7 -19l-205 -294 v-290q0 -27 -21 -27q-20 0 -20 27v290z" />
<glyph unicode="&#xde;" horiz-adv-x="500" d="M126 461h173q78 0 122 -38t44 -112q0 -73 -44.5 -111.5t-122.5 -38.5h-172v-141q0 -27 -22 -27q-20 0 -20 27v553q0 28 21 28t21 -28v-112zM126 419v-216h130q91 0 128 20.5t38 86.5q0 66 -37.5 87.5t-127.5 21.5h-131z" />
<glyph unicode="&#xdf;" horiz-adv-x="442" d="M161 360v42q60 0 97 31t37 94q0 30 -21.5 48.5t-59.5 18.5q-27 0 -44 -4t-34 -16.5t-24.5 -40.5t-7.5 -72v-437q0 -31 -23 -31q-19 0 -19 31v395q-31 0 -31 22q0 20 31 20q0 55 13.5 91.5t37.5 53.5t47.5 23.5t53.5 6.5q59 0 91 -33t32 -78q0 -94 -80 -141 q148 -38 148 -189q0 -61 -13 -105.5t-35.5 -67t-46 -32.5t-49.5 -10q-40 0 -75 27.5t-35 78.5q0 31 21 31t21 -29q0 -34 22.5 -50t53.5 -16q37 0 65.5 37t28.5 136q0 71 -52.5 118t-149.5 47z" />
<glyph unicode="&#xe0;" horiz-adv-x="534" d="M160 654q0 9 6.5 15t13.5 6q9 0 21 -13l96 -115q8 -9 8 -20q0 -8 -6.5 -14t-13.5 -6q-9 0 -21 13l-96 115q-8 9 -8 19zM268 248q-48 0 -74.5 -3.5t-49.5 -17t-32.5 -40.5t-9.5 -72q0 -28 18.5 -50.5t41.5 -22.5h93q79 0 122 48t43 138v20h-152zM268 290h152v64 q0 35 -13 50t-47 15h-141q-117 0 -117 -65q0 -30 -22 -30q-20 0 -20 30q0 54 42.5 80.5t109.5 26.5h155q55 0 75 -27t20 -97v-314q0 -30 -21 -30t-21 30v49q-54 -72 -165 -72h-93q-45 0 -73.5 32.5t-28.5 87.5q0 42 10 73t27 49.5t44 29t57 14.5t70 4z" />
<glyph unicode="&#xe1;" horiz-adv-x="534" d="M386 657q0 -10 -8 -19l-96 -115q-12 -13 -21 -13q-7 0 -13.5 6t-6.5 14q0 11 8 20l96 115q12 13 21 13q7 0 13.5 -6t6.5 -15zM268 248q-48 0 -74.5 -3.5t-49.5 -17t-32.5 -40.5t-9.5 -72q0 -28 18.5 -50.5t41.5 -22.5h93q79 0 122 48t43 138v20h-152zM268 290h152v64 q0 35 -13 50t-47 15h-141q-117 0 -117 -65q0 -30 -22 -30q-20 0 -20 30q0 54 42.5 80.5t109.5 26.5h155q55 0 75 -27t20 -97v-314q0 -30 -21 -30t-21 30v49q-54 -72 -165 -72h-93q-45 0 -73.5 32.5t-28.5 87.5q0 42 10 73t27 49.5t44 29t57 14.5t70 4z" />
<glyph unicode="&#xe2;" horiz-adv-x="534" d="M262 644h-3l-92 -104q-2 -2 -5.5 -6t-5 -5.5t-4 -3.5t-4.5 -2.5t-5 -0.5q-18 0 -18 18q0 9 4 13l104 137h55l106 -137q4 -5 4 -13q0 -18 -18 -18q-4 0 -7.5 1.5t-5 3t-5.5 6.5t-6 7zM268 248q-48 0 -74.5 -3.5t-49.5 -17t-32.5 -40.5t-9.5 -72q0 -28 18.5 -50.5 t41.5 -22.5h93q79 0 122 48t43 138v20h-152zM268 290h152v64q0 35 -13 50t-47 15h-141q-117 0 -117 -65q0 -30 -22 -30q-20 0 -20 30q0 54 42.5 80.5t109.5 26.5h155q55 0 75 -27t20 -97v-314q0 -30 -21 -30t-21 30v49q-54 -72 -165 -72h-93q-45 0 -73.5 32.5t-28.5 87.5 q0 42 10 73t27 49.5t44 29t57 14.5t70 4z" />
<glyph unicode="&#xe3;" horiz-adv-x="534" d="M309 571q4 -2 7 -2q4 0 11 5l31 28q11 8 19 8t14.5 -5t6.5 -13q0 -12 -12 -23l-47 -39q-7 -7 -16 -7q-4 0 -10 2l-98 36q-4 2 -8 2t-11 -5l-31 -28q-11 -8 -19 -8q-7 0 -13.5 5.5t-6.5 13.5q0 13 12 22l47 39q5 7 15 7q3 0 11 -2zM268 248q-48 0 -74.5 -3.5t-49.5 -17 t-32.5 -40.5t-9.5 -72q0 -28 18.5 -50.5t41.5 -22.5h93q79 0 122 48t43 138v20h-152zM268 290h152v64q0 35 -13 50t-47 15h-141q-117 0 -117 -65q0 -30 -22 -30q-20 0 -20 30q0 54 42.5 80.5t109.5 26.5h155q55 0 75 -27t20 -97v-314q0 -30 -21 -30t-21 30v49 q-54 -72 -165 -72h-93q-45 0 -73.5 32.5t-28.5 87.5q0 42 10 73t27 49.5t44 29t57 14.5t70 4z" />
<glyph unicode="&#xe4;" horiz-adv-x="534" d="M288 558q0 14 15 25t31 11q15 0 30.5 -11t15.5 -25t-15.5 -25t-30.5 -11q-16 0 -31 11t-15 25zM142 558q0 14 15 25t31 11q15 0 30.5 -11t15.5 -25t-15.5 -25t-30.5 -11q-16 0 -31 11t-15 25zM268 248q-48 0 -74.5 -3.5t-49.5 -17t-32.5 -40.5t-9.5 -72q0 -28 18.5 -50.5 t41.5 -22.5h93q79 0 122 48t43 138v20h-152zM268 290h152v64q0 35 -13 50t-47 15h-141q-117 0 -117 -65q0 -30 -22 -30q-20 0 -20 30q0 54 42.5 80.5t109.5 26.5h155q55 0 75 -27t20 -97v-314q0 -30 -21 -30t-21 30v49q-54 -72 -165 -72h-93q-45 0 -73.5 32.5t-28.5 87.5 q0 42 10 73t27 49.5t44 29t57 14.5t70 4z" />
<glyph unicode="&#xe5;" horiz-adv-x="534" d="M213 598q0 -20 14.5 -34.5t34.5 -14.5t34.5 14.5t14.5 34.5t-14.5 34.5t-34.5 14.5t-34.5 -14.5t-14.5 -34.5zM186 598q0 32 22 54t54 22t54 -22t22 -54t-22 -54t-54 -22t-54 22t-22 54zM268 248q-48 0 -74.5 -3.5t-49.5 -17t-32.5 -40.5t-9.5 -72q0 -28 18.5 -50.5 t41.5 -22.5h93q79 0 122 48t43 138v20h-152zM268 290h152v64q0 35 -13 50t-47 15h-141q-117 0 -117 -65q0 -30 -22 -30q-20 0 -20 30q0 54 42.5 80.5t109.5 26.5h155q55 0 75 -27t20 -97v-314q0 -30 -21 -30t-21 30v49q-54 -72 -165 -72h-93q-45 0 -73.5 32.5t-28.5 87.5 q0 42 10 73t27 49.5t44 29t57 14.5t70 4z" />
<glyph unicode="&#xe6;" horiz-adv-x="924" d="M276 253q-96 0 -135 -27.5t-39 -112.5q0 -28 18.5 -49.5t41.5 -21.5h92q83 0 127.5 51t44.5 140v20h-150zM822 295q-1 76 -36.5 100t-136.5 24h-8q-102 0 -137 -23.5t-36 -100.5h354zM460 410q16 16 29 24.5t53 17.5t99 9h8q114 0 164.5 -35t50.5 -136v-37h-396v-81 q0 -45 9 -71t33.5 -39t52 -16.5t78.5 -3.5h121q35 0 47.5 15.5t12.5 51.5q0 28 21 28t21 -31q0 -51 -19.5 -78.5t-75.5 -27.5h-128q-55 0 -92.5 6.5t-58.5 20t-30.5 25t-19.5 30.5l-5 -6q-25 -35 -79 -55.5t-102 -20.5h-92q-44 0 -73 32t-29 86q0 100 54.5 138.5t161.5 38.5 h150v62q0 33 -12.5 47.5t-46.5 14.5h-139q-126 0 -126 -65q0 -30 -22 -30q-20 0 -20 30q0 40 26 65.5t59.5 33.5t75.5 8h153q24 0 40.5 -4.5t25.5 -14t12 -15t8 -17.5z" />
<glyph unicode="&#xe7;" horiz-adv-x="564" d="M212 -120q0 13 10 13q3 0 26 -9t40 -9q47 0 47 31q0 14 -15 26.5t-32 28.5t-21 39q-104 0 -154.5 35.5t-50.5 139.5v111q0 105 51 140t157 35h141q31 0 51.5 -9t29 -26.5t11.5 -33t3 -38.5q0 -30 -21 -30t-21 28q0 36 -13 51.5t-47 15.5h-134q-48 0 -74.5 -3.5t-49.5 -17 t-32.5 -40.5t-9.5 -72v-111q0 -45 9.5 -72t32.5 -40.5t49.5 -17t74.5 -3.5h134q34 0 47 15t13 52q0 28 21 28t21 -31q0 -22 -3 -38t-11.5 -33t-29 -26t-51.5 -9h-101q4 -15 21.5 -27.5t31.5 -26.5t14 -35q0 -33 -26 -54.5t-65 -21.5q-23 0 -48.5 10.5t-25.5 34.5z" />
<glyph unicode="&#xe8;" horiz-adv-x="566" d="M181 657q0 9 6.5 15t13.5 6q9 0 21 -13l96 -115q8 -9 8 -20q0 -8 -6.5 -14t-13.5 -6q-9 0 -21 13l-96 115q-8 9 -8 19zM506 286v-36h-402v-75q0 -45 9.5 -72t32.5 -40.5t49.5 -17t74.5 -3.5h134q34 0 47 15t13 52q0 28 21 28t21 -31q0 -22 -3 -38t-11.5 -33t-29 -26 t-51.5 -9h-141q-106 0 -157 35t-51 140v111q0 105 51 140t157 35h29q105 0 156 -35t51 -140zM299 419h-29q-92 0 -129 -23t-37 -104h360q0 81 -37 104t-128 23z" />
<glyph unicode="&#xe9;" horiz-adv-x="566" d="M410 657q0 -10 -8 -19l-96 -115q-12 -13 -21 -13q-7 0 -13.5 6t-6.5 14q0 11 8 20l96 115q12 13 21 13q7 0 13.5 -6t6.5 -15zM506 286v-36h-402v-75q0 -45 9.5 -72t32.5 -40.5t49.5 -17t74.5 -3.5h134q34 0 47 15t13 52q0 28 21 28t21 -31q0 -22 -3 -38t-11.5 -33 t-29 -26t-51.5 -9h-141q-106 0 -157 35t-51 140v111q0 105 51 140t157 35h29q105 0 156 -35t51 -140zM299 419h-29q-92 0 -129 -23t-37 -104h360q0 81 -37 104t-128 23z" />
<glyph unicode="&#xea;" horiz-adv-x="566" d="M285 644h-3l-92 -104q-16 -18 -24 -18q-18 0 -18 18q0 9 4 13l104 137h55l106 -137q4 -5 4 -13q0 -18 -18 -18q-4 0 -7.5 1.5t-5 3t-5.5 6.5t-6 7zM506 286v-36h-402v-75q0 -45 9.5 -72t32.5 -40.5t49.5 -17t74.5 -3.5h134q34 0 47 15t13 52q0 28 21 28t21 -31 q0 -22 -3 -38t-11.5 -33t-29 -26t-51.5 -9h-141q-106 0 -157 35t-51 140v111q0 105 51 140t157 35h29q105 0 156 -35t51 -140zM299 419h-29q-92 0 -129 -23t-37 -104h360q0 81 -37 104t-128 23z" />
<glyph unicode="&#xeb;" horiz-adv-x="566" d="M312 558q0 14 15 25t31 11q15 0 30.5 -11t15.5 -25t-15.5 -25t-30.5 -11q-16 0 -31 11t-15 25zM166 558q0 14 15 25t31 11q15 0 30.5 -11t15.5 -25t-15.5 -25t-30.5 -11q-16 0 -31 11t-15 25zM506 286v-36h-402v-75q0 -45 9.5 -72t32.5 -40.5t49.5 -17t74.5 -3.5h134 q34 0 47 15t13 52q0 28 21 28t21 -31q0 -22 -3 -38t-11.5 -33t-29 -26t-51.5 -9h-141q-106 0 -157 35t-51 140v111q0 105 51 140t157 35h29q105 0 156 -35t51 -140zM299 419h-29q-92 0 -129 -23t-37 -104h360q0 81 -37 104t-128 23z" />
<glyph unicode="&#xec;" horiz-adv-x="190" d="M-29 658q0 9 6.5 15t13.5 6q9 0 21 -13l96 -115q8 -9 8 -20q0 -8 -6.5 -14t-13.5 -6q-9 0 -21 13l-96 115q-8 9 -8 19zM116 20q0 -27 -22 -27q-20 0 -20 27v420q0 28 21 28t21 -28v-420z" />
<glyph unicode="&#xed;" horiz-adv-x="190" d="M219 657q0 -10 -8 -19l-96 -115q-12 -13 -21 -13q-7 0 -13.5 6t-6.5 14q0 11 8 20l96 115q12 13 21 13q7 0 13.5 -6t6.5 -15zM116 20q0 -27 -22 -27q-20 0 -20 27v420q0 28 21 28t21 -28v-420z" />
<glyph unicode="&#xee;" horiz-adv-x="190" d="M96 651h-3l-92 -104q-16 -18 -24 -18q-18 0 -18 18q0 9 4 13l104 137h55l106 -137q4 -5 4 -13q0 -18 -18 -18q-4 0 -7.5 1.5t-5 3t-5.5 6.5t-6 7zM116 20q0 -27 -22 -27q-20 0 -20 27v420q0 28 21 28t21 -28v-420z" />
<glyph unicode="&#xef;" horiz-adv-x="190" d="M122 565q0 14 15 25t31 11q15 0 30.5 -11t15.5 -25t-15.5 -25t-30.5 -11q-16 0 -31 11t-15 25zM-24 565q0 14 15 25t31 11q15 0 30.5 -11t15.5 -25t-15.5 -25t-30.5 -11q-16 0 -31 11t-15 25zM116 20q0 -27 -22 -27q-20 0 -20 27v420q0 28 21 28t21 -28v-420z" />
<glyph unicode="&#xf0;" horiz-adv-x="546" d="M148 593q-26 0 -26 20q0 23 26 23q71 0 131 -27l34 34q11 11 21 11q7 0 13.5 -5.5t6.5 -13.5q0 -10 -11 -22l-25 -24q173 -106 173 -368q0 -98 -56 -167.5t-151 -69.5q-104 0 -170.5 63t-66.5 173q0 111 66.5 173.5t170.5 62.5q82 0 135 -53q-42 106 -132 154l-50 -49 q-11 -11 -20 -11q-7 0 -14 6t-7 14q0 7 12 21l38 37q-48 18 -98 18zM449 221q0 80 -41.5 136.5t-123.5 56.5q-88 0 -141.5 -54t-53.5 -140q0 -85 53.5 -139.5t141.5 -54.5q80 0 122.5 61.5t42.5 133.5z" />
<glyph unicode="&#xf1;" horiz-adv-x="588" d="M343 578q4 -2 7 -2q4 0 11 5l31 28q11 8 19 8t14.5 -5t6.5 -13q0 -12 -12 -23l-47 -39q-7 -7 -16 -7q-4 0 -10 2l-98 36q-4 2 -8 2t-11 -5l-31 -28q-11 -8 -19 -8q-7 0 -13.5 5.5t-6.5 13.5q0 13 12 22l47 39q5 7 15 7q3 0 11 -2zM282 419q-80 0 -123 -48.5t-43 -138.5 v-209q0 -30 -21 -30t-21 30v414q0 31 19 31q23 0 23 -31v-48q56 72 166 72h29q105 0 156 -35t51 -140v-263q0 -30 -20 -30q-22 0 -22 30v263q0 45 -9.5 72t-32.5 40.5t-49.5 17t-73.5 3.5h-29z" />
<glyph unicode="&#xf2;" horiz-adv-x="568" d="M183 657q0 9 6.5 15t13.5 6q9 0 21 -13l96 -115q8 -9 8 -20q0 -8 -6.5 -14t-13.5 -6q-9 0 -21 13l-96 115q-8 9 -8 19zM299 0h-29q-106 0 -157 35t-51 140v111q0 105 51 140t157 35h29q105 0 156 -35t51 -140v-111q0 -105 -51 -140t-156 -35zM270 42h29q47 0 73.5 3.5 t49.5 17t32.5 40.5t9.5 72v111q0 45 -9.5 72t-32.5 40.5t-49.5 17t-73.5 3.5h-29q-48 0 -74.5 -3.5t-49.5 -17t-32.5 -40.5t-9.5 -72v-111q0 -45 9.5 -72t32.5 -40.5t49.5 -17t74.5 -3.5z" />
<glyph unicode="&#xf3;" horiz-adv-x="568" d="M408 657q0 -10 -8 -19l-96 -115q-12 -13 -21 -13q-7 0 -13.5 6t-6.5 14q0 11 8 20l96 115q12 13 21 13q7 0 13.5 -6t6.5 -15zM299 0h-29q-106 0 -157 35t-51 140v111q0 105 51 140t157 35h29q105 0 156 -35t51 -140v-111q0 -105 -51 -140t-156 -35zM270 42h29 q47 0 73.5 3.5t49.5 17t32.5 40.5t9.5 72v111q0 45 -9.5 72t-32.5 40.5t-49.5 17t-73.5 3.5h-29q-48 0 -74.5 -3.5t-49.5 -17t-32.5 -40.5t-9.5 -72v-111q0 -45 9.5 -72t32.5 -40.5t49.5 -17t74.5 -3.5z" />
<glyph unicode="&#xf4;" horiz-adv-x="568" d="M285 644h-3l-92 -104q-16 -18 -24 -18q-18 0 -18 18q0 9 4 13l104 137h55l106 -137q4 -5 4 -13q0 -18 -18 -18q-4 0 -7.5 1.5t-5 3t-5.5 6.5t-6 7zM299 0h-29q-106 0 -157 35t-51 140v111q0 105 51 140t157 35h29q105 0 156 -35t51 -140v-111q0 -105 -51 -140t-156 -35z M270 42h29q47 0 73.5 3.5t49.5 17t32.5 40.5t9.5 72v111q0 45 -9.5 72t-32.5 40.5t-49.5 17t-73.5 3.5h-29q-48 0 -74.5 -3.5t-49.5 -17t-32.5 -40.5t-9.5 -72v-111q0 -45 9.5 -72t32.5 -40.5t49.5 -17t74.5 -3.5z" />
<glyph unicode="&#xf5;" horiz-adv-x="568" d="M331 571q4 -2 7 -2q4 0 11 5l31 28q11 8 19 8t14.5 -5t6.5 -13q0 -12 -12 -23l-47 -39q-7 -7 -16 -7q-4 0 -10 2l-98 36q-4 2 -8 2t-11 -5l-31 -28q-11 -8 -19 -8q-7 0 -13.5 5.5t-6.5 13.5q0 13 12 22l47 39q5 7 15 7q3 0 11 -2zM299 0h-29q-106 0 -157 35t-51 140v111 q0 105 51 140t157 35h29q105 0 156 -35t51 -140v-111q0 -105 -51 -140t-156 -35zM270 42h29q47 0 73.5 3.5t49.5 17t32.5 40.5t9.5 72v111q0 45 -9.5 72t-32.5 40.5t-49.5 17t-73.5 3.5h-29q-48 0 -74.5 -3.5t-49.5 -17t-32.5 -40.5t-9.5 -72v-111q0 -45 9.5 -72t32.5 -40.5 t49.5 -17t74.5 -3.5z" />
<glyph unicode="&#xf6;" horiz-adv-x="568" d="M312 558q0 14 15 25t31 11q15 0 30.5 -11t15.5 -25t-15.5 -25t-30.5 -11q-16 0 -31 11t-15 25zM166 558q0 14 15 25t31 11q15 0 30.5 -11t15.5 -25t-15.5 -25t-30.5 -11q-16 0 -31 11t-15 25zM299 0h-29q-106 0 -157 35t-51 140v111q0 105 51 140t157 35h29 q105 0 156 -35t51 -140v-111q0 -105 -51 -140t-156 -35zM270 42h29q47 0 73.5 3.5t49.5 17t32.5 40.5t9.5 72v111q0 45 -9.5 72t-32.5 40.5t-49.5 17t-73.5 3.5h-29q-48 0 -74.5 -3.5t-49.5 -17t-32.5 -40.5t-9.5 -72v-111q0 -45 9.5 -72t32.5 -40.5t49.5 -17t74.5 -3.5z " />
<glyph unicode="&#xf7;" horiz-adv-x="440" d="M170 333q0 14 15 25t31 11q15 0 30.5 -11t15.5 -25t-15.5 -25t-30.5 -11q-16 0 -31 11t-15 25zM170 128q0 14 15 25t31 11q15 0 30.5 -11t15.5 -25t-15.5 -25t-30.5 -11q-16 0 -31 11t-15 25zM96 209q-26 0 -26 22q0 21 26 21h245q29 0 29 -23q0 -20 -29 -20h-245z" />
<glyph unicode="&#xf8;" horiz-adv-x="568" d="M467 469q7 0 14 -6t7 -14q0 -10 -9 -20l-12 -14q39 -41 39 -129v-111q0 -105 -51 -140t-156 -35h-29q-89 0 -133 20l-14 -15q-11 -13 -21 -13q-7 0 -14 6t-7 14t10 20l11 13q-40 42 -40 130v111q0 105 51 140t157 35h29q91 0 134 -22l13 17q11 13 21 13zM270 42h29 q47 0 73.5 3.5t49.5 17t32.5 40.5t9.5 72v111q0 68 -24 97l-276 -330q32 -11 106 -11zM129 77l276 330q-32 12 -106 12h-29q-48 0 -74.5 -3.5t-49.5 -17t-32.5 -40.5t-9.5 -72v-111q0 -69 25 -98z" />
<glyph unicode="&#xf9;" horiz-adv-x="588" d="M190 657q0 9 6.5 15t13.5 6q9 0 21 -13l96 -115q8 -9 8 -20q0 -8 -6.5 -14t-13.5 -6q-9 0 -21 13l-96 115q-8 9 -8 19zM307 42q79 0 122 48t43 138v210q0 30 21 30t21 -30v-414q0 -31 -19 -31q-23 0 -23 31v48q-54 -72 -165 -72h-29q-106 0 -157 35t-51 140v263 q0 30 20 30q22 0 22 -30v-263q0 -45 9.5 -72t32.5 -40.5t49.5 -17t74.5 -3.5h29z" />
<glyph unicode="&#xfa;" horiz-adv-x="588" d="M417 657q0 -10 -8 -19l-96 -115q-12 -13 -21 -13q-7 0 -13.5 6t-6.5 14q0 11 8 20l96 115q12 13 21 13q7 0 13.5 -6t6.5 -15zM307 42q79 0 122 48t43 138v210q0 30 21 30t21 -30v-414q0 -31 -19 -31q-23 0 -23 31v48q-54 -72 -165 -72h-29q-106 0 -157 35t-51 140v263 q0 30 20 30q22 0 22 -30v-263q0 -45 9.5 -72t32.5 -40.5t49.5 -17t74.5 -3.5h29z" />
<glyph unicode="&#xfb;" horiz-adv-x="588" d="M292 651h-3l-92 -104q-2 -2 -5.5 -6t-5 -5.5t-4 -3.5t-4.5 -2.5t-5 -0.5q-18 0 -18 18q0 9 4 13l104 137h55l106 -137q4 -5 4 -13q0 -18 -18 -18q-4 0 -7.5 1.5t-5 3t-5.5 6.5t-6 7zM307 42q79 0 122 48t43 138v210q0 30 21 30t21 -30v-414q0 -31 -19 -31q-23 0 -23 31 v48q-54 -72 -165 -72h-29q-106 0 -157 35t-51 140v263q0 30 20 30q22 0 22 -30v-263q0 -45 9.5 -72t32.5 -40.5t49.5 -17t74.5 -3.5h29z" />
<glyph unicode="&#xfc;" horiz-adv-x="588" d="M319 565q0 14 15 25t31 11q15 0 30.5 -11t15.5 -25t-15.5 -25t-30.5 -11q-16 0 -31 11t-15 25zM173 565q0 14 15 25t31 11q15 0 30.5 -11t15.5 -25t-15.5 -25t-30.5 -11q-16 0 -31 11t-15 25zM307 42q79 0 122 48t43 138v210q0 30 21 30t21 -30v-414q0 -31 -19 -31 q-23 0 -23 31v48q-54 -72 -165 -72h-29q-106 0 -157 35t-51 140v263q0 30 20 30q22 0 22 -30v-263q0 -45 9.5 -72t32.5 -40.5t49.5 -17t74.5 -3.5h29z" />
<glyph unicode="&#xfd;" horiz-adv-x="589" d="M418 657q0 -10 -8 -19l-96 -115q-12 -13 -21 -13q-7 0 -13.5 6t-6.5 14q0 11 8 20l96 115q12 13 21 13q7 0 13.5 -6t6.5 -15zM514 -92q0 -64 -18 -88.5t-68 -24.5h-263q-31 0 -51.5 9t-29 26.5t-11.5 33t-3 38.5q0 30 21 30t21 -28q0 -36 13 -51.5t47 -15.5h249 q31 0 41 11.5t10 43.5v180q-54 -72 -165 -72h-29q-106 0 -157 35t-51 140v261q0 32 21 32t21 -32v-261q0 -45 9.5 -72t32.5 -40.5t49.5 -17t74.5 -3.5h29q79 0 122 48t43 138v208q0 32 22 32q20 0 20 -32v-528z" />
<glyph unicode="&#xfe;" horiz-adv-x="581" d="M477 286q0 45 -9.5 72t-32.5 40.5t-49.5 17t-73.5 3.5h-29q-80 0 -123 -48.5t-43 -138.5v-190h195q47 0 73.5 3.5t49.5 17t32.5 40.5t9.5 72v111zM519 175q0 -105 -51 -140t-156 -35h-195v-152q0 -30 -23 -30q-19 0 -19 30v765q0 30 21 30t21 -30v-224q56 72 166 72h29 q105 0 156 -35t51 -140v-111z" />
<glyph unicode="&#xff;" horiz-adv-x="589" d="M320 565q0 14 15 25t31 11q15 0 30.5 -11t15.5 -25t-15.5 -25t-30.5 -11q-16 0 -31 11t-15 25zM174 565q0 14 15 25t31 11q15 0 30.5 -11t15.5 -25t-15.5 -25t-30.5 -11q-16 0 -31 11t-15 25zM514 -92q0 -64 -18 -88.5t-68 -24.5h-263q-31 0 -51.5 9t-29 26.5t-11.5 33 t-3 38.5q0 30 21 30t21 -28q0 -36 13 -51.5t47 -15.5h249q31 0 41 11.5t10 43.5v180q-54 -72 -165 -72h-29q-106 0 -157 35t-51 140v261q0 32 21 32t21 -32v-261q0 -45 9.5 -72t32.5 -40.5t49.5 -17t74.5 -3.5h29q79 0 122 48t43 138v208q0 32 22 32q20 0 20 -32v-528z" />
<glyph unicode="&#x100;" horiz-adv-x="548" d="M150 706q-26 0 -26 22q0 21 26 21h245q29 0 29 -23q0 -20 -29 -20h-245zM44 -16q-21 0 -21 20q0 6 3 14l225 618h46l225 -618q3 -7 3 -14q0 -20 -21 -20q-14 0 -22 20l-72 200h-272l-72 -200q-9 -20 -22 -20zM154 246h240l-121 329z" />
<glyph unicode="&#x101;" horiz-adv-x="534" d="M141 522q-26 0 -26 22q0 21 26 21h245q29 0 29 -23q0 -20 -29 -20h-245zM268 248q-48 0 -74.5 -3.5t-49.5 -17t-32.5 -40.5t-9.5 -72q0 -28 18.5 -50.5t41.5 -22.5h93q79 0 122 48t43 138v20h-152zM268 290h152v64q0 35 -13 50t-47 15h-141q-117 0 -117 -65 q0 -30 -22 -30q-20 0 -20 30q0 54 42.5 80.5t109.5 26.5h155q55 0 75 -27t20 -97v-314q0 -30 -21 -30t-21 30v49q-54 -72 -165 -72h-93q-45 0 -73.5 32.5t-28.5 87.5q0 42 10 73t27 49.5t44 29t57 14.5t70 4z" />
<glyph unicode="&#x102;" horiz-adv-x="548" d="M389 819q0 -48 -34 -84.5t-81 -36.5t-81 36.5t-34 84.5h43q0 -34 19.5 -55.5t52.5 -21.5t52.5 21.5t19.5 55.5h43zM44 -16q-21 0 -21 20q0 6 3 14l225 618h46l225 -618q3 -7 3 -14q0 -20 -21 -20q-14 0 -22 20l-72 200h-272l-72 -200q-9 -20 -22 -20zM154 246h240 l-121 329z" />
<glyph unicode="&#x103;" horiz-adv-x="534" d="M387 643q0 -48 -34 -84.5t-81 -36.5t-81 36.5t-34 84.5h43q0 -34 19.5 -55.5t52.5 -21.5t52.5 21.5t19.5 55.5h43zM268 248q-48 0 -74.5 -3.5t-49.5 -17t-32.5 -40.5t-9.5 -72q0 -28 18.5 -50.5t41.5 -22.5h93q79 0 122 48t43 138v20h-152zM268 290h152v64q0 35 -13 50 t-47 15h-141q-117 0 -117 -65q0 -30 -22 -30q-20 0 -20 30q0 54 42.5 80.5t109.5 26.5h155q55 0 75 -27t20 -97v-314q0 -30 -21 -30t-21 30v49q-54 -72 -165 -72h-93q-45 0 -73.5 32.5t-28.5 87.5q0 42 10 73t27 49.5t44 29t57 14.5t70 4z" />
<glyph unicode="&#x104;" horiz-adv-x="547" d="M581 -160q0 -24 -25.5 -34.5t-48.5 -10.5q-40 0 -65.5 27.5t-25.5 71.5q0 22 20 57.5t43 61.5l-69 191h-272l-72 -200q-9 -20 -22 -20q-21 0 -21 20q0 6 3 14l225 618h46l225 -618q3 -7 3 -14q0 -17 -18 -20q-18 -18 -33.5 -46.5t-15.5 -43.5q0 -59 47 -59q17 0 40 9 t26 9q10 0 10 -13zM154 246h240l-121 329z" />
<glyph unicode="&#x105;" horiz-adv-x="534" d="M514 -159q0 -24 -25.5 -34.5t-48.5 -10.5q-40 0 -65.5 27.5t-25.5 71.5q0 23 24 63.5t47 64.5v49q-54 -72 -165 -72h-93q-45 0 -73.5 32.5t-28.5 87.5q0 42 10 73t27 49.5t44 29t57 14.5t70 4h152v64q0 35 -13 50t-47 15h-141q-117 0 -117 -65q0 -30 -22 -30 q-20 0 -20 30q0 54 42.5 80.5t109.5 26.5h155q55 0 75 -27t20 -97v-314q0 -23 -11 -28q-19 -13 -39.5 -48t-20.5 -52q0 -59 47 -59q17 0 40 9t26 9q10 0 10 -13zM268 248q-48 0 -74.5 -3.5t-49.5 -17t-32.5 -40.5t-9.5 -72q0 -28 18.5 -50.5t41.5 -22.5h93q79 0 122 48 t43 138v20h-152z" />
<glyph unicode="&#x106;" horiz-adv-x="572" d="M413 800q0 -8 -11 -21l-70 -69q-10 -11 -20 -11q-8 0 -14.5 6.5t-6.5 12.5q0 10 12 22l69 69q10 11 21 11q8 0 14 -7t6 -13zM421 0h-141q-106 0 -157 35t-51 140v286q0 105 51 140t157 35h141q31 0 51.5 -9t29 -26t11.5 -33t3 -39q0 -30 -21 -30t-21 28q0 36 -13 51.5 t-47 15.5h-134q-48 0 -74.5 -3.5t-49.5 -17t-32.5 -40.5t-9.5 -72v-286q0 -45 9.5 -72t32.5 -40.5t49.5 -17t74.5 -3.5h134q34 0 47 15t13 52q0 28 21 28t21 -31q0 -22 -3 -38t-11.5 -33t-29 -26t-51.5 -9z" />
<glyph unicode="&#x107;" horiz-adv-x="564" d="M408 657q0 -10 -8 -19l-96 -115q-12 -13 -21 -13q-7 0 -13.5 6t-6.5 14q0 11 8 20l96 115q12 13 21 13q7 0 13.5 -6t6.5 -15zM411 0h-141q-106 0 -157 35t-51 140v111q0 105 51 140t157 35h141q31 0 51.5 -9t29 -26.5t11.5 -33t3 -38.5q0 -30 -21 -30t-21 28 q0 36 -13 51.5t-47 15.5h-134q-48 0 -74.5 -3.5t-49.5 -17t-32.5 -40.5t-9.5 -72v-111q0 -45 9.5 -72t32.5 -40.5t49.5 -17t74.5 -3.5h134q34 0 47 15t13 52q0 28 21 28t21 -31q0 -22 -3 -38t-11.5 -33t-29 -26t-51.5 -9z" />
<glyph unicode="&#x108;" horiz-adv-x="572" d="M307 773h-3l-92 -104q-16 -18 -24 -18q-18 0 -18 18q0 9 4 13l104 137h55l106 -137q4 -5 4 -13q0 -18 -18 -18q-4 0 -7.5 1.5t-5 3t-5.5 6.5t-6 7zM421 0h-141q-106 0 -157 35t-51 140v286q0 105 51 140t157 35h141q31 0 51.5 -9t29 -26t11.5 -33t3 -39q0 -30 -21 -30 t-21 28q0 36 -13 51.5t-47 15.5h-134q-48 0 -74.5 -3.5t-49.5 -17t-32.5 -40.5t-9.5 -72v-286q0 -45 9.5 -72t32.5 -40.5t49.5 -17t74.5 -3.5h134q34 0 47 15t13 52q0 28 21 28t21 -31q0 -22 -3 -38t-11.5 -33t-29 -26t-51.5 -9z" />
<glyph unicode="&#x109;" horiz-adv-x="564" d="M289 644h-3l-92 -104q-16 -18 -24 -18q-18 0 -18 18q0 9 4 13l104 137h55l106 -137q4 -5 4 -13q0 -18 -18 -18q-4 0 -7.5 1.5t-5 3t-5.5 6.5t-6 7zM411 0h-141q-106 0 -157 35t-51 140v111q0 105 51 140t157 35h141q31 0 51.5 -9t29 -26.5t11.5 -33t3 -38.5 q0 -30 -21 -30t-21 28q0 36 -13 51.5t-47 15.5h-134q-48 0 -74.5 -3.5t-49.5 -17t-32.5 -40.5t-9.5 -72v-111q0 -45 9.5 -72t32.5 -40.5t49.5 -17t74.5 -3.5h134q34 0 47 15t13 52q0 28 21 28t21 -31q0 -22 -3 -38t-11.5 -33t-29 -26t-51.5 -9z" />
<glyph unicode="&#x10a;" horiz-adv-x="572" d="M245 742q0 14 15 25t31 11q15 0 30.5 -11t15.5 -25t-15.5 -25t-30.5 -11q-16 0 -31 11t-15 25zM421 0h-141q-106 0 -157 35t-51 140v286q0 105 51 140t157 35h141q31 0 51.5 -9t29 -26t11.5 -33t3 -39q0 -30 -21 -30t-21 28q0 36 -13 51.5t-47 15.5h-134 q-48 0 -74.5 -3.5t-49.5 -17t-32.5 -40.5t-9.5 -72v-286q0 -45 9.5 -72t32.5 -40.5t49.5 -17t74.5 -3.5h134q34 0 47 15t13 52q0 28 21 28t21 -31q0 -22 -3 -38t-11.5 -33t-29 -26t-51.5 -9z" />
<glyph unicode="&#x10b;" horiz-adv-x="564" d="M239 558q0 14 15 25t31 11q15 0 30.5 -11t15.5 -25t-15.5 -25t-30.5 -11q-16 0 -31 11t-15 25zM411 0h-141q-106 0 -157 35t-51 140v111q0 105 51 140t157 35h141q31 0 51.5 -9t29 -26.5t11.5 -33t3 -38.5q0 -30 -21 -30t-21 28q0 36 -13 51.5t-47 15.5h-134 q-48 0 -74.5 -3.5t-49.5 -17t-32.5 -40.5t-9.5 -72v-111q0 -45 9.5 -72t32.5 -40.5t49.5 -17t74.5 -3.5h134q34 0 47 15t13 52q0 28 21 28t21 -31q0 -22 -3 -38t-11.5 -33t-29 -26t-51.5 -9z" />
<glyph unicode="&#x10c;" horiz-adv-x="572" d="M323 678h-52l-102 107q-6 6 -6 12q0 15 18 15q10 0 29 -16l87 -72l87 72q19 16 29 16q18 0 18 -15q0 -6 -6 -12zM421 0h-141q-106 0 -157 35t-51 140v286q0 105 51 140t157 35h141q31 0 51.5 -9t29 -26t11.5 -33t3 -39q0 -30 -21 -30t-21 28q0 36 -13 51.5t-47 15.5h-134 q-48 0 -74.5 -3.5t-49.5 -17t-32.5 -40.5t-9.5 -72v-286q0 -45 9.5 -72t32.5 -40.5t49.5 -17t74.5 -3.5h134q34 0 47 15t13 52q0 28 21 28t21 -31q0 -22 -3 -38t-11.5 -33t-29 -26t-51.5 -9z" />
<glyph unicode="&#x10d;" horiz-adv-x="564" d="M315 522h-52l-102 107q-6 6 -6 12q0 15 18 15q10 0 29 -16l87 -72l87 72q19 16 29 16q18 0 18 -15q0 -6 -6 -12zM411 0h-141q-106 0 -157 35t-51 140v111q0 105 51 140t157 35h141q31 0 51.5 -9t29 -26.5t11.5 -33t3 -38.5q0 -30 -21 -30t-21 28q0 36 -13 51.5t-47 15.5 h-134q-48 0 -74.5 -3.5t-49.5 -17t-32.5 -40.5t-9.5 -72v-111q0 -45 9.5 -72t32.5 -40.5t49.5 -17t74.5 -3.5h134q34 0 47 15t13 52q0 28 21 28t21 -31q0 -22 -3 -38t-11.5 -33t-29 -26t-51.5 -9z" />
<glyph unicode="&#x10e;" horiz-adv-x="600" d="M313 678h-52l-102 107q-6 6 -6 12q0 15 18 15q10 0 29 -16l87 -72l87 72q19 16 29 16q18 0 18 -15q0 -6 -6 -12zM528 461v-286q0 -105 -51 -140t-156 -35h-218q-19 0 -19 31v574q0 31 19 31h218q105 0 156 -35t51 -140zM486 175v286q0 45 -9.5 72t-32.5 40.5t-49.5 17 t-73.5 3.5h-195v-552h195q47 0 73.5 3.5t49.5 17t32.5 40.5t9.5 72z" />
<glyph unicode="&#x10f;" horiz-adv-x="580" d="M583 643q10 0 23 -5t13 -15q0 -9 -4 -17l-42 -83q-9 -21 -20 -21q-17 0 -17 20q0 6 3 15l24 86q6 20 20 20zM104 175q0 -45 9.5 -72t32.5 -40.5t49.5 -17t74.5 -3.5h29q79 0 122 48t43 138v191h-194q-48 0 -74.5 -3.5t-49.5 -17t-32.5 -40.5t-9.5 -72v-111zM62 286 q0 105 51 140t157 35h194v151q0 31 23 31q19 0 19 -31v-589q0 -30 -21 -30t-21 30v49q-54 -72 -165 -72h-29q-106 0 -157 35t-51 140v111z" />
<glyph unicode="&#x110;" horiz-adv-x="600" d="M76 303q-27 0 -27 23q0 20 27 20h8v259q0 31 19 31h218q105 0 156 -35t51 -140v-286q0 -105 -51 -140t-156 -35h-218q-19 0 -19 31v272h-8zM486 175v286q0 45 -9.5 72t-32.5 40.5t-49.5 17t-73.5 3.5h-195v-248h106q29 0 29 -22q0 -21 -29 -21h-106v-261h195 q47 0 73.5 3.5t49.5 17t32.5 40.5t9.5 72z" />
<glyph unicode="&#x111;" horiz-adv-x="580" d="M272 517q-26 0 -26 22q0 21 26 21h192v52q0 31 23 31q19 0 19 -31v-52h11q29 0 29 -23q0 -20 -29 -20h-11v-494q0 -30 -21 -30t-21 30v49q-54 -72 -165 -72h-29q-106 0 -157 35t-51 140v111q0 105 51 140t157 35h194v56h-192zM104 175q0 -45 9.5 -72t32.5 -40.5t49.5 -17 t74.5 -3.5h29q79 0 122 48t43 138v191h-194q-48 0 -74.5 -3.5t-49.5 -17t-32.5 -40.5t-9.5 -72v-111z" />
<glyph unicode="&#x112;" horiz-adv-x="577" d="M177 706q-26 0 -26 22q0 21 26 21h245q29 0 29 -23q0 -20 -29 -20h-245zM126 337v-295h373q29 0 29 -23q0 -19 -29 -19h-396q-19 0 -19 31v574q0 31 19 31h396q29 0 29 -23q0 -19 -29 -19h-373v-215h255q30 0 30 -23q0 -19 -30 -19h-255z" />
<glyph unicode="&#x113;" horiz-adv-x="566" d="M161 522q-26 0 -26 22q0 21 26 21h245q29 0 29 -23q0 -20 -29 -20h-245zM506 286v-36h-402v-75q0 -45 9.5 -72t32.5 -40.5t49.5 -17t74.5 -3.5h134q34 0 47 15t13 52q0 28 21 28t21 -31q0 -22 -3 -38t-11.5 -33t-29 -26t-51.5 -9h-141q-106 0 -157 35t-51 140v111 q0 105 51 140t157 35h29q105 0 156 -35t51 -140zM299 419h-29q-92 0 -129 -23t-37 -104h360q0 81 -37 104t-128 23z" />
<glyph unicode="&#x116;" horiz-adv-x="577" d="M255 742q0 14 15 25t31 11q15 0 30.5 -11t15.5 -25t-15.5 -25t-30.5 -11q-16 0 -31 11t-15 25zM126 337v-295h373q29 0 29 -23q0 -19 -29 -19h-396q-19 0 -19 31v574q0 31 19 31h396q29 0 29 -23q0 -19 -29 -19h-373v-215h255q30 0 30 -23q0 -19 -30 -19h-255z" />
<glyph unicode="&#x117;" horiz-adv-x="566" d="M239 558q0 14 15 25t31 11q15 0 30.5 -11t15.5 -25t-15.5 -25t-30.5 -11q-16 0 -31 11t-15 25zM506 286v-36h-402v-75q0 -45 9.5 -72t32.5 -40.5t49.5 -17t74.5 -3.5h134q34 0 47 15t13 52q0 28 21 28t21 -31q0 -22 -3 -38t-11.5 -33t-29 -26t-51.5 -9h-141 q-106 0 -157 35t-51 140v111q0 105 51 140t157 35h29q105 0 156 -35t51 -140zM299 419h-29q-92 0 -129 -23t-37 -104h360q0 81 -37 104t-128 23z" />
<glyph unicode="&#x118;" horiz-adv-x="577" d="M401 -156q0 -24 -25.5 -34.5t-48.5 -10.5q-40 0 -65.5 27.5t-25.5 71.5q0 37 49 102h-182q-19 0 -19 31v574q0 31 19 31h396q29 0 29 -23q0 -19 -29 -19h-373v-215h255q30 0 30 -23q0 -19 -30 -19h-255v-295h373q29 0 29 -23q0 -19 -29 -19h-158q-19 -11 -41 -47.5 t-22 -54.5q0 -59 47 -59q17 0 40 9t26 9q10 0 10 -13z" />
<glyph unicode="&#x119;" horiz-adv-x="566" d="M431 -156q0 -24 -25.5 -34.5t-48.5 -10.5q-40 0 -65.5 27.5t-25.5 71.5q0 37 49 102h-45q-106 0 -157 35t-51 140v111q0 105 51 140t157 35h29q105 0 156 -35t51 -140v-36h-402v-75q0 -45 9.5 -72t32.5 -40.5t49.5 -17t74.5 -3.5h134q34 0 47 15t13 52q0 28 21 28t21 -31 q0 -22 -3 -38t-11.5 -33t-29 -26t-51.5 -9h-40q-19 -11 -41 -47.5t-22 -54.5q0 -59 47 -59q17 0 40 9t26 9q10 0 10 -13zM299 419h-29q-92 0 -129 -23t-37 -104h360q0 81 -37 104t-128 23z" />
<glyph unicode="&#x11a;" horiz-adv-x="577" d="M324 678h-52l-102 107q-6 6 -6 12q0 15 18 15q10 0 29 -16l87 -72l87 72q19 16 29 16q18 0 18 -15q0 -6 -6 -12zM126 337v-295h373q29 0 29 -23q0 -19 -29 -19h-396q-19 0 -19 31v574q0 31 19 31h396q29 0 29 -23q0 -19 -29 -19h-373v-215h255q30 0 30 -23q0 -19 -30 -19 h-255z" />
<glyph unicode="&#x11b;" horiz-adv-x="566" d="M310 522h-52l-102 107q-6 6 -6 12q0 15 18 15q10 0 29 -16l87 -72l87 72q19 16 29 16q18 0 18 -15q0 -6 -6 -12zM506 286v-36h-402v-75q0 -45 9.5 -72t32.5 -40.5t49.5 -17t74.5 -3.5h134q34 0 47 15t13 52q0 28 21 28t21 -31q0 -22 -3 -38t-11.5 -33t-29 -26t-51.5 -9 h-141q-106 0 -157 35t-51 140v111q0 105 51 140t157 35h29q105 0 156 -35t51 -140zM299 419h-29q-92 0 -129 -23t-37 -104h360q0 81 -37 104t-128 23z" />
<glyph unicode="&#x11c;" horiz-adv-x="585" d="M304 773h-3l-92 -104q-16 -18 -24 -18q-18 0 -18 18q0 9 4 13l104 137h55l106 -137q4 -5 4 -13q0 -18 -18 -18q-4 0 -7.5 1.5t-5 3t-5.5 6.5t-6 7zM474 251h-133q-30 0 -30 20q0 22 30 22h175v-187q0 -22 -3 -38t-11.5 -33t-29 -26t-51.5 -9h-141q-52 0 -86 6t-64 24 t-44 54t-14 91v286q0 55 14 91t44 54t64 24t86 6h141q31 0 51.5 -9t29 -26t11.5 -33t3 -38q0 -31 -21 -31t-21 29q0 36 -13 51t-47 15h-134q-48 0 -74.5 -3.5t-49.5 -17t-32.5 -40.5t-9.5 -72v-286q0 -45 9.5 -72t32.5 -40.5t49.5 -17t74.5 -3.5h134q34 0 47 15t13 51v143z " />
<glyph unicode="&#x11d;" horiz-adv-x="581" d="M284 651h-3l-92 -104q-2 -2 -5.5 -6t-5 -5.5t-4 -3.5t-4.5 -2.5t-5 -0.5q-18 0 -18 18q0 9 4 13l104 137h55l106 -137q4 -5 4 -13q0 -18 -18 -18q-4 0 -7.5 1.5t-5 3t-5.5 6.5t-6 7zM62 286q0 105 51 140t157 35h29q111 0 165 -72v49q0 30 21 30t21 -30v-530 q0 -64 -18 -88.5t-68 -24.5h-263q-31 0 -51.5 9t-29 26.5t-11.5 33t-3 38.5q0 30 21 30t21 -28q0 -36 13 -51.5t47 -15.5h249q31 0 41 11.5t10 43.5v117q-20 -9 -53 -9h-141q-106 0 -157 35t-51 140v111zM104 175q0 -45 9.5 -72t32.5 -40.5t49.5 -17t74.5 -3.5h134 q34 0 47 14.5t13 49.5v126q0 90 -43 138.5t-122 48.5h-29q-48 0 -74.5 -3.5t-49.5 -17t-32.5 -40.5t-9.5 -72v-111z" />
<glyph unicode="&#x11e;" horiz-adv-x="585" d="M420 819q0 -48 -34 -84.5t-81 -36.5t-81 36.5t-34 84.5h43q0 -34 19.5 -55.5t52.5 -21.5t52.5 21.5t19.5 55.5h43zM474 251h-133q-30 0 -30 20q0 22 30 22h175v-187q0 -22 -3 -38t-11.5 -33t-29 -26t-51.5 -9h-141q-52 0 -86 6t-64 24t-44 54t-14 91v286q0 55 14 91 t44 54t64 24t86 6h141q31 0 51.5 -9t29 -26t11.5 -33t3 -38q0 -31 -21 -31t-21 29q0 36 -13 51t-47 15h-134q-48 0 -74.5 -3.5t-49.5 -17t-32.5 -40.5t-9.5 -72v-286q0 -45 9.5 -72t32.5 -40.5t49.5 -17t74.5 -3.5h134q34 0 47 15t13 51v143z" />
<glyph unicode="&#x11f;" horiz-adv-x="581" d="M398 650q0 -48 -34 -84.5t-81 -36.5t-81 36.5t-34 84.5h43q0 -34 19.5 -55.5t52.5 -21.5t52.5 21.5t19.5 55.5h43zM62 286q0 105 51 140t157 35h29q111 0 165 -72v49q0 30 21 30t21 -30v-530q0 -64 -18 -88.5t-68 -24.5h-263q-31 0 -51.5 9t-29 26.5t-11.5 33t-3 38.5 q0 30 21 30t21 -28q0 -36 13 -51.5t47 -15.5h249q31 0 41 11.5t10 43.5v117q-20 -9 -53 -9h-141q-106 0 -157 35t-51 140v111zM104 175q0 -45 9.5 -72t32.5 -40.5t49.5 -17t74.5 -3.5h134q34 0 47 14.5t13 49.5v126q0 90 -43 138.5t-122 48.5h-29q-48 0 -74.5 -3.5 t-49.5 -17t-32.5 -40.5t-9.5 -72v-111z" />
<glyph unicode="&#x120;" horiz-adv-x="585" d="M243 742q0 14 15 25t31 11q15 0 30.5 -11t15.5 -25t-15.5 -25t-30.5 -11q-16 0 -31 11t-15 25zM474 251h-133q-30 0 -30 20q0 22 30 22h175v-187q0 -22 -3 -38t-11.5 -33t-29 -26t-51.5 -9h-141q-52 0 -86 6t-64 24t-44 54t-14 91v286q0 55 14 91t44 54t64 24t86 6h141 q31 0 51.5 -9t29 -26t11.5 -33t3 -38q0 -31 -21 -31t-21 29q0 36 -13 51t-47 15h-134q-48 0 -74.5 -3.5t-49.5 -17t-32.5 -40.5t-9.5 -72v-286q0 -45 9.5 -72t32.5 -40.5t49.5 -17t74.5 -3.5h134q34 0 47 15t13 51v143z" />
<glyph unicode="&#x121;" horiz-adv-x="581" d="M235 565q0 14 15 25t31 11q15 0 30.5 -11t15.5 -25t-15.5 -25t-30.5 -11q-16 0 -31 11t-15 25zM62 286q0 105 51 140t157 35h29q111 0 165 -72v49q0 30 21 30t21 -30v-530q0 -64 -18 -88.5t-68 -24.5h-263q-31 0 -51.5 9t-29 26.5t-11.5 33t-3 38.5q0 30 21 30t21 -28 q0 -36 13 -51.5t47 -15.5h249q31 0 41 11.5t10 43.5v117q-20 -9 -53 -9h-141q-106 0 -157 35t-51 140v111zM104 175q0 -45 9.5 -72t32.5 -40.5t49.5 -17t74.5 -3.5h134q34 0 47 14.5t13 49.5v126q0 90 -43 138.5t-122 48.5h-29q-48 0 -74.5 -3.5t-49.5 -17t-32.5 -40.5 t-9.5 -72v-111z" />
<glyph unicode="&#x122;" horiz-adv-x="585" d="M308 -64q10 0 23 -5t13 -15q0 -9 -4 -17l-42 -83q-9 -21 -20 -21q-17 0 -17 20q0 6 3 15l24 86q6 20 20 20zM474 251h-133q-30 0 -30 20q0 22 30 22h175v-187q0 -22 -3 -38t-11.5 -33t-29 -26t-51.5 -9h-141q-52 0 -86 6t-64 24t-44 54t-14 91v286q0 55 14 91t44 54 t64 24t86 6h141q31 0 51.5 -9t29 -26t11.5 -33t3 -38q0 -31 -21 -31t-21 29q0 36 -13 51t-47 15h-134q-48 0 -74.5 -3.5t-49.5 -17t-32.5 -40.5t-9.5 -72v-286q0 -45 9.5 -72t32.5 -40.5t49.5 -17t74.5 -3.5h134q34 0 47 15t13 51v143z" />
<glyph unicode="&#x123;" horiz-adv-x="581" d="M287 529q-10 0 -23 5t-13 15q0 9 4 17l42 83q9 21 20 21q17 0 17 -20q0 -6 -3 -15l-24 -86q-6 -20 -20 -20zM62 286q0 105 51 140t157 35h29q111 0 165 -72v49q0 30 21 30t21 -30v-530q0 -64 -18 -88.5t-68 -24.5h-263q-31 0 -51.5 9t-29 26.5t-11.5 33t-3 38.5 q0 30 21 30t21 -28q0 -36 13 -51.5t47 -15.5h249q31 0 41 11.5t10 43.5v117q-20 -9 -53 -9h-141q-106 0 -157 35t-51 140v111zM104 175q0 -45 9.5 -72t32.5 -40.5t49.5 -17t74.5 -3.5h134q34 0 47 14.5t13 49.5v126q0 90 -43 138.5t-122 48.5h-29q-48 0 -74.5 -3.5 t-49.5 -17t-32.5 -40.5t-9.5 -72v-111z" />
<glyph unicode="&#x124;" horiz-adv-x="612" d="M305 773h-3l-92 -104q-16 -18 -24 -18q-18 0 -18 18q0 9 4 13l104 137h55l106 -137q4 -5 4 -13q0 -18 -18 -18q-4 0 -7.5 1.5t-5 3t-5.5 6.5t-6 7zM126 23q0 -30 -21 -30t-21 30v589q0 31 19 31q23 0 23 -31v-248h360v248q0 31 20 31q22 0 22 -31v-589q0 -30 -20 -30 q-22 0 -22 30v299h-360v-299z" />
<glyph unicode="&#x125;" horiz-adv-x="588" d="M297 773h-3l-92 -104q-16 -18 -24 -18q-18 0 -18 18q0 9 4 13l104 137h55l106 -137q4 -5 4 -13q0 -18 -18 -18q-4 0 -7.5 1.5t-5 3t-5.5 6.5t-6 7zM282 419q-80 0 -123 -48.5t-43 -138.5v-209q0 -30 -21 -30t-21 30v589q0 31 19 31q23 0 23 -31v-223q56 72 166 72h29 q105 0 156 -35t51 -140v-263q0 -30 -20 -30q-22 0 -22 30v263q0 45 -9.5 72t-32.5 40.5t-49.5 17t-73.5 3.5h-29z" />
<glyph unicode="&#x126;" horiz-adv-x="614" d="M53 508q-26 0 -26 22q0 21 26 21h32v61q0 31 19 31q23 0 23 -31v-61h360v61q0 31 20 31q22 0 22 -31v-61h29q29 0 29 -23q0 -20 -29 -20h-29v-485q0 -30 -20 -30q-22 0 -22 30v299h-360v-299q0 -30 -21 -30t-21 30v485h-32zM487 508h-360v-144h360v144z" />
<glyph unicode="&#x127;" horiz-adv-x="588" d="M518 23q0 -30 -20 -30q-22 0 -22 30v263q0 45 -9.5 72t-32.5 40.5t-49.5 17t-73.5 3.5h-29q-80 0 -123 -48.5t-43 -138.5v-209q0 -30 -21 -30t-21 30v487q-25 0 -25 22q0 21 25 21v59q0 31 19 31q23 0 23 -31v-59h204q29 0 29 -23q0 -20 -29 -20h-204v-121q56 72 166 72 h29q105 0 156 -35t51 -140v-263z" />
<glyph unicode="&#x128;" horiz-adv-x="210" d="M152 755q4 -2 7 -2q4 0 11 5l31 28q11 8 19 8t14.5 -5t6.5 -13q0 -12 -12 -23l-47 -39q-7 -7 -16 -7q-4 0 -10 2l-98 36q-4 2 -8 2t-11 -5l-31 -28q-11 -8 -19 -8q-7 0 -13.5 5.5t-6.5 13.5q0 13 12 22l47 39q5 7 15 7q3 0 11 -2zM126 20q0 -27 -22 -27q-20 0 -20 27v595 q0 28 21 28t21 -28v-595z" />
<glyph unicode="&#x129;" horiz-adv-x="190" d="M142 578q4 -2 7 -2q4 0 11 5l31 28q11 8 19 8t14.5 -5t6.5 -13q0 -12 -12 -23l-47 -39q-7 -7 -16 -7q-4 0 -10 2l-98 36q-4 2 -8 2t-11 -5l-31 -28q-11 -8 -19 -8q-7 0 -13.5 5.5t-6.5 13.5q0 13 12 22l47 39q5 7 15 7q3 0 11 -2zM116 20q0 -27 -22 -27q-20 0 -20 27v420 q0 28 21 28t21 -28v-420z" />
<glyph unicode="&#x12a;" horiz-adv-x="210" d="M-19 706q-26 0 -26 22q0 21 26 21h245q29 0 29 -23q0 -20 -29 -20h-245zM126 20q0 -27 -22 -27q-20 0 -20 27v595q0 28 21 28t21 -28v-595z" />
<glyph unicode="&#x12b;" horiz-adv-x="190" d="M-29 529q-26 0 -26 22q0 21 26 21h245q29 0 29 -23q0 -20 -29 -20h-245zM116 20q0 -27 -22 -27q-20 0 -20 27v420q0 28 21 28t21 -28v-420z" />
<glyph unicode="&#x12e;" horiz-adv-x="211" d="M184 -151q0 -24 -25.5 -34.5t-48.5 -10.5q-40 0 -65.5 27.5t-25.5 71.5q0 22 21.5 59.5t44.5 63.5v589q0 28 21 28t21 -28v-595q0 -24 -17 -27q-18 -18 -33.5 -46.5t-15.5 -43.5q0 -59 47 -59q17 0 40 9t26 9q10 0 10 -13z" />
<glyph unicode="&#x12f;" horiz-adv-x="192" d="M173 -155q0 -24 -25.5 -34.5t-48.5 -10.5q-40 0 -65.5 27.5t-25.5 71.5q0 23 22.5 61.5t45.5 63.5v416q0 28 21 28t21 -28v-420q0 -22 -14 -26q-18 -17 -36 -48t-18 -47q0 -59 47 -59q17 0 40 9t26 9q10 0 10 -13zM51 601q0 14 15 25t31 11q15 0 30.5 -11t15.5 -25 t-15.5 -25t-30.5 -11q-16 0 -31 11t-15 25z" />
<glyph unicode="&#x130;" horiz-adv-x="210" d="M59 742q0 14 15 25t31 11q15 0 30.5 -11t15.5 -25t-15.5 -25t-30.5 -11q-16 0 -31 11t-15 25zM126 20q0 -27 -22 -27q-20 0 -20 27v595q0 28 21 28t21 -28v-595z" />
<glyph unicode="&#x131;" horiz-adv-x="190" d="M116 20q0 -27 -22 -27q-20 0 -20 27v420q0 28 21 28t21 -28v-420z" />
<glyph unicode="&#x134;" horiz-adv-x="530" d="M429 774h-3l-92 -104q-16 -18 -24 -18q-18 0 -18 18q0 9 4 13l104 137h55l106 -137q4 -5 4 -13q0 -18 -18 -18q-4 0 -7.5 1.5t-5 3t-5.5 6.5t-6 7zM241 34q48 0 74.5 3.5t49.5 17t32.5 40.5t9.5 72v448q0 28 21 28t21 -28v-448q0 -55 -14 -91t-44 -54t-64 -24t-86 -6 t-86.5 6t-64.5 24t-44 54t-14 91q0 28 23 28q20 0 20 -28q0 -86 36 -109.5t130 -23.5z" />
<glyph unicode="&#x135;" horiz-adv-x="192" d="M97 651h-3l-92 -104q-2 -2 -5.5 -6t-5 -5.5t-4 -3.5t-4.5 -2.5t-5 -0.5q-18 0 -18 18q0 9 4 13l104 137h55l106 -137q4 -5 4 -13q0 -18 -18 -18q-4 0 -7.5 1.5t-5 3t-5.5 6.5t-6 7zM117 0q0 -56 -14 -92t-44 -53.5t-64 -23.5t-86 -6q-31 0 -31 22q0 20 31 20 q48 0 74.5 3.5t49.5 17t32.5 40.5t9.5 72v437q0 31 22 31q20 0 20 -31v-437z" />
<glyph unicode="&#x136;" horiz-adv-x="497" d="M294 0q10 0 23 -5t13 -15q0 -9 -4 -17l-42 -83q-9 -21 -20 -21q-17 0 -17 20q0 6 3 15l24 86q6 20 20 20zM494 13q0 -8 -7 -14t-14 -6q-11 0 -21 13l-268 319l-58 -70v-235q0 -27 -22 -27q-20 0 -20 27v595q0 28 21 28t21 -28v-294l260 309q10 13 21 13q7 0 13.5 -5.5 t6.5 -13.5q0 -10 -9 -21l-206 -246l272 -324q10 -10 10 -20z" />
<glyph unicode="&#x137;" horiz-adv-x="433" d="M244 0q10 0 23 -5t13 -15q0 -9 -4 -17l-42 -83q-9 -21 -20 -21q-17 0 -17 20q0 6 3 15l24 86q6 20 20 20zM421 14q0 -7 -5.5 -13.5t-13.5 -6.5q-10 0 -21 11l-231 232l-34 -34v-183q0 -27 -22 -27q-20 0 -20 27v595q0 28 21 28t21 -28v-353l192 193q13 11 21 11 q7 0 13.5 -6t6.5 -15t-11 -20l-159 -159l232 -231q10 -10 10 -21z" />
<glyph unicode="&#x138;" horiz-adv-x="437" d="M408 14q0 -7 -5.5 -14t-13.5 -7q-9 0 -20 9l-253 212v-194q0 -27 -22 -27q-20 0 -20 27v420q0 28 21 28t21 -28v-190l252 211q11 10 21 10q8 0 13.5 -7t5.5 -14q0 -11 -13 -21l-235 -197l236 -198q12 -11 12 -20z" />
<glyph unicode="&#x139;" horiz-adv-x="495" d="M206 799q0 -8 -11 -21l-70 -69q-10 -11 -20 -11q-8 0 -14.5 6.5t-6.5 12.5q0 10 12 22l69 69q10 11 21 11q8 0 14 -7t6 -13zM103 0q-19 0 -19 31v584q0 28 21 28t21 -28v-573h318q28 0 28 -22q0 -20 -28 -20h-341z" />
<glyph unicode="&#x13a;" horiz-adv-x="260" d="M212 805q0 -8 -11 -21l-70 -69q-10 -11 -20 -11q-8 0 -14.5 6.5t-6.5 12.5q0 10 12 22l69 69q10 11 21 11q8 0 14 -7t6 -13zM192 0h-7q-55 0 -75 27t-20 97v489q0 30 21 30t21 -30v-507q0 -35 13 -49.5t47 -14.5q30 0 30 -22q0 -20 -30 -20z" />
<glyph unicode="&#x13b;" horiz-adv-x="495" d="M279 -61q10 0 23 -5t13 -15q0 -9 -4 -17l-42 -83q-9 -21 -20 -21q-17 0 -17 20q0 6 3 15l24 86q6 20 20 20zM103 0q-19 0 -19 31v584q0 28 21 28t21 -28v-573h318q28 0 28 -22q0 -20 -28 -20h-341z" />
<glyph unicode="&#x13c;" horiz-adv-x="261" d="M151 -64q10 0 23 -5t13 -15q0 -9 -4 -17l-42 -83q-9 -21 -20 -21q-17 0 -17 20q0 6 3 15l24 86q6 20 20 20zM193 0h-7q-55 0 -75 27t-20 97v489q0 30 21 30t21 -30v-507q0 -35 13 -49.5t47 -14.5q30 0 30 -22q0 -20 -30 -20z" />
<glyph unicode="&#x13d;" horiz-adv-x="495" d="M236 645q10 0 23 -5t13 -15q0 -9 -4 -17l-42 -83q-9 -21 -20 -21q-17 0 -17 20q0 6 3 15l24 86q6 20 20 20zM103 0q-19 0 -19 31v584q0 28 21 28t21 -28v-573h318q28 0 28 -22q0 -20 -28 -20h-341z" />
<glyph unicode="&#x13e;" horiz-adv-x="260" d="M249 643q10 0 23 -5t13 -15q0 -9 -4 -17l-42 -83q-9 -21 -20 -21q-17 0 -17 20q0 6 3 15l24 86q6 20 20 20zM192 0h-7q-55 0 -75 27t-20 97v489q0 30 21 30t21 -30v-507q0 -35 13 -49.5t47 -14.5q30 0 30 -22q0 -20 -30 -20z" />
<glyph unicode="&#x141;" horiz-adv-x="501" d="M205 413q9 0 15.5 -6.5t6.5 -14.5q0 -13 -22 -22l-73 -36v-292h318q28 0 28 -22q0 -20 -28 -20h-341q-19 0 -19 31v282l-55 -27q-7 -3 -13 -3q-21 0 -21 23q0 10 19 20l70 35v254q0 28 21 28t21 -28v-234l58 29q9 3 15 3z" />
<glyph unicode="&#x142;" horiz-adv-x="299" d="M223 0h-7q-55 0 -75 27t-20 97v191l-58 -29q-8 -3 -13 -3q-21 0 -21 23q0 10 19 20l73 36v251q0 30 21 30t21 -30v-230l55 27q9 3 15 3q9 0 15.5 -6.5t6.5 -14.5q0 -13 -22 -22l-70 -35v-229q0 -35 13 -49.5t47 -14.5q30 0 30 -22q0 -20 -30 -20z" />
<glyph unicode="&#x143;" horiz-adv-x="612" d="M401 783q0 -10 -8 -19l-96 -115q-12 -13 -21 -13q-7 0 -13.5 6t-6.5 14q0 11 8 20l96 115q12 13 21 13q7 0 13.5 -6t6.5 -15zM508 -7q-12 0 -16 7l-366 557v-534q0 -30 -21 -30t-21 30v589q0 31 19 31q15 0 26 -17l357 -542v528q0 31 20 31q22 0 22 -31v-589 q0 -30 -20 -30z" />
<glyph unicode="&#x144;" horiz-adv-x="588" d="M400 657q0 -10 -8 -19l-96 -115q-12 -13 -21 -13q-7 0 -13.5 6t-6.5 14q0 11 8 20l96 115q12 13 21 13q7 0 13.5 -6t6.5 -15zM282 419q-80 0 -123 -48.5t-43 -138.5v-209q0 -30 -21 -30t-21 30v414q0 31 19 31q23 0 23 -31v-48q56 72 166 72h29q105 0 156 -35t51 -140 v-263q0 -30 -20 -30q-22 0 -22 30v263q0 45 -9.5 72t-32.5 40.5t-49.5 17t-73.5 3.5h-29z" />
<glyph unicode="&#x145;" horiz-adv-x="612" d="M312 0q10 0 23 -5t13 -15q0 -9 -4 -17l-42 -83q-9 -21 -20 -21q-17 0 -17 20q0 6 3 15l24 86q6 20 20 20zM508 -7q-12 0 -16 7l-366 557v-534q0 -30 -21 -30t-21 30v589q0 31 19 31q15 0 26 -17l357 -542v528q0 31 20 31q22 0 22 -31v-589q0 -30 -20 -30z" />
<glyph unicode="&#x146;" horiz-adv-x="587" d="M302 0q10 0 23 -5t13 -15q0 -9 -4 -17l-42 -83q-9 -21 -20 -21q-17 0 -17 20q0 6 3 15l24 86q6 20 20 20zM282 419q-80 0 -123 -48.5t-43 -138.5v-209q0 -30 -21 -30t-21 30v414q0 31 19 31q23 0 23 -31v-48q56 72 166 72h29q105 0 156 -35t51 -140v-263q0 -30 -20 -30 q-22 0 -22 30v263q0 45 -9.5 72t-32.5 40.5t-49.5 17t-73.5 3.5h-29z" />
<glyph unicode="&#x147;" horiz-adv-x="612" d="M335 637h-52l-102 107q-6 6 -6 12q0 15 18 15q10 0 29 -16l87 -72l87 72q19 16 29 16q18 0 18 -15q0 -6 -6 -12zM508 -7q-12 0 -16 7l-366 557v-534q0 -30 -21 -30t-21 30v589q0 31 19 31q15 0 26 -17l357 -542v528q0 31 20 31q22 0 22 -31v-589q0 -30 -20 -30z" />
<glyph unicode="&#x148;" horiz-adv-x="588" d="M322 529h-52l-102 107q-6 6 -6 12q0 15 18 15q10 0 29 -16l87 -72l87 72q19 16 29 16q18 0 18 -15q0 -6 -6 -12zM282 419q-80 0 -123 -48.5t-43 -138.5v-209q0 -30 -21 -30t-21 30v414q0 31 19 31q23 0 23 -31v-48q56 72 166 72h29q105 0 156 -35t51 -140v-263 q0 -30 -20 -30q-22 0 -22 30v263q0 45 -9.5 72t-32.5 40.5t-49.5 17t-73.5 3.5h-29z" />
<glyph unicode="&#x14a;" horiz-adv-x="612" d="M486 84v528q0 31 20 31q22 0 22 -31v-612q0 -56 -14 -92t-44 -53.5t-64 -23.5t-86 -6q-31 0 -31 22q0 20 31 20q48 0 74.5 3.5t49.5 17t32.5 40.5t9.5 72v9l-360 548v-534q0 -30 -21 -30t-21 30v589q0 31 19 31q15 0 26 -17z" />
<glyph unicode="&#x14b;" horiz-adv-x="589" d="M282 419q-80 0 -123 -48.5t-43 -138.5v-209q0 -30 -21 -30t-21 30v414q0 31 19 31q23 0 23 -31v-48q56 72 166 72h29q105 0 156 -35t51 -140v-286q0 -56 -14 -92t-44 -53.5t-64 -23.5t-86 -6q-31 0 -31 22q0 20 31 20q48 0 74.5 3.5t49.5 17t32.5 40.5t9.5 72v286 q0 45 -9.5 72t-32.5 40.5t-49.5 17t-73.5 3.5h-29z" />
<glyph unicode="&#x14c;" horiz-adv-x="574" d="M163 706q-26 0 -26 22q0 21 26 21h245q29 0 29 -23q0 -20 -29 -20h-245zM287 -9q-97 0 -159.5 63t-62.5 173v182q0 110 62.5 173t159.5 63t159.5 -63t62.5 -173v-182q0 -110 -62.5 -173t-159.5 -63zM287 603q-84 0 -132 -51.5t-48 -142.5v-182q0 -91 48 -142.5t132 -51.5 t132 51.5t48 142.5v182q0 91 -48 142.5t-132 51.5z" />
<glyph unicode="&#x14d;" horiz-adv-x="568" d="M161 522q-26 0 -26 22q0 21 26 21h245q29 0 29 -23q0 -20 -29 -20h-245zM299 0h-29q-106 0 -157 35t-51 140v111q0 105 51 140t157 35h29q105 0 156 -35t51 -140v-111q0 -105 -51 -140t-156 -35zM270 42h29q47 0 73.5 3.5t49.5 17t32.5 40.5t9.5 72v111q0 45 -9.5 72 t-32.5 40.5t-49.5 17t-73.5 3.5h-29q-48 0 -74.5 -3.5t-49.5 -17t-32.5 -40.5t-9.5 -72v-111q0 -45 9.5 -72t32.5 -40.5t49.5 -17t74.5 -3.5z" />
<glyph unicode="&#x150;" horiz-adv-x="574" d="M445 799q0 -8 -11 -21l-70 -69q-10 -11 -20 -11q-8 0 -14.5 6.5t-6.5 12.5q0 10 12 22l69 69q10 11 21 11q8 0 14 -7t6 -13zM345 799q0 -8 -11 -21l-70 -69q-10 -11 -20 -11q-8 0 -14.5 6.5t-6.5 12.5q0 10 12 22l69 69q10 11 21 11q8 0 14 -7t6 -13zM287 -9 q-97 0 -159.5 63t-62.5 173v182q0 110 62.5 173t159.5 63t159.5 -63t62.5 -173v-182q0 -110 -62.5 -173t-159.5 -63zM287 603q-84 0 -132 -51.5t-48 -142.5v-182q0 -91 48 -142.5t132 -51.5t132 51.5t48 142.5v182q0 91 -48 142.5t-132 51.5z" />
<glyph unicode="&#x151;" horiz-adv-x="568" d="M469 669q0 -10 -8 -19l-96 -115q-12 -13 -21 -13q-7 0 -13.5 6t-6.5 14q0 11 8 20l96 115q12 13 21 13q7 0 13.5 -6t6.5 -15zM349 669q0 -10 -8 -19l-96 -115q-12 -13 -21 -13q-7 0 -13.5 6t-6.5 14q0 11 8 20l96 115q12 13 21 13q7 0 13.5 -6t6.5 -15zM299 0h-29 q-106 0 -157 35t-51 140v111q0 105 51 140t157 35h29q105 0 156 -35t51 -140v-111q0 -105 -51 -140t-156 -35zM270 42h29q47 0 73.5 3.5t49.5 17t32.5 40.5t9.5 72v111q0 45 -9.5 72t-32.5 40.5t-49.5 17t-73.5 3.5h-29q-48 0 -74.5 -3.5t-49.5 -17t-32.5 -40.5t-9.5 -72 v-111q0 -45 9.5 -72t32.5 -40.5t49.5 -17t74.5 -3.5z" />
<glyph unicode="&#x152;" horiz-adv-x="706" d="M376 617q3 19 18 19h239q30 0 30 -20q0 -22 -30 -22h-216v-215h98q30 0 30 -23q0 -19 -30 -19h-98v-295h216q30 0 30 -23q0 -19 -30 -19h-239q-15 0 -18 18q-45 -27 -108 -27q-73 0 -138 65.5t-65 170.5v182q0 105 65 170.5t138 65.5q64 0 108 -28zM375 70v496 q-37 37 -107 37q-61 0 -111.5 -54t-50.5 -140v-182q0 -86 50.5 -140t111.5 -54q70 0 107 37z" />
<glyph unicode="&#x153;" horiz-adv-x="727" d="M510 419q-59 0 -87 -23.5t-28 -103.5h230q0 80 -28 103.5t-87 23.5zM228 419q-77 0 -101 -31.5t-24 -101.5v-111q0 -70 24 -101.5t101 -31.5q78 0 101.5 31.5t23.5 101.5v111q0 70 -23.5 101.5t-101.5 31.5zM228 0q-91 0 -128.5 42t-37.5 133v111q0 91 37.5 133t128.5 42 q57 0 91 -17t55 -53q34 70 136 70q73 0 115 -36t42 -139v-36h-272v-75q0 -43 12.5 -71.5t34.5 -41t41.5 -16.5t45.5 -4q96 0 96 67q0 28 20 28q22 0 22 -31q0 -34 -12 -56.5t-34.5 -32.5t-43 -13.5t-48.5 -3.5q-119 0 -153 74q-20 -38 -54 -56t-94 -18z" />
<glyph unicode="&#x154;" horiz-adv-x="549" d="M330 799q0 -8 -11 -21l-70 -69q-10 -11 -20 -11q-8 0 -14.5 6.5t-6.5 12.5q0 10 12 22l69 69q10 11 21 11q8 0 14 -7t6 -13zM279 379q90 0 127.5 21t37.5 86q0 66 -37.5 87t-127.5 21h-153v-215h153zM126 20q0 -27 -22 -27q-20 0 -20 27v585q0 31 19 31h176 q103 0 155 -32t52 -118q0 -63 -32 -100t-91 -46q33 -26 65.5 -104.5t49 -141t16.5 -74.5q0 -27 -22 -27q-9 0 -14.5 8t-5.5 19q0 14 -14 71t-48 135t-76 111h-188v-317z" />
<glyph unicode="&#x155;" horiz-adv-x="372" d="M303 657q0 -10 -8 -19l-96 -115q-12 -13 -21 -13q-7 0 -13.5 6t-6.5 14q0 11 8 20l96 115q12 13 21 13q7 0 13.5 -6t6.5 -15zM282 419q-80 0 -123 -48.5t-43 -138.5v-209q0 -30 -21 -30t-21 30v414q0 31 19 31q23 0 23 -31v-48q56 72 166 72h46q30 0 30 -21t-30 -21h-46z " />
<glyph unicode="&#x156;" horiz-adv-x="549" d="M294 0q10 0 23 -5t13 -15q0 -9 -4 -17l-42 -83q-9 -21 -20 -21q-17 0 -17 20q0 6 3 15l24 86q6 20 20 20zM279 379q90 0 127.5 21t37.5 86q0 66 -37.5 87t-127.5 21h-153v-215h153zM126 20q0 -27 -22 -27q-20 0 -20 27v585q0 31 19 31h176q103 0 155 -32t52 -118 q0 -63 -32 -100t-91 -46q33 -26 65.5 -104.5t49 -141t16.5 -74.5q0 -27 -22 -27q-9 0 -14.5 8t-5.5 19q0 14 -14 71t-48 135t-76 111h-188v-317z" />
<glyph unicode="&#x157;" horiz-adv-x="372" d="M101 -64q10 0 23 -5t13 -15q0 -9 -4 -17l-42 -83q-9 -21 -20 -21q-17 0 -17 20q0 6 3 15l24 86q6 20 20 20zM282 419q-80 0 -123 -48.5t-43 -138.5v-209q0 -30 -21 -30t-21 30v414q0 31 19 31q23 0 23 -31v-48q56 72 166 72h46q30 0 30 -21t-30 -21h-46z" />
<glyph unicode="&#x158;" horiz-adv-x="549" d="M296 678h-52l-102 107q-6 6 -6 12q0 15 18 15q10 0 29 -16l87 -72l87 72q19 16 29 16q18 0 18 -15q0 -6 -6 -12zM279 379q90 0 127.5 21t37.5 86q0 66 -37.5 87t-127.5 21h-153v-215h153zM126 20q0 -27 -22 -27q-20 0 -20 27v585q0 31 19 31h176q103 0 155 -32t52 -118 q0 -63 -32 -100t-91 -46q33 -26 65.5 -104.5t49 -141t16.5 -74.5q0 -27 -22 -27q-9 0 -14.5 8t-5.5 19q0 14 -14 71t-48 135t-76 111h-188v-317z" />
<glyph unicode="&#x159;" horiz-adv-x="372" d="M242 529h-52l-102 107q-6 6 -6 12q0 15 18 15q10 0 29 -16l87 -72l87 72q19 16 29 16q18 0 18 -15q0 -6 -6 -12zM282 419q-80 0 -123 -48.5t-43 -138.5v-209q0 -30 -21 -30t-21 30v414q0 31 19 31q23 0 23 -31v-48q56 72 166 72h46q30 0 30 -21t-30 -21h-46z" />
<glyph unicode="&#x15a;" horiz-adv-x="570" d="M363 799q0 -8 -11 -21l-70 -69q-10 -11 -20 -11q-8 0 -14.5 6.5t-6.5 12.5q0 10 12 22l69 69q10 11 21 11q8 0 14 -7t6 -13zM104 484q0 -42 18.5 -71.5t45.5 -36.5l217 -52q123 -31 123 -170q0 -66 -37.5 -114t-123.5 -48h-76q-52 0 -86.5 6t-64.5 24t-44 54t-14 91 q0 28 23 28q20 0 20 -28q0 -86 36 -109.5t130 -23.5h93q53 0 77.5 38t24.5 82q0 51 -20.5 84t-43.5 38l-216 53q-68 16 -96 52t-28 103q0 66 38 113t124 47h76q52 0 86 -6t64 -23.5t44 -53t14 -90.5q0 -28 -22 -28q-21 0 -21 28q0 45 -9 72t-32.5 39.5t-49.5 16t-74 3.5h-94 q-53 0 -77.5 -37.5t-24.5 -80.5z" />
<glyph unicode="&#x15b;" horiz-adv-x="566" d="M406 657q0 -10 -8 -19l-96 -115q-12 -13 -21 -13q-7 0 -13.5 6t-6.5 14q0 11 8 20l96 115q12 13 21 13q7 0 13.5 -6t6.5 -15zM155 0q-31 0 -51.5 9t-29 26t-11.5 33t-3 38q0 31 21 31t21 -28q0 -37 13 -52t47 -15h238q64 0 64 81q0 42 -18 67t-46 25h-216 q-124 0 -124 128q0 58 28.5 88t95.5 30h225q31 0 51.5 -9t29 -26.5t11.5 -33t3 -38.5q0 -30 -21 -30t-21 28q0 36 -13 51.5t-47 15.5h-236q-64 0 -64 -76q0 -41 18 -63.5t46 -22.5h217q123 0 123 -134q0 -123 -123 -123h-228z" />
<glyph unicode="&#x15c;" horiz-adv-x="570" d="M267 773h-3l-92 -104q-16 -18 -24 -18q-18 0 -18 18q0 9 4 13l104 137h55l106 -137q4 -5 4 -13q0 -18 -18 -18q-4 0 -7.5 1.5t-5 3t-5.5 6.5t-6 7zM104 484q0 -42 18.5 -71.5t45.5 -36.5l217 -52q123 -31 123 -170q0 -66 -37.5 -114t-123.5 -48h-76q-52 0 -86.5 6 t-64.5 24t-44 54t-14 91q0 28 23 28q20 0 20 -28q0 -86 36 -109.5t130 -23.5h93q53 0 77.5 38t24.5 82q0 51 -20.5 84t-43.5 38l-216 53q-68 16 -96 52t-28 103q0 66 38 113t124 47h76q52 0 86 -6t64 -23.5t44 -53t14 -90.5q0 -28 -22 -28q-21 0 -21 28q0 45 -9 72 t-32.5 39.5t-49.5 16t-74 3.5h-94q-53 0 -77.5 -37.5t-24.5 -80.5z" />
<glyph unicode="&#x15d;" horiz-adv-x="566" d="M297 644h-3l-92 -104q-16 -18 -24 -18q-18 0 -18 18q0 9 4 13l104 137h55l106 -137q4 -5 4 -13q0 -18 -18 -18q-4 0 -7.5 1.5t-5 3t-5.5 6.5t-6 7zM155 0q-31 0 -51.5 9t-29 26t-11.5 33t-3 38q0 31 21 31t21 -28q0 -37 13 -52t47 -15h238q64 0 64 81q0 42 -18 67t-46 25 h-216q-124 0 -124 128q0 58 28.5 88t95.5 30h225q31 0 51.5 -9t29 -26.5t11.5 -33t3 -38.5q0 -30 -21 -30t-21 28q0 36 -13 51.5t-47 15.5h-236q-64 0 -64 -76q0 -41 18 -63.5t46 -22.5h217q123 0 123 -134q0 -123 -123 -123h-228z" />
<glyph unicode="&#x15e;" horiz-adv-x="570" d="M200 -120q0 13 10 13q3 0 26 -9t40 -9q47 0 47 31q0 16 -29.5 39.5t-36.5 46.5q-48 1 -80.5 8t-60 25t-41 53.5t-13.5 88.5q0 28 23 28q20 0 20 -28q0 -86 36 -109.5t130 -23.5h93q53 0 77.5 38t24.5 82q0 51 -20.5 84t-43.5 38l-216 53q-68 17 -96 52.5t-28 102.5 q0 66 38 113t124 47h76q52 0 86 -6t64 -23.5t44 -53t14 -90.5q0 -28 -22 -28q-21 0 -21 28q0 45 -9 72t-32.5 39.5t-49.5 16t-74 3.5h-94q-53 0 -77.5 -37.5t-24.5 -80.5q0 -42 18.5 -71.5t45.5 -36.5l217 -52q123 -31 123 -170q0 -66 -37.5 -114t-123.5 -48h-46 q5 -10 34.5 -32.5t29.5 -48.5q0 -33 -26 -54.5t-65 -21.5q-23 0 -48.5 10.5t-25.5 34.5z" />
<glyph unicode="&#x15f;" horiz-adv-x="566" d="M192 -120q0 13 10 13q3 0 26 -9t40 -9q47 0 47 31q0 14 -15 26.5t-32 28.5t-21 39h-92q-31 0 -51.5 9t-29 26t-11.5 33t-3 38q0 31 21 31t21 -28q0 -37 13 -52t47 -15h238q64 0 64 81q0 42 -18 67t-46 25h-216q-124 0 -124 128q0 58 28.5 88t95.5 30h225q31 0 51.5 -9 t29 -26.5t11.5 -33t3 -38.5q0 -30 -21 -30t-21 28q0 36 -13 51.5t-47 15.5h-236q-64 0 -64 -76q0 -41 18 -63.5t46 -22.5h217q123 0 123 -134q0 -123 -123 -123h-93q4 -15 21.5 -27.5t31.5 -26.5t14 -35q0 -33 -26 -54.5t-65 -21.5q-23 0 -48.5 10.5t-25.5 34.5z" />
<glyph unicode="&#x160;" horiz-adv-x="570" d="M310 678h-52l-102 107q-6 6 -6 12q0 15 18 15q10 0 29 -16l87 -72l87 72q19 16 29 16q18 0 18 -15q0 -6 -6 -12zM104 484q0 -42 18.5 -71.5t45.5 -36.5l217 -52q123 -31 123 -170q0 -66 -37.5 -114t-123.5 -48h-76q-52 0 -86.5 6t-64.5 24t-44 54t-14 91q0 28 23 28 q20 0 20 -28q0 -86 36 -109.5t130 -23.5h93q53 0 77.5 38t24.5 82q0 51 -20.5 84t-43.5 38l-216 53q-68 16 -96 52t-28 103q0 66 38 113t124 47h76q52 0 86 -6t64 -23.5t44 -53t14 -90.5q0 -28 -22 -28q-21 0 -21 28q0 45 -9 72t-32.5 39.5t-49.5 16t-74 3.5h-94 q-53 0 -77.5 -37.5t-24.5 -80.5z" />
<glyph unicode="&#x161;" horiz-adv-x="566" d="M323 522h-52l-102 107q-6 6 -6 12q0 15 18 15q10 0 29 -16l87 -72l87 72q19 16 29 16q18 0 18 -15q0 -6 -6 -12zM155 0q-31 0 -51.5 9t-29 26t-11.5 33t-3 38q0 31 21 31t21 -28q0 -37 13 -52t47 -15h238q64 0 64 81q0 42 -18 67t-46 25h-216q-124 0 -124 128 q0 58 28.5 88t95.5 30h225q31 0 51.5 -9t29 -26.5t11.5 -33t3 -38.5q0 -30 -21 -30t-21 28q0 36 -13 51.5t-47 15.5h-236q-64 0 -64 -76q0 -41 18 -63.5t46 -22.5h217q123 0 123 -134q0 -123 -123 -123h-228z" />
<glyph unicode="&#x162;" horiz-adv-x="460" d="M251 15q0 -18 11 -31t23.5 -20t23.5 -20.5t11 -32.5q0 -33 -26 -54.5t-65 -21.5q-23 0 -48.5 10.5t-25.5 34.5q0 13 10 13q3 0 26 -9t40 -9q47 0 47 31q0 12 -11 23.5t-23.5 19.5t-23.5 25.5t-11 40.5v579h-155q-28 0 -28 21t28 21h351q28 0 28 -22q0 -20 -28 -20h-154 v-579z" />
<glyph unicode="&#x163;" horiz-adv-x="329" d="M123 -120q0 13 10 13q3 0 26 -9t40 -9q47 0 47 31q0 15 -17 28t-34 31.5t-18 45.5q-101 29 -101 164v244q-31 0 -31 22q0 20 31 20v109q0 31 19 31q23 0 23 -31v-109h143q31 0 31 -23q0 -19 -31 -19h-143v-244q0 -45 9.5 -72t32.5 -40.5t49.5 -17t74.5 -3.5q30 0 30 -19 q0 -23 -30 -23q-34 0 -64 3q4 -19 36 -42t32 -50q0 -33 -26 -54.5t-65 -21.5q-23 0 -48.5 10.5t-25.5 34.5z" />
<glyph unicode="&#x164;" horiz-adv-x="460" d="M258 678h-52l-102 107q-6 6 -6 12q0 15 18 15q10 0 29 -16l87 -72l87 72q19 16 29 16q18 0 18 -15q0 -6 -6 -12zM405 636q28 0 28 -22q0 -20 -28 -20h-154v-574q0 -27 -22 -27q-20 0 -20 27v574h-155q-28 0 -28 21t28 21h351z" />
<glyph unicode="&#x165;" horiz-adv-x="330" d="M208 627q10 0 23 -5t13 -15q0 -9 -4 -17l-42 -83q-9 -21 -20 -21q-17 0 -17 20q0 6 3 15l24 86q6 20 20 20zM119 175q0 -45 9.5 -72t32.5 -40.5t49.5 -17t74.5 -3.5q30 0 30 -19q0 -23 -30 -23q-51 0 -86 6.5t-64.5 24.5t-43.5 53.5t-14 90.5v244q-31 0 -31 22 q0 20 31 20v109q0 31 19 31q23 0 23 -31v-109h143q31 0 31 -23q0 -19 -31 -19h-143v-244z" />
<glyph unicode="&#x166;" horiz-adv-x="462" d="M110 318q-26 0 -26 22q0 21 26 21h100v233h-155q-28 0 -28 21t28 21h351q28 0 28 -22q0 -20 -28 -20h-154v-233h103q29 0 29 -23q0 -20 -29 -20h-103v-298q0 -27 -22 -27q-20 0 -20 27v298h-100z" />
<glyph unicode="&#x167;" horiz-adv-x="337" d="M72 275q-26 0 -26 22q0 21 26 21h5v101q-31 0 -31 22q0 20 31 20v109q0 31 19 31q23 0 23 -31v-109h143q31 0 31 -23q0 -19 -31 -19h-143v-101h173q29 0 29 -23q0 -20 -29 -20h-173v-100q0 -45 9.5 -72t32.5 -40.5t49.5 -17t74.5 -3.5q30 0 30 -19q0 -23 -30 -23 q-51 0 -86 6.5t-64.5 24.5t-43.5 53.5t-14 90.5v100h-5z" />
<glyph unicode="&#x168;" horiz-adv-x="598" d="M347 755q4 -2 7 -2q4 0 11 5l31 28q11 8 19 8t14.5 -5t6.5 -13q0 -12 -12 -23l-47 -39q-7 -7 -16 -7q-4 0 -10 2l-98 36q-4 2 -8 2t-11 -5l-31 -28q-11 -8 -19 -8q-7 0 -13.5 5.5t-6.5 13.5q0 13 12 22l47 39q5 7 15 7q3 0 11 -2zM479 615q0 28 22 28q20 0 20 -28v-388 q0 -110 -62.5 -173t-159.5 -63t-159.5 63t-62.5 173v388q0 28 21 28t21 -28v-388q0 -91 48 -142.5t132 -51.5t132 51.5t48 142.5v388z" />
<glyph unicode="&#x169;" horiz-adv-x="588" d="M339 578q4 -2 7 -2q4 0 11 5l31 28q11 8 19 8t14.5 -5t6.5 -13q0 -12 -12 -23l-47 -39q-7 -7 -16 -7q-4 0 -10 2l-98 36q-4 2 -8 2t-11 -5l-31 -28q-11 -8 -19 -8q-7 0 -13.5 5.5t-6.5 13.5q0 13 12 22l47 39q5 7 15 7q3 0 11 -2zM307 42q79 0 122 48t43 138v210 q0 30 21 30t21 -30v-414q0 -31 -19 -31q-23 0 -23 31v48q-54 -72 -165 -72h-29q-106 0 -157 35t-51 140v263q0 30 20 30q22 0 22 -30v-263q0 -45 9.5 -72t32.5 -40.5t49.5 -17t74.5 -3.5h29z" />
<glyph unicode="&#x16a;" horiz-adv-x="598" d="M176 706q-26 0 -26 22q0 21 26 21h245q29 0 29 -23q0 -20 -29 -20h-245zM479 615q0 28 22 28q20 0 20 -28v-388q0 -110 -62.5 -173t-159.5 -63t-159.5 63t-62.5 173v388q0 28 21 28t21 -28v-388q0 -91 48 -142.5t132 -51.5t132 51.5t48 142.5v388z" />
<glyph unicode="&#x16b;" horiz-adv-x="588" d="M168 529q-26 0 -26 22q0 21 26 21h245q29 0 29 -23q0 -20 -29 -20h-245zM307 42q79 0 122 48t43 138v210q0 30 21 30t21 -30v-414q0 -31 -19 -31q-23 0 -23 31v48q-54 -72 -165 -72h-29q-106 0 -157 35t-51 140v263q0 30 20 30q22 0 22 -30v-263q0 -45 9.5 -72 t32.5 -40.5t49.5 -17t74.5 -3.5h29z" />
<glyph unicode="&#x16c;" horiz-adv-x="598" d="M415 757q0 -48 -34 -84.5t-81 -36.5t-81 36.5t-34 84.5h43q0 -34 19.5 -55.5t52.5 -21.5t52.5 21.5t19.5 55.5h43zM479 615q0 28 22 28q20 0 20 -28v-388q0 -110 -62.5 -173t-159.5 -63t-159.5 63t-62.5 173v388q0 28 21 28t21 -28v-388q0 -91 48 -142.5t132 -51.5 t132 51.5t48 142.5v388z" />
<glyph unicode="&#x16d;" horiz-adv-x="588" d="M406 650q0 -48 -34 -84.5t-81 -36.5t-81 36.5t-34 84.5h43q0 -34 19.5 -55.5t52.5 -21.5t52.5 21.5t19.5 55.5h43zM307 42q79 0 122 48t43 138v210q0 30 21 30t21 -30v-414q0 -31 -19 -31q-23 0 -23 31v48q-54 -72 -165 -72h-29q-106 0 -157 35t-51 140v263q0 30 20 30 q22 0 22 -30v-263q0 -45 9.5 -72t32.5 -40.5t49.5 -17t74.5 -3.5h29z" />
<glyph unicode="&#x16e;" horiz-adv-x="598" d="M252 716q0 -20 14.5 -34.5t34.5 -14.5t34.5 14.5t14.5 34.5t-15 34.5t-34 14.5q-20 0 -34.5 -14.5t-14.5 -34.5zM225 716q0 32 22.5 54t53.5 22t53.5 -22t22.5 -54t-22.5 -54t-53.5 -22t-53.5 22t-22.5 54zM479 615q0 28 22 28q20 0 20 -28v-388q0 -110 -62.5 -173 t-159.5 -63t-159.5 63t-62.5 173v388q0 28 21 28t21 -28v-388q0 -91 48 -142.5t132 -51.5t132 51.5t48 142.5v388z" />
<glyph unicode="&#x16f;" horiz-adv-x="588" d="M237 598q0 -20 14.5 -34.5t34.5 -14.5t34.5 14.5t14.5 34.5t-14.5 34.5t-34.5 14.5t-34.5 -14.5t-14.5 -34.5zM210 598q0 32 22 54t54 22t54 -22t22 -54t-22 -54t-54 -22t-54 22t-22 54zM307 42q79 0 122 48t43 138v210q0 30 21 30t21 -30v-414q0 -31 -19 -31 q-23 0 -23 31v48q-54 -72 -165 -72h-29q-106 0 -157 35t-51 140v263q0 30 20 30q22 0 22 -30v-263q0 -45 9.5 -72t32.5 -40.5t49.5 -17t74.5 -3.5h29z" />
<glyph unicode="&#x170;" horiz-adv-x="598" d="M477 783q0 -10 -8 -19l-96 -115q-12 -13 -21 -13q-7 0 -13.5 6t-6.5 14q0 11 8 20l96 115q12 13 21 13q7 0 13.5 -6t6.5 -15zM357 783q0 -10 -8 -19l-96 -115q-12 -13 -21 -13q-7 0 -13.5 6t-6.5 14q0 11 8 20l96 115q12 13 21 13q7 0 13.5 -6t6.5 -15zM479 615 q0 28 22 28q20 0 20 -28v-388q0 -110 -62.5 -173t-159.5 -63t-159.5 63t-62.5 173v388q0 28 21 28t21 -28v-388q0 -91 48 -142.5t132 -51.5t132 51.5t48 142.5v388z" />
<glyph unicode="&#x171;" horiz-adv-x="588" d="M468 676q0 -10 -8 -19l-96 -115q-12 -13 -21 -13q-7 0 -13.5 6t-6.5 14q0 11 8 20l96 115q12 13 21 13q7 0 13.5 -6t6.5 -15zM348 676q0 -10 -8 -19l-96 -115q-12 -13 -21 -13q-7 0 -13.5 6t-6.5 14q0 11 8 20l96 115q12 13 21 13q7 0 13.5 -6t6.5 -15zM307 42 q79 0 122 48t43 138v210q0 30 21 30t21 -30v-414q0 -31 -19 -31q-23 0 -23 31v48q-54 -72 -165 -72h-29q-106 0 -157 35t-51 140v263q0 30 20 30q22 0 22 -30v-263q0 -45 9.5 -72t32.5 -40.5t49.5 -17t74.5 -3.5h29z" />
<glyph unicode="&#x172;" horiz-adv-x="600" d="M390 -159q0 -24 -25.5 -34.5t-48.5 -10.5q-40 0 -65.5 27.5t-25.5 71.5q0 34 46 98q-86 9 -139.5 71t-53.5 163v388q0 28 21 28t21 -28v-388q0 -91 48 -142.5t132 -51.5t132 51.5t48 142.5v388q0 28 22 28q20 0 20 -28v-388q0 -103 -55.5 -165t-143.5 -70 q-19 -16 -37.5 -48t-18.5 -49q0 -59 47 -59q17 0 40 9t26 9q10 0 10 -13z" />
<glyph unicode="&#x173;" horiz-adv-x="588" d="M565 -159q0 -24 -25.5 -34.5t-48.5 -10.5q-40 0 -65.5 27.5t-25.5 71.5q0 24 24.5 65t47.5 64v48q-54 -72 -165 -72h-29q-106 0 -157 35t-51 140v263q0 30 20 30q22 0 22 -30v-263q0 -45 9.5 -72t32.5 -40.5t49.5 -17t74.5 -3.5h29q79 0 122 48t43 138v210q0 30 21 30 t21 -30v-414q0 -27 -14 -30q-19 -15 -38.5 -48.5t-19.5 -50.5q0 -59 47 -59q17 0 40 9t26 9q10 0 10 -13z" />
<glyph unicode="&#x174;" horiz-adv-x="892" d="M445 773h-3l-92 -104q-16 -18 -24 -18q-18 0 -18 18q0 9 4 13l104 137h55l106 -137q4 -5 4 -13q0 -18 -18 -18q-4 0 -7.5 1.5t-5 3t-5.5 6.5t-6 7zM444 652q18 0 25 -22l177 -570l176 572q8 20 20 20q3 0 8 -1.5t10 -6.5t5 -12q0 -6 -3 -15l-192 -617h-50l-176 565 l-175 -565h-49l-188 617q-1 3 -4.5 8t-3.5 7q0 7 5.5 12t10.5 6.5t8 1.5q13 0 19 -20l178 -572l176 570q7 22 23 22z" />
<glyph unicode="&#x175;" horiz-adv-x="771" d="M387 651h-3l-92 -104q-16 -18 -24 -18q-18 0 -18 18q0 9 4 13l104 137h55l106 -137q4 -5 4 -13q0 -18 -18 -18q-4 0 -7.5 1.5t-5 3t-5.5 6.5t-6 7zM408 450l138 -404h6l145 404q6 18 17 18q8 0 17.5 -5.5t9.5 -12.5q0 -8 -3 -11l-155 -439h-71l-126 384l-136 -384h-71 l-145 439q-3 2 -3 10q0 7 10 13t17 6q10 0 17 -19l139 -403h6l144 404q3 17 23 17q16 0 21 -17z" />
<glyph unicode="&#x176;" horiz-adv-x="499" d="M249 773h-3l-92 -104q-16 -18 -24 -18q-18 0 -18 18q0 9 4 13l104 137h55l106 -137q4 -5 4 -13q0 -18 -18 -18q-4 0 -7.5 1.5t-5 3t-5.5 6.5t-6 7zM229 310l-206 294q-7 10 -7 19q0 8 6.5 14t13.5 6q10 0 21 -16l192 -273l191 273q13 16 22 16q7 0 13.5 -6t6.5 -14 q0 -9 -7 -19l-205 -294v-290q0 -27 -21 -27q-20 0 -20 27v290z" />
<glyph unicode="&#x177;" horiz-adv-x="589" d="M293 651h-3l-92 -104q-16 -18 -24 -18q-18 0 -18 18q0 9 4 13l104 137h55l106 -137q4 -5 4 -13q0 -18 -18 -18q-4 0 -7.5 1.5t-5 3t-5.5 6.5t-6 7zM514 -92q0 -64 -18 -88.5t-68 -24.5h-263q-31 0 -51.5 9t-29 26.5t-11.5 33t-3 38.5q0 30 21 30t21 -28q0 -36 13 -51.5 t47 -15.5h249q31 0 41 11.5t10 43.5v180q-54 -72 -165 -72h-29q-106 0 -157 35t-51 140v261q0 32 21 32t21 -32v-261q0 -45 9.5 -72t32.5 -40.5t49.5 -17t74.5 -3.5h29q79 0 122 48t43 138v208q0 32 22 32q20 0 20 -32v-528z" />
<glyph unicode="&#x178;" horiz-adv-x="499" d="M277 743q0 14 15 25t31 11q15 0 30.5 -11t15.5 -25t-15.5 -25t-30.5 -11q-16 0 -31 11t-15 25zM131 743q0 14 15 25t31 11q15 0 30.5 -11t15.5 -25t-15.5 -25t-30.5 -11q-16 0 -31 11t-15 25zM229 310l-206 294q-7 10 -7 19q0 8 6.5 14t13.5 6q10 0 21 -16l192 -273 l191 273q13 16 22 16q7 0 13.5 -6t6.5 -14q0 -9 -7 -19l-205 -294v-290q0 -27 -21 -27q-20 0 -20 27v290z" />
<glyph unicode="&#x179;" horiz-adv-x="535" d="M364 799q0 -8 -11 -21l-70 -69q-10 -11 -20 -11q-8 0 -14.5 6.5t-6.5 12.5q0 10 12 22l69 69q10 11 21 11q8 0 14 -7t6 -13zM46 0v44l396 550h-366q-31 0 -31 21t31 21h413v-46l-394 -548h364q30 0 30 -22q0 -20 -30 -20h-413z" />
<glyph unicode="&#x17a;" horiz-adv-x="530" d="M404 657q0 -10 -8 -19l-96 -115q-12 -13 -21 -13q-7 0 -13.5 6t-6.5 14q0 11 8 20l96 115q12 13 21 13q7 0 13.5 -6t6.5 -15zM108 42h269q28 0 42 12.5t16.5 27t2.5 42.5q0 31 21 31t21 -31q0 -70 -20.5 -97t-74.5 -27h-327v59l354 360h-252q-39 0 -49.5 -20.5 t-10.5 -61.5q0 -31 -22 -31q-20 0 -20 31q0 70 20 97t75 27h306v-62z" />
<glyph unicode="&#x17b;" horiz-adv-x="535" d="M221 742q0 14 15 25t31 11q15 0 30.5 -11t15.5 -25t-15.5 -25t-30.5 -11q-16 0 -31 11t-15 25zM46 0v44l396 550h-366q-31 0 -31 21t31 21h413v-46l-394 -548h364q30 0 30 -22q0 -20 -30 -20h-413z" />
<glyph unicode="&#x17c;" horiz-adv-x="530" d="M226 558q0 14 15 25t31 11q15 0 30.5 -11t15.5 -25t-15.5 -25t-30.5 -11q-16 0 -31 11t-15 25zM108 42h269q28 0 42 12.5t16.5 27t2.5 42.5q0 31 21 31t21 -31q0 -70 -20.5 -97t-74.5 -27h-327v59l354 360h-252q-39 0 -49.5 -20.5t-10.5 -61.5q0 -31 -22 -31 q-20 0 -20 31q0 70 20 97t75 27h306v-62z" />
<glyph unicode="&#x17d;" horiz-adv-x="535" d="M299 678h-52l-102 107q-6 6 -6 12q0 15 18 15q10 0 29 -16l87 -72l87 72q19 16 29 16q18 0 18 -15q0 -6 -6 -12zM46 0v44l396 550h-366q-31 0 -31 21t31 21h413v-46l-394 -548h364q30 0 30 -22q0 -20 -30 -20h-413z" />
<glyph unicode="&#x17e;" horiz-adv-x="530" d="M281 522h-52l-102 107q-6 6 -6 12q0 15 18 15q10 0 29 -16l87 -72l87 72q19 16 29 16q18 0 18 -15q0 -6 -6 -12zM108 42h269q28 0 42 12.5t16.5 27t2.5 42.5q0 31 21 31t21 -31q0 -70 -20.5 -97t-74.5 -27h-327v59l354 360h-252q-39 0 -49.5 -20.5t-10.5 -61.5 q0 -31 -22 -31q-20 0 -20 31q0 70 20 97t75 27h306v-62z" />
<glyph unicode="&#x192;" horiz-adv-x="313" d="M121 44q0 -92 -31 -120.5t-109 -28.5q-31 0 -31 22q0 20 31 20q68 0 83 20.5t15 112.5v349q-31 0 -31 22q0 20 31 20q0 56 14 91.5t44 53.5t64 24t86 6q31 0 31 -23q0 -19 -31 -19q-48 0 -74.5 -3.5t-49.5 -17t-32.5 -40.5t-9.5 -72h143q31 0 31 -23q0 -19 -31 -19h-143 v-375z" />
<glyph unicode="&#x1a0;" horiz-adv-x="607" d="M531 661q0 7 6.5 13.5t13.5 6.5q9 0 20 -10q42 -35 42 -75q0 -82 -120 -89q16 -46 16 -98v-182q0 -110 -62.5 -173t-159.5 -63t-159.5 63t-62.5 173v182q0 110 62.5 173t159.5 63q127 0 187 -98q49 1 72 12.5t23 40.5q0 18 -25 39q-13 10 -13 22zM287 603 q-84 0 -132 -51.5t-48 -142.5v-182q0 -91 48 -142.5t132 -51.5t132 51.5t48 142.5v182q0 91 -48 142.5t-132 51.5z" />
<glyph unicode="&#x1a1;" horiz-adv-x="606" d="M529 472q0 7 6.5 13.5t13.5 6.5q9 0 20 -10q42 -35 42 -75q0 -76 -106 -88q1 -10 1 -33v-111q0 -105 -51 -140t-156 -35h-29q-106 0 -157 35t-51 140v111q0 105 51 140t157 35h29q84 0 132.5 -21t65.5 -81q70 6 70 52q0 18 -25 39q-13 10 -13 22zM270 42h29 q47 0 73.5 3.5t49.5 17t32.5 40.5t9.5 72v111q0 45 -9.5 72t-32.5 40.5t-49.5 17t-73.5 3.5h-29q-48 0 -74.5 -3.5t-49.5 -17t-32.5 -40.5t-9.5 -72v-111q0 -45 9.5 -72t32.5 -40.5t49.5 -17t74.5 -3.5z" />
<glyph unicode="&#x1af;" horiz-adv-x="639" d="M570 656q0 7 6.5 13.5t13.5 6.5q9 0 20 -10q42 -35 42 -75q0 -85 -131 -90v-274q0 -110 -62.5 -173t-159.5 -63t-159.5 63t-62.5 173v388q0 28 21 28t21 -28v-388q0 -91 48 -142.5t132 -51.5t132 51.5t48 142.5v388q0 28 22 28q20 0 20 -28v-73q44 2 65.5 13.5t21.5 39.5 q0 18 -25 39q-13 10 -13 22z" />
<glyph unicode="&#x1b0;" horiz-adv-x="628" d="M553 479q0 7 6.5 13.5t13.5 6.5q9 0 20 -10q42 -35 42 -75q0 -82 -121 -89v-301q0 -31 -19 -31q-23 0 -23 31v48q-54 -72 -165 -72h-29q-106 0 -157 35t-51 140v263q0 30 20 30q22 0 22 -30v-263q0 -45 9.5 -72t32.5 -40.5t49.5 -17t74.5 -3.5h29q79 0 122 48t43 138v210 q0 30 21 30t21 -30v-72q77 5 77 52q0 18 -25 39q-13 10 -13 22z" />
<glyph unicode="&#x218;" horiz-adv-x="570" d="M292 -64q10 0 23 -5t13 -15q0 -9 -4 -17l-42 -83q-9 -21 -20 -21q-17 0 -17 20q0 6 3 15l24 86q6 20 20 20zM104 484q0 -42 18.5 -71.5t45.5 -36.5l217 -52q123 -31 123 -170q0 -66 -37.5 -114t-123.5 -48h-76q-52 0 -86.5 6t-64.5 24t-44 54t-14 91q0 28 23 28 q20 0 20 -28q0 -86 36 -109.5t130 -23.5h93q53 0 77.5 38t24.5 82q0 51 -20.5 84t-43.5 38l-216 53q-68 16 -96 52t-28 103q0 66 38 113t124 47h76q52 0 86 -6t64 -23.5t44 -53t14 -90.5q0 -28 -22 -28q-21 0 -21 28q0 45 -9 72t-32.5 39.5t-49.5 16t-74 3.5h-94 q-53 0 -77.5 -37.5t-24.5 -80.5z" />
<glyph unicode="&#x219;" horiz-adv-x="566" d="M280 -64q10 0 23 -5t13 -15q0 -9 -4 -17l-42 -83q-9 -21 -20 -21q-17 0 -17 20q0 6 3 15l24 86q6 20 20 20zM155 0q-31 0 -51.5 9t-29 26t-11.5 33t-3 38q0 31 21 31t21 -28q0 -37 13 -52t47 -15h238q64 0 64 81q0 42 -18 67t-46 25h-216q-124 0 -124 128q0 58 28.5 88 t95.5 30h225q31 0 51.5 -9t29 -26.5t11.5 -33t3 -38.5q0 -30 -21 -30t-21 28q0 36 -13 51.5t-47 15.5h-236q-64 0 -64 -76q0 -41 18 -63.5t46 -22.5h217q123 0 123 -134q0 -123 -123 -123h-228z" />
<glyph unicode="&#x21a;" horiz-adv-x="461" d="M236 -64q10 0 23 -5t13 -15q0 -9 -4 -17l-42 -83q-9 -21 -20 -21q-17 0 -17 20q0 6 3 15l24 86q6 20 20 20zM406 636q28 0 28 -22q0 -20 -28 -20h-154v-574q0 -27 -22 -27q-20 0 -20 27v574h-155q-28 0 -28 21t28 21h351z" />
<glyph unicode="&#x21b;" horiz-adv-x="330" d="M166 -64q10 0 23 -5t13 -15q0 -9 -4 -17l-42 -83q-9 -21 -20 -21q-17 0 -17 20q0 6 3 15l24 86q6 20 20 20zM119 175q0 -45 9.5 -72t32.5 -40.5t49.5 -17t74.5 -3.5q30 0 30 -19q0 -23 -30 -23q-51 0 -86 6.5t-64.5 24.5t-43.5 53.5t-14 90.5v244q-31 0 -31 22 q0 20 31 20v109q0 31 19 31q23 0 23 -31v-109h143q31 0 31 -23q0 -19 -31 -19h-143v-244z" />
<glyph unicode="&#x237;" horiz-adv-x="192" d="M117 0q0 -56 -14 -92t-44 -53.5t-64 -23.5t-86 -6q-31 0 -31 22q0 20 31 20q48 0 74.5 3.5t49.5 17t32.5 40.5t9.5 72v437q0 31 22 31q20 0 20 -31v-437z" />
<glyph unicode="&#x2c6;" horiz-adv-x="402" d="M202 632h-3l-92 -104q-16 -18 -24 -18q-18 0 -18 18q0 9 4 13l104 137h55l106 -137q4 -5 4 -13q0 -18 -18 -18q-4 0 -7.5 1.5t-5 3t-5.5 6.5t-6 7z" />
<glyph unicode="&#x2c7;" horiz-adv-x="373" d="M215 527h-52l-102 107q-6 6 -6 12q0 15 18 15q10 0 29 -16l87 -72l87 72q19 16 29 16q18 0 18 -15q0 -6 -6 -12z" />
<glyph unicode="&#x2d8;" horiz-adv-x="428" d="M329 729q0 -48 -34 -84.5t-81 -36.5t-81 36.5t-34 84.5h43q0 -34 19.5 -55.5t52.5 -21.5t52.5 21.5t19.5 55.5h43z" />
<glyph unicode="&#x2d9;" horiz-adv-x="221" d="M65 630q0 14 15 25t31 11q15 0 30.5 -11t15.5 -25t-15.5 -25t-30.5 -11q-16 0 -31 11t-15 25z" />
<glyph unicode="&#x2da;" horiz-adv-x="282" d="M92 598q0 -20 14.5 -34.5t34.5 -14.5t34.5 14.5t14.5 34.5t-15 34.5t-34 14.5q-20 0 -34.5 -14.5t-14.5 -34.5zM65 598q0 32 22.5 54t53.5 22t53.5 -22t22.5 -54t-22.5 -54t-53.5 -22t-53.5 22t-22.5 54z" />
<glyph unicode="&#x2db;" horiz-adv-x="234" d="M210 -156q0 -24 -25.5 -34.5t-48.5 -10.5q-40 0 -65.5 27.5t-25.5 71.5q0 25 26 67.5t49 64.5l30 -30q-19 -11 -41 -47.5t-22 -54.5q0 -59 47 -59q17 0 40 9t26 9q10 0 10 -13z" />
<glyph unicode="&#x2dc;" horiz-adv-x="401" d="M248 231q4 -2 7 -2q4 0 11 5l31 28q11 8 19 8t14.5 -5t6.5 -13q0 -12 -12 -23l-47 -39q-7 -7 -16 -7q-4 0 -10 2l-98 36q-4 2 -8 2t-11 -5l-31 -28q-11 -8 -19 -8q-7 0 -13.5 5.5t-6.5 13.5q0 13 12 22l47 39q5 7 15 7q3 0 11 -2z" />
<glyph unicode="&#x2dd;" horiz-adv-x="333" d="M299 657q0 -10 -8 -19l-96 -115q-12 -13 -21 -13q-7 0 -13.5 6t-6.5 14q0 11 8 20l96 115q12 13 21 13q7 0 13.5 -6t6.5 -15zM179 657q0 -10 -8 -19l-96 -115q-12 -13 -21 -13q-7 0 -13.5 6t-6.5 14q0 11 8 20l96 115q12 13 21 13q7 0 13.5 -6t6.5 -15z" />
<glyph unicode="&#x300;" d="M-370 611q0 6 6.5 13t14.5 7q10 0 20 -11l70 -69q11 -13 11 -22q0 -6 -6 -12.5t-14 -6.5q-11 0 -21 11l-69 69q-12 12 -12 21z" />
<glyph unicode="&#x301;" d="M-248 611q0 -8 -11 -21l-70 -69q-10 -11 -20 -11q-8 0 -14.5 6.5t-6.5 12.5q0 10 12 22l69 69q10 11 21 11q8 0 14 -7t6 -13z" />
<glyph unicode="&#x302;" d="M-301 632h-3l-92 -104q-2 -2 -5.5 -6t-5 -5.5t-4 -3.5t-4.5 -2.5t-5 -0.5q-18 0 -18 18q0 9 4 13l104 137h55l106 -137q4 -5 4 -13q0 -18 -18 -18q-4 0 -7.5 1.5t-5 3t-5.5 6.5t-6 7z" />
<glyph unicode="&#x303;" d="M-248 543q4 -2 7 -2q4 0 11 5l31 28q11 8 19 8t14.5 -5t6.5 -13q0 -12 -12 -23l-47 -39q-7 -7 -16 -7q-4 0 -10 2l-98 36q-4 2 -8 2t-11 -5l-31 -28q-11 -8 -19 -8q-7 0 -13.5 5.5t-6.5 13.5q0 13 12 22l47 39q5 7 15 7q3 0 11 -2z" />
<glyph unicode="&#x304;" d="M-425 517q-26 0 -26 22q0 21 26 21h245q29 0 29 -23q0 -20 -29 -20h-245z" />
<glyph unicode="&#x306;" d="M-189 627q0 -48 -34 -84.5t-81 -36.5t-81 36.5t-34 84.5h43q0 -34 19.5 -55.5t52.5 -21.5t52.5 21.5t19.5 55.5h43z" />
<glyph unicode="&#x307;" d="M-353 558q0 14 15 25t31 11q15 0 30.5 -11t15.5 -25t-15.5 -25t-30.5 -11q-16 0 -31 11t-15 25z" />
<glyph unicode="&#x308;" d="M-281 546q0 14 15 25t31 11q15 0 30.5 -11t15.5 -25t-15.5 -25t-30.5 -11q-16 0 -31 11t-15 25zM-427 546q0 14 15 25t31 11q15 0 30.5 -11t15.5 -25t-15.5 -25t-30.5 -11q-16 0 -31 11t-15 25z" />
<glyph unicode="&#x309;" d="M-312 592q0 -13 -17 -13t-17 13q0 23 20.5 38t44.5 15q25 0 41.5 -17t16.5 -46q0 -24 -27 -40t-27 -33q0 -14 -15 -14q-7 0 -13 4t-6 10q0 26 27 42.5t27 35.5q0 11 -8 18t-18 7q-29 0 -29 -20z" />
<glyph unicode="&#x30a;" d="M-356 586q0 -20 14.5 -34.5t34.5 -14.5t34.5 14.5t14.5 34.5t-15 34.5t-34 14.5q-20 0 -34.5 -14.5t-14.5 -34.5zM-383 586q0 32 22.5 54t53.5 22t53.5 -22t22.5 -54t-22.5 -54t-53.5 -22t-53.5 22t-22.5 54z" />
<glyph unicode="&#x30b;" d="M-188 611q0 -8 -11 -21l-70 -69q-10 -11 -20 -11q-8 0 -14.5 6.5t-6.5 12.5q0 10 12 22l69 69q10 11 21 11q8 0 14 -7t6 -13zM-288 611q0 -8 -11 -21l-70 -69q-10 -11 -20 -11q-8 0 -14.5 6.5t-6.5 12.5q0 10 12 22l69 69q10 11 21 11q8 0 14 -7t6 -13z" />
<glyph unicode="&#x30c;" d="M-273 527h-52l-102 107q-6 6 -6 12q0 15 18 15q10 0 29 -16l87 -72l87 72q19 16 29 16q18 0 18 -15q0 -6 -6 -12z" />
<glyph unicode="&#x311;" d="M-419 506q0 48 34 84.5t81 36.5t81 -36.5t34 -84.5h-43q0 34 -19.5 55.5t-52.5 21.5t-52.5 -21.5t-19.5 -55.5h-43z" />
<glyph unicode="&#x312;" d="M-226 526q-10 0 -23 5t-13 15q0 9 4 17l42 83q9 21 20 21q17 0 17 -20q0 -6 -3 -15l-24 -86q-6 -20 -20 -20z" />
<glyph unicode="&#x313;" d="M-295 622q0 18 15 31t31 13q15 0 30.5 -13t15.5 -31q0 -29 -25.5 -75t-40.5 -46q-17 0 -17 20q0 11 13 30t13 32q-11 0 -23 14t-12 25z" />
<glyph unicode="&#x31b;" horiz-adv-x="94" d="M2 661q0 7 6.5 13.5t13.5 6.5q9 0 20 -10q42 -35 42 -75q0 -90 -146 -90v41q52 0 77 11.5t25 41.5q0 18 -25 39q-13 10 -13 22z" />
<glyph unicode="&#x323;" d="M-353 -98q0 14 15 25t31 11q15 0 30.5 -11t15.5 -25t-15.5 -25t-30.5 -11q-16 0 -31 11t-15 25z" />
<glyph unicode="&#x326;" d="M-311 -53q10 0 23 -5t13 -15q0 -9 -4 -17l-42 -83q-9 -21 -20 -21q-17 0 -17 20q0 6 3 15l24 86q6 20 20 20z" />
<glyph unicode="&#x327;" d="M-375 -120q0 13 10 13q3 0 26 -9t40 -9q47 0 47 31q0 12 -11 23.5t-23.5 19.5t-23.5 25.5t-11 40.5h42q0 -18 11 -31t23.5 -20t23.5 -20.5t11 -32.5q0 -33 -26 -54.5t-65 -21.5q-23 0 -48.5 10.5t-25.5 34.5z" />
<glyph unicode="&#x328;" d="M-114 -156q0 -24 -25.5 -34.5t-48.5 -10.5q-40 0 -65.5 27.5t-25.5 71.5q0 25 26 67.5t49 64.5l30 -30q-19 -11 -41 -47.5t-22 -54.5q0 -59 47 -59q17 0 40 9t26 9q10 0 10 -13z" />
<glyph unicode="&#x334;" horiz-adv-x="401" d="M-233 229q21 0 46 20.5t37 20.5q11 0 20 -5t9 -13q0 -17 -39 -43t-64 -26t-85 20t-74 20q-21 0 -46 -20.5t-38 -20.5q-10 0 -18.5 5.5t-8.5 13.5q0 17 38 42.5t63 25.5t85.5 -20t74.5 -20z" />
<glyph unicode="&#x335;" d="M-425 217q-26 0 -26 22q0 21 26 21h245q29 0 29 -23q0 -20 -29 -20h-245z" />
<glyph unicode="&#x337;" d="M-210 303q10 0 16 -6.5t6 -14.5q0 -13 -22 -22l-170 -84q-8 -3 -13 -3q-21 0 -21 23q0 10 19 20l170 84q9 3 15 3z" />
<glyph unicode="&#x37a;" horiz-adv-x="256" d="M187 -179h-7q-55 0 -75 27t-20 97v44q0 30 21 30t21 -30v-62q0 -35 13 -49.5t47 -14.5q30 0 30 -22q0 -20 -30 -20z" />
<glyph unicode="&#x37e;" horiz-adv-x="241" d="M73 433q0 14 15 25t31 11q15 0 30.5 -11t15.5 -25t-15.5 -25t-30.5 -11q-16 0 -31 11t-15 25zM127 112q10 0 23 -5t13 -15q0 -9 -4 -17l-42 -83q-9 -21 -20 -21q-17 0 -17 20q0 6 3 15l24 86q6 20 20 20z" />
<glyph unicode="&#x384;" horiz-adv-x="239" d="M144 648q20 0 20 -22q0 -8 -1 -12l-45 -165q-6 -21 -20 -21q-23 0 -23 21q0 3 2 11l44 165q6 23 23 23z" />
<glyph unicode="&#x385;" horiz-adv-x="373" d="M222 814q20 0 20 -22q0 -8 -1 -12l-45 -165q-6 -21 -20 -21q-23 0 -23 21q0 3 2 11l44 165q6 23 23 23zM199 546q0 14 15 25t31 11q15 0 30.5 -11t15.5 -25t-15.5 -25t-30.5 -11q-16 0 -31 11t-15 25zM53 546q0 14 15 25t31 11q15 0 30.5 -11t15.5 -25t-15.5 -25 t-30.5 -11q-16 0 -31 11t-15 25z" />
<glyph unicode="&#x386;" horiz-adv-x="554" d="M179 750q20 0 20 -22q0 -8 -1 -12l-45 -165q-6 -21 -20 -21q-23 0 -23 21q0 3 2 11l44 165q6 23 23 23zM50 -16q-21 0 -21 20q0 6 3 14l225 618h46l225 -618q3 -7 3 -14q0 -20 -21 -20q-14 0 -22 20l-72 200h-272l-72 -200q-9 -20 -22 -20zM160 246h240l-121 329z" />
<glyph unicode="&#x387;" horiz-adv-x="232" d="M70 387q0 14 15 25t31 11q15 0 30.5 -11t15.5 -25t-15.5 -25t-30.5 -11q-16 0 -31 11t-15 25z" />
<glyph unicode="&#x388;" horiz-adv-x="614" d="M88 750q20 0 20 -22q0 -8 -1 -12l-45 -165q-6 -21 -20 -21q-23 0 -23 21q0 3 2 11l44 165q6 23 23 23zM163 337v-295h373q29 0 29 -23q0 -19 -29 -19h-396q-19 0 -19 31v574q0 31 19 31h396q29 0 29 -23q0 -19 -29 -19h-373v-215h255q30 0 30 -23q0 -19 -30 -19h-255z " />
<glyph unicode="&#x389;" horiz-adv-x="648" d="M89 746q20 0 20 -22q0 -8 -1 -12l-45 -165q-6 -21 -20 -21q-23 0 -23 21q0 3 2 11l44 165q6 23 23 23zM162 23q0 -30 -21 -30t-21 30v589q0 31 19 31q23 0 23 -31v-248h360v248q0 31 20 31q22 0 22 -31v-589q0 -30 -20 -30q-22 0 -22 30v299h-360v-299z" />
<glyph unicode="&#x38a;" horiz-adv-x="240" d="M91 750q20 0 20 -22q0 -8 -1 -12l-45 -165q-6 -21 -20 -21q-23 0 -23 21q0 3 2 11l44 165q6 23 23 23zM156 20q0 -27 -22 -27q-20 0 -20 27v595q0 28 21 28t21 -28v-595z" />
<glyph unicode="&#x38c;" horiz-adv-x="603" d="M99 750q20 0 20 -22q0 -8 -1 -12l-45 -165q-6 -21 -20 -21q-23 0 -23 21q0 3 2 11l44 165q6 23 23 23zM316 -9q-97 0 -159.5 63t-62.5 173v182q0 110 62.5 173t159.5 63t159.5 -63t62.5 -173v-182q0 -110 -62.5 -173t-159.5 -63zM316 603q-84 0 -132 -51.5t-48 -142.5 v-182q0 -91 48 -142.5t132 -51.5t132 51.5t48 142.5v182q0 91 -48 142.5t-132 51.5z" />
<glyph unicode="&#x38e;" horiz-adv-x="612" d="M94 746q20 0 20 -22q0 -8 -1 -12l-45 -165q-6 -21 -20 -21q-23 0 -23 21q0 3 2 11l44 165q6 23 23 23zM342 310l-206 294q-7 10 -7 19q0 8 6.5 14t13.5 6q10 0 21 -16l192 -273l191 273q13 16 22 16q7 0 13.5 -6t6.5 -14q0 -9 -7 -19l-205 -294v-290q0 -27 -21 -27 q-20 0 -20 27v290z" />
<glyph unicode="&#x38f;" horiz-adv-x="607" d="M103 750q20 0 20 -22q0 -8 -1 -12l-45 -165q-6 -21 -20 -21q-23 0 -23 21q0 3 2 11l44 165q6 23 23 23zM230 109q-60 25 -95 81t-35 137v82q0 110 62.5 173t159.5 63t159.5 -63t62.5 -173v-82q0 -81 -35 -137t-95 -81v-30q0 -26 7.5 -31.5t42.5 -5.5h50q30 0 30 -21 t-30 -21h-57q-58 0 -71.5 14t-13.5 82v42q62 14 96 63t34 126v82q0 91 -48 142.5t-132 51.5t-132 -51.5t-48 -142.5v-82q0 -77 34 -125.5t96 -63.5v-42q0 -67 -14 -81.5t-71 -14.5h-57q-30 0 -30 21t30 21h50q35 0 42.5 6t7.5 32v29z" />
<glyph unicode="&#x390;" horiz-adv-x="216" d="M142 833q20 0 20 -22q0 -8 -1 -12l-45 -165q-6 -21 -20 -21q-23 0 -23 21q0 3 2 11l44 165q6 23 23 23zM119 565q0 14 15 25t31 11q15 0 30.5 -11t15.5 -25t-15.5 -25t-30.5 -11q-16 0 -31 11t-15 25zM-27 565q0 14 15 25t31 11q15 0 30.5 -11t15.5 -25t-15.5 -25 t-30.5 -11q-16 0 -31 11t-15 25zM173 0h-7q-55 0 -75 27t-20 97v314q0 30 21 30t21 -30v-332q0 -35 13 -49.5t47 -14.5q30 0 30 -22q0 -20 -30 -20z" />
<glyph unicode="&#x391;" horiz-adv-x="548" d="M44 -16q-21 0 -21 20q0 6 3 14l225 618h46l225 -618q3 -7 3 -14q0 -20 -21 -20q-14 0 -22 20l-72 200h-272l-72 -200q-9 -20 -22 -20zM154 246h240l-121 329z" />
<glyph unicode="&#x392;" horiz-adv-x="584" d="M126 42h195q47 0 73.5 3.5t49.5 17t32.5 40.5t9.5 72v29q0 45 -9.5 72t-32.5 40.5t-49.5 17t-73.5 3.5h-195v-295zM84 31v574q0 31 19 31h176q103 0 155 -32t52 -118q0 -84 -55 -119q49 -15 73 -53t24 -110v-29q0 -105 -51 -140t-156 -35h-218q-19 0 -19 31zM279 379 q90 0 127.5 21t37.5 86q0 66 -37.5 87t-127.5 21h-153v-215h153z" />
<glyph unicode="&#x393;" horiz-adv-x="536" d="M184 594q-34 0 -47 -15t-13 -50v-506q0 -30 -22 -30q-20 0 -20 30v489q0 70 20 97t75 27h305q30 0 30 -21t-30 -21h-298z" />
<glyph unicode="&#x394;" horiz-adv-x="532" d="M485 0h-438q-22 0 -22 20q0 7 3 14l215 590q7 20 23 20t23 -20l215 -590q3 -7 3 -14q0 -20 -22 -20zM456 43l-190 521l-190 -521h380z" />
<glyph unicode="&#x395;" horiz-adv-x="577" d="M126 337v-295h373q29 0 29 -23q0 -19 -29 -19h-396q-19 0 -19 31v574q0 31 19 31h396q29 0 29 -23q0 -19 -29 -19h-373v-215h255q30 0 30 -23q0 -19 -30 -19h-255z" />
<glyph unicode="&#x396;" horiz-adv-x="535" d="M46 0v44l396 550h-366q-31 0 -31 21t31 21h413v-46l-394 -548h364q30 0 30 -22q0 -20 -30 -20h-413z" />
<glyph unicode="&#x397;" horiz-adv-x="612" d="M126 23q0 -30 -21 -30t-21 30v589q0 31 19 31q23 0 23 -31v-248h360v248q0 31 20 31q22 0 22 -31v-589q0 -30 -20 -30q-22 0 -22 30v299h-360v-299z" />
<glyph unicode="&#x398;" horiz-adv-x="574" d="M203 296q-26 0 -26 22q0 21 26 21h165q29 0 29 -21q0 -9 -8 -15.5t-21 -6.5h-165zM287 -9q-97 0 -159.5 63t-62.5 173v182q0 110 62.5 173t159.5 63t159.5 -63t62.5 -173v-182q0 -110 -62.5 -173t-159.5 -63zM287 603q-84 0 -132 -51.5t-48 -142.5v-182q0 -91 48 -142.5 t132 -51.5t132 51.5t48 142.5v182q0 91 -48 142.5t-132 51.5z" />
<glyph unicode="&#x399;" horiz-adv-x="210" d="M126 20q0 -27 -22 -27q-20 0 -20 27v595q0 28 21 28t21 -28v-595z" />
<glyph unicode="&#x39a;" horiz-adv-x="497" d="M494 13q0 -8 -7 -14t-14 -6q-11 0 -21 13l-268 319l-58 -70v-235q0 -27 -22 -27q-20 0 -20 27v595q0 28 21 28t21 -28v-294l260 309q10 13 21 13q7 0 13.5 -5.5t6.5 -13.5q0 -10 -9 -21l-206 -246l272 -324q10 -10 10 -20z" />
<glyph unicode="&#x39b;" horiz-adv-x="548" d="M66 4q-9 -20 -22 -20q-21 0 -21 20q0 6 3 14l225 618h46l225 -618q3 -7 3 -14q0 -20 -21 -20q-14 0 -22 20l-209 571z" />
<glyph unicode="&#x39c;" horiz-adv-x="633" d="M316 279q-7 0 -12 6l-178 272v-534q0 -30 -21 -30t-21 30v589q0 31 19 31q15 0 26 -17l187 -284l188 284q11 17 25 17q20 0 20 -31v-589q0 -30 -22 -30q-20 0 -20 30v534l-178 -272q-5 -6 -13 -6z" />
<glyph unicode="&#x39d;" horiz-adv-x="612" d="M508 -7q-12 0 -16 7l-366 557v-534q0 -30 -21 -30t-21 30v589q0 31 19 31q15 0 26 -17l357 -542v528q0 31 20 31q22 0 22 -31v-589q0 -30 -20 -30z" />
<glyph unicode="&#x39e;" horiz-adv-x="592" d="M197 296q-26 0 -26 22q0 21 26 21h195q29 0 29 -21q0 -9 -8 -15.5t-21 -6.5h-195zM80 595q-26 0 -26 21t26 21h430q29 0 29 -23q0 -19 -29 -19h-430zM80 0q-26 0 -26 21t26 21h430q29 0 29 -23q0 -19 -29 -19h-430z" />
<glyph unicode="&#x39f;" horiz-adv-x="574" d="M287 -9q-97 0 -159.5 63t-62.5 173v182q0 110 62.5 173t159.5 63t159.5 -63t62.5 -173v-182q0 -110 -62.5 -173t-159.5 -63zM287 603q-84 0 -132 -51.5t-48 -142.5v-182q0 -91 48 -142.5t132 -51.5t132 51.5t48 142.5v182q0 91 -48 142.5t-132 51.5z" />
<glyph unicode="&#x3a0;" horiz-adv-x="602" d="M84 636h434v-613q0 -30 -20 -30q-22 0 -22 30v571h-350v-571q0 -30 -21 -30t-21 30v613z" />
<glyph unicode="&#x3a1;" horiz-adv-x="522" d="M126 20q0 -27 -22 -27q-20 0 -20 27v585q0 31 19 31h176q103 0 155 -32t52 -118q0 -73 -43.5 -111t-121.5 -38h-195v-317zM279 379q90 0 127.5 21t37.5 86q0 66 -37.5 87t-127.5 21h-153v-215h153z" />
<glyph unicode="&#x3a3;" horiz-adv-x="557" d="M29 617q0 20 26 20h430q29 0 29 -23q0 -19 -29 -19h-390l223 -258q10 -13 10 -19q0 -8 -9 -19l-224 -257h390q29 0 29 -23q0 -19 -29 -19h-436q-8 0 -14 5.5t-6 14.5t9 20l241 278l-241 279q-9 9 -9 20z" />
<glyph unicode="&#x3a4;" horiz-adv-x="460" d="M405 636q28 0 28 -22q0 -20 -28 -20h-154v-574q0 -27 -22 -27q-20 0 -20 27v574h-155q-28 0 -28 21t28 21h351z" />
<glyph unicode="&#x3a5;" horiz-adv-x="499" d="M229 310l-206 294q-7 10 -7 19q0 8 6.5 14t13.5 6q10 0 21 -16l192 -273l191 273q13 16 22 16q7 0 13.5 -6t6.5 -14q0 -9 -7 -19l-205 -294v-290q0 -27 -21 -27q-20 0 -20 27v290z" />
<glyph unicode="&#x3a6;" horiz-adv-x="530" d="M288 20q0 -27 -22 -27q-20 0 -20 27v57q-90 6 -146.5 68t-56.5 167v12q0 105 56.5 167t146.5 68v56q0 28 21 28t21 -28v-56q88 -8 143.5 -70t55.5 -165v-12q0 -103 -55.5 -165t-143.5 -70v-57zM288 119q74 7 115.5 58t41.5 135v12q0 84 -41.5 134.5t-115.5 58.5v-398z M246 119v398q-76 -6 -118.5 -57t-42.5 -136v-12q0 -86 42.5 -136.5t118.5 -56.5z" />
<glyph unicode="&#x3a7;" horiz-adv-x="537" d="M481 643q7 0 14 -6t7 -14q0 -11 -7 -19l-201 -287l201 -285q7 -11 7 -20q0 -8 -6.5 -13.5t-14.5 -5.5q-10 0 -21 14l-192 274l-191 -274q-11 -14 -22 -14q-7 0 -13.5 5.5t-6.5 13.5q0 9 7 20l201 285l-201 287q-7 8 -7 19q0 8 6.5 14t13.5 6q11 0 22 -16l191 -273 l192 273q11 16 21 16z" />
<glyph unicode="&#x3a8;" horiz-adv-x="540" d="M450 615q0 28 22 28q20 0 20 -28v-156q0 -104 -56 -166t-144 -69v-204q0 -27 -22 -27q-20 0 -20 27v204q-90 6 -146 68.5t-56 166.5v156q0 28 21 28t21 -28v-156q0 -86 42.5 -136.5t117.5 -56.5v349q0 28 21 28t21 -28v-349q75 7 116.5 57.5t41.5 135.5v156z" />
<glyph unicode="&#x3a9;" horiz-adv-x="570" d="M193 109q-60 25 -95 81t-35 137v82q0 110 62.5 173t159.5 63t159.5 -63t62.5 -173v-82q0 -81 -35 -137t-95 -81v-30q0 -26 7.5 -31.5t42.5 -5.5h50q30 0 30 -21t-30 -21h-57q-58 0 -71.5 14t-13.5 82v42q62 14 96 63t34 126v82q0 91 -48 142.5t-132 51.5t-132 -51.5 t-48 -142.5v-82q0 -77 34 -125.5t96 -63.5v-42q0 -67 -14 -81.5t-71 -14.5h-57q-30 0 -30 21t30 21h50q35 0 42.5 6t7.5 32v29z" />
<glyph unicode="&#x3aa;" horiz-adv-x="210" d="M133 743q0 14 15 25t31 11q15 0 30.5 -11t15.5 -25t-15.5 -25t-30.5 -11q-16 0 -31 11t-15 25zM-13 743q0 14 15 25t31 11q15 0 30.5 -11t15.5 -25t-15.5 -25t-30.5 -11q-16 0 -31 11t-15 25zM126 20q0 -27 -22 -27q-20 0 -20 27v595q0 28 21 28t21 -28v-595z" />
<glyph unicode="&#x3ab;" horiz-adv-x="499" d="M277 743q0 14 15 25t31 11q15 0 30.5 -11t15.5 -25t-15.5 -25t-30.5 -11q-16 0 -31 11t-15 25zM131 743q0 14 15 25t31 11q15 0 30.5 -11t15.5 -25t-15.5 -25t-30.5 -11q-16 0 -31 11t-15 25zM229 310l-206 294q-7 10 -7 19q0 8 6.5 14t13.5 6q10 0 21 -16l192 -273 l191 273q13 16 22 16q7 0 13.5 -6t6.5 -14q0 -9 -7 -19l-205 -294v-290q0 -27 -21 -27q-20 0 -20 27v290z" />
<glyph unicode="&#x3ac;" horiz-adv-x="564" d="M293 749q20 0 20 -22q0 -8 -1 -12l-45 -165q-6 -21 -20 -21q-23 0 -23 21q0 3 2 11l44 165q6 23 23 23zM505 0h-7q-42 0 -63 15t-28 51q-51 -66 -155 -66q-98 0 -145 43t-47 152v71q0 109 47 152t145 43q99 0 151 -61v38q0 30 21 30t21 -30v-332q0 -35 13 -49.5t47 -14.5 q30 0 30 -22q0 -20 -30 -20zM252 419q-85 0 -117.5 -31.5t-32.5 -121.5v-71q0 -90 32.5 -121.5t117.5 -31.5q151 0 151 153v71q0 153 -151 153z" />
<glyph unicode="&#x3ad;" horiz-adv-x="563" d="M306 742q20 0 20 -22q0 -8 -1 -12l-45 -165q-6 -21 -20 -21q-23 0 -23 21q0 3 2 11l44 165q6 23 23 23zM302 217h-86q-113 0 -113 -106q0 -69 117 -69h123q12 0 27.5 2.5t39 9.5t38.5 25t15 45q0 30 22 30q20 0 20 -30q0 -64 -45.5 -94t-109.5 -30h-137q-63 0 -107.5 30 t-44.5 94q0 76 65 114q-19 7 -31.5 15.5t-23 30t-10.5 53.5q0 64 44.5 94t107.5 30h137q64 0 109.5 -30t45.5 -94q0 -30 -20 -30q-22 0 -22 30q0 27 -15 45t-38.5 25t-38.5 9.5t-28 2.5h-123q-118 0 -118 -69q0 -54 28.5 -72.5t85.5 -18.5h86q31 0 31 -23q0 -19 -31 -19z " />
<glyph unicode="&#x3ae;" horiz-adv-x="589" d="M346 749q20 0 20 -22q0 -8 -1 -12l-45 -165q-6 -21 -20 -21q-23 0 -23 21q0 3 2 11l44 165q6 23 23 23zM282 419q-80 0 -123 -48.5t-43 -138.5v-209q0 -30 -21 -30t-21 30v414q0 31 19 31q23 0 23 -31v-48q56 72 166 72h29q105 0 156 -35t51 -140v-461q0 -30 -20 -30 q-22 0 -22 30v461q0 45 -9.5 72t-32.5 40.5t-49.5 17t-73.5 3.5h-29z" />
<glyph unicode="&#x3af;" horiz-adv-x="216" d="M145 749q20 0 20 -22q0 -8 -1 -12l-45 -165q-6 -21 -20 -21q-23 0 -23 21q0 3 2 11l44 165q6 23 23 23zM173 0h-7q-55 0 -75 27t-20 97v314q0 30 21 30t21 -30v-332q0 -35 13 -49.5t47 -14.5q30 0 30 -22q0 -20 -30 -20z" />
<glyph unicode="&#x3b0;" horiz-adv-x="583" d="M342 833q20 0 20 -22q0 -8 -1 -12l-45 -165q-6 -21 -20 -21q-23 0 -23 21q0 3 2 11l44 165q6 23 23 23zM319 565q0 14 15 25t31 11q15 0 30.5 -11t15.5 -25t-15.5 -25t-30.5 -11q-16 0 -31 11t-15 25zM173 565q0 14 15 25t31 11q15 0 30.5 -11t15.5 -25t-15.5 -25 t-30.5 -11q-16 0 -31 11t-15 25zM306 0h-28q-106 0 -157 35t-51 140v263q0 30 20 30q22 0 22 -30v-263q0 -45 9.5 -72t32.5 -40.5t49.5 -17t74.5 -3.5h28q48 0 74.5 3.5t49.5 17t32.5 40.5t9.5 72v263q0 30 21 30t21 -30v-263q0 -105 -51 -140t-157 -35z" />
<glyph unicode="&#x3b1;" horiz-adv-x="564" d="M505 0h-7q-42 0 -63 15t-28 51q-51 -66 -155 -66q-98 0 -145 43t-47 152v71q0 109 47 152t145 43q99 0 151 -61v38q0 30 21 30t21 -30v-332q0 -35 13 -49.5t47 -14.5q30 0 30 -22q0 -20 -30 -20zM252 419q-85 0 -117.5 -31.5t-32.5 -121.5v-71q0 -90 32.5 -121.5 t117.5 -31.5q151 0 151 153v71q0 153 -151 153z" />
<glyph unicode="&#x3b2;" horiz-adv-x="466" d="M117 55v-171q0 -31 -23 -31q-19 0 -19 31v577q0 55 13.5 91.5t37.5 53.5t47.5 23.5t53.5 6.5q64 0 105 -38.5t41 -100.5q0 -94 -80 -141q38 -10 64.5 -32t38.5 -49.5t17 -50.5t5 -46q0 -185 -162 -185q-84 0 -139 62zM117 118q70 -85 137 -85q20 0 35 3t38 15t36 44.5 t13 82.5q0 65 -42.5 109.5t-136.5 44.5v42q60 0 97 31t37 94q0 44 -31.5 69.5t-72.5 25.5q-27 0 -44 -4t-34 -16.5t-24.5 -40.5t-7.5 -72v-343z" />
<glyph unicode="&#x3b3;" horiz-adv-x="503" d="M50 419q-28 0 -28 21t28 21q25 0 40.5 -7.5t29 -22t28 -55.5t29 -87t40.5 -136q19 -68 31 -107h7l180 404q9 18 23 18q19 0 19 -18q0 -5 -3 -11l-206 -469v-122q0 -30 -23 -30q-19 0 -19 30v121q-89 312 -118 379q-30 71 -58 71z" />
<glyph unicode="&#x3b4;" horiz-adv-x="546" d="M452 207q0 94 -46 153t-125 59q-29 0 -61 -11t-62 -32.5t-49.5 -59t-19.5 -84.5q0 -80 51 -138t137 -58q84 0 129.5 46.5t45.5 124.5zM109 596q-13 5 -13 20q0 21 26 21h313q29 0 29 -23q0 -20 -29 -20h-224l11 -4q273 -99 273 -386q0 -98 -61 -154.5t-161 -56.5 q-56 0 -101 22.5t-71.5 58.5t-40.5 78t-14 86q0 72 40.5 125t92 75.5t100.5 22.5q54 0 96 -24q-56 76 -179 125z" />
<glyph unicode="&#x3b5;" horiz-adv-x="563" d="M302 217h-86q-113 0 -113 -106q0 -69 117 -69h123q12 0 27.5 2.5t39 9.5t38.5 25t15 45q0 30 22 30q20 0 20 -30q0 -64 -45.5 -94t-109.5 -30h-137q-63 0 -107.5 30t-44.5 94q0 76 65 114q-19 7 -31.5 15.5t-23 30t-10.5 53.5q0 64 44.5 94t107.5 30h137q64 0 109.5 -30 t45.5 -94q0 -30 -20 -30q-22 0 -22 30q0 27 -15 45t-38.5 25t-38.5 9.5t-28 2.5h-123q-118 0 -118 -69q0 -54 28.5 -72.5t85.5 -18.5h86q31 0 31 -23q0 -19 -31 -19z" />
<glyph unicode="&#x3b6;" horiz-adv-x="479" d="M273 -7q-100 0 -161 56.5t-61 154.5q0 288 284 390h-224q-29 0 -29 20q0 23 29 23h313q26 0 26 -21q0 -20 -13 -25q-4 -2 -37.5 -14t-51.5 -19.5t-54.5 -26.5t-59 -37t-52.5 -48.5t-47 -63t-29 -78t-12 -97.5q0 -78 46 -124.5t130 -46.5q44 0 69.5 -1.5t54 -8.5t43 -20 t24 -36t9.5 -57q0 -38 -24.5 -65t-45.5 -27q-8 0 -13 7t-5 14q0 10 23 27.5t23 39.5q0 55 -31.5 69.5t-123.5 14.5z" />
<glyph unicode="&#x3b7;" horiz-adv-x="589" d="M282 419q-80 0 -123 -48.5t-43 -138.5v-209q0 -30 -21 -30t-21 30v414q0 31 19 31q23 0 23 -31v-48q56 72 166 72h29q105 0 156 -35t51 -140v-461q0 -30 -20 -30q-22 0 -22 30v461q0 45 -9.5 72t-32.5 40.5t-49.5 17t-73.5 3.5h-29z" />
<glyph unicode="&#x3b8;" horiz-adv-x="504" d="M252 603q-145 0 -145 -194v-70h290v70q0 194 -145 194zM252 -9q-93 0 -140 60.5t-47 175.5v182q0 115 47 175.5t140 60.5t140 -60.5t47 -175.5v-182q0 -115 -47 -175.5t-140 -60.5zM397 296h-290v-69q0 -194 145 -194t145 194v69z" />
<glyph unicode="&#x3b9;" horiz-adv-x="216" d="M173 0h-7q-55 0 -75 27t-20 97v314q0 30 21 30t21 -30v-332q0 -35 13 -49.5t47 -14.5q30 0 30 -22q0 -20 -30 -20z" />
<glyph unicode="&#x3ba;" horiz-adv-x="437" d="M408 14q0 -7 -5.5 -14t-13.5 -7q-9 0 -20 9l-253 212v-194q0 -27 -22 -27q-20 0 -20 27v420q0 28 21 28t21 -28v-190l252 211q11 10 21 10q8 0 13.5 -7t5.5 -14q0 -11 -13 -21l-235 -197l236 -198q12 -11 12 -20z" />
<glyph unicode="&#x3bb;" horiz-adv-x="554" d="M404 69l-151 357l-185 -415q-8 -18 -23 -18q-19 0 -19 18q0 5 3 11l201 457l-22 53q-12 28 -34 45t-46 17q-29 0 -29 20q0 23 29 23q35 0 65.5 -20t44.5 -55l196 -463q12 -28 34 -45t46 -17q29 0 29 -20q0 -23 -29 -23q-35 0 -65.5 20t-44.5 55z" />
<glyph unicode="&#x3bc;" horiz-adv-x="565" d="M283 42q79 0 122.5 48t43.5 138v210q0 30 20 30q22 0 22 -30v-414q0 -31 -20 -31q-22 0 -22 31v48q-56 -72 -166 -72t-166 72v-244q0 -31 -23 -31q-19 0 -19 31v610q0 30 20 30q22 0 22 -30v-210q0 -90 43 -138t123 -48z" />
<glyph unicode="&#x3bd;" horiz-adv-x="499" d="M212 0l-181 439q-3 2 -3 10t5.5 13.5t13.5 5.5q15 0 23 -19l173 -403h7l180 404q9 18 23 18q19 0 19 -18q0 -8 -3 -11l-193 -439h-64z" />
<glyph unicode="&#x3be;" horiz-adv-x="481" d="M275 36q44 0 69.5 -1.5t54 -8.5t43 -20t24 -36t9.5 -57q0 -38 -24.5 -65t-45.5 -27q-8 0 -13 7t-5 14q0 10 23 27.5t23 39.5q0 55 -31.5 69.5t-123.5 14.5q-36 0 -63.5 3t-58.5 13.5t-51 29t-33.5 52.5t-13.5 81t24.5 94t50.5 62q-26 10 -50.5 53t-24.5 91q0 81 73 122 h-66q-26 0 -26 22q0 20 26 20h311q29 0 29 -22q0 -20 -29 -20q-277 0 -277 -122q0 -57 31 -87.5t83 -30.5h86q31 0 31 -23q0 -19 -31 -19h-86q-49 0 -81 -46.5t-32 -106.5q0 -40 19 -66.5t50.5 -37.5t56 -15t49.5 -4z" />
<glyph unicode="&#x3bf;" horiz-adv-x="568" d="M299 0h-29q-106 0 -157 35t-51 140v111q0 105 51 140t157 35h29q105 0 156 -35t51 -140v-111q0 -105 -51 -140t-156 -35zM270 42h29q47 0 73.5 3.5t49.5 17t32.5 40.5t9.5 72v111q0 45 -9.5 72t-32.5 40.5t-49.5 17t-73.5 3.5h-29q-48 0 -74.5 -3.5t-49.5 -17 t-32.5 -40.5t-9.5 -72v-111q0 -45 9.5 -72t32.5 -40.5t49.5 -17t74.5 -3.5z" />
<glyph unicode="&#x3c0;" horiz-adv-x="582" d="M419 419h-290v-396q0 -30 -21 -30t-21 30v396h-20q-28 0 -28 21t28 21h414q28 0 28 -22q0 -20 -28 -20h-20v-313q0 -35 13 -49.5t47 -14.5q30 0 30 -22q0 -20 -30 -20h-8q-55 0 -74.5 26.5t-19.5 97.5v295z" />
<glyph unicode="&#x3c1;" horiz-adv-x="570" d="M466 286q0 45 -9.5 72t-32.5 40.5t-49.5 17t-73.5 3.5h-29q-80 0 -123 -48.5t-43 -138.5v-190h195q47 0 73.5 3.5t49.5 17t32.5 40.5t9.5 72v111zM272 461h29q105 0 156 -35t51 -140v-111q0 -105 -51 -140t-156 -35h-195v-152q0 -30 -23 -30q-19 0 -19 30v368 q0 245 208 245z" />
<glyph unicode="&#x3c2;" horiz-adv-x="467" d="M90 229q0 -38 6.5 -70t21.5 -61t44.5 -45.5t70.5 -16.5q44 0 69.5 -1.5t54 -8.5t43 -20t24 -36t9.5 -57q0 -38 -24.5 -65t-45.5 -27q-8 0 -13 7t-5 14q0 10 23 27.5t23 39.5q0 55 -31.5 69.5t-123.5 14.5q-94 0 -141.5 64.5t-47.5 168.5q0 110 91 176t265 66q29 0 29 -20 q0 -23 -29 -23q-90 0 -154.5 -17.5t-97.5 -47t-47 -62t-14 -69.5z" />
<glyph unicode="&#x3c3;" horiz-adv-x="602" d="M538 461q30 0 30 -21t-30 -21h-104q72 -56 72 -166v-78q0 -105 -51 -140t-156 -35h-29q-106 0 -157 35t-51 140v111q0 105 51 140t157 35h268zM270 419q-48 0 -74.5 -3.5t-49.5 -17t-32.5 -40.5t-9.5 -72v-111q0 -45 9.5 -72t32.5 -40.5t49.5 -17t74.5 -3.5h29 q47 0 73.5 3.5t49.5 17t32.5 40.5t9.5 72v78q0 80 -48.5 123t-138.5 43h-7z" />
<glyph unicode="&#x3c4;" horiz-adv-x="455" d="M244 106q0 -35 13 -49.5t47 -14.5q30 0 30 -22q0 -20 -30 -20h-8q-55 0 -74.5 26.5t-19.5 97.5v295h-155q-28 0 -28 21t28 21h351q28 0 28 -22q0 -20 -28 -20h-154v-313z" />
<glyph unicode="&#x3c5;" horiz-adv-x="583" d="M306 0h-28q-106 0 -157 35t-51 140v263q0 30 20 30q22 0 22 -30v-263q0 -45 9.5 -72t32.5 -40.5t49.5 -17t74.5 -3.5h28q48 0 74.5 3.5t49.5 17t32.5 40.5t9.5 72v263q0 30 21 30t21 -30v-263q0 -105 -51 -140t-157 -35z" />
<glyph unicode="&#x3c6;" horiz-adv-x="608" d="M408 461q70 0 103.5 -35t33.5 -140v-111q0 -48 -13.5 -82t-32 -51.5t-51 -27.5t-58.5 -12t-66 -2v-152q0 -30 -22 -30q-20 0 -20 30v152q-105 1 -162 37.5t-57 137.5v134q0 65 28 108.5t96 43.5q30 0 30 -20q0 -22 -30 -22h-18q-32 0 -48 -34t-16 -83v-127 q0 -43 11.5 -70.5t37.5 -40.5t54 -17.5t74 -4.5v174q0 40 1 63t4 56t11.5 52t22 38t35.5 27.5t52 8.5zM413 419q-51 0 -70 -43t-19 -144v-190q40 0 62.5 1.5t48 8.5t38.5 21t21.5 39t8.5 63v111q0 85 -20.5 109t-69.5 24z" />
<glyph unicode="&#x3c7;" horiz-adv-x="487" d="M407 468q7 0 14 -6t7 -14t-6 -18l-157 -273l96 -227q12 -28 34 -45t46 -17q29 0 29 -20q0 -23 -29 -23q-35 0 -65.5 20t-44.5 55l-91 214l-159 -276q-9 -16 -21 -16q-3 0 -8 1.5t-9.5 6.5t-4.5 12q0 8 6 17l175 305l-84 199q-12 28 -34 45t-46 17q-29 0 -29 20 q0 23 29 23q35 0 65.5 -20t44.5 -55l79 -187l141 245q11 17 22 17z" />
<glyph unicode="&#x3c8;" horiz-adv-x="570" d="M465 440q0 28 22 28q20 0 20 -28v-212q0 -104 -56 -166t-144 -69v-106q0 -27 -22 -27q-20 0 -20 27v106q-90 6 -146 68.5t-56 166.5v212q0 28 21 28t21 -28v-212q0 -86 42.5 -136.5t117.5 -56.5v531q0 28 21 28t21 -28v-531q75 7 116.5 57.5t41.5 135.5v212z" />
<glyph unicode="&#x3c9;" horiz-adv-x="647" d="M324 59q-35 -66 -117 -66q-65 0 -104.5 46t-39.5 106v169q0 63 30 108.5t94 45.5q30 0 30 -20q0 -22 -30 -22q-26 0 -44.5 -15t-25.5 -38t-9.5 -39t-2.5 -28v-153q0 -54 26.5 -86t63.5 -32q105 0 105 114v101q0 30 23 30q24 0 24 -30v-101q0 -114 105 -114q37 0 63.5 32 t26.5 86v153q0 12 -2.5 28t-9.5 39t-25.5 38t-44.5 15q-30 0 -30 22q0 20 30 20q64 0 94 -45.5t30 -108.5v-169q0 -60 -39.5 -106t-104.5 -46q-81 0 -116 66z" />
<glyph unicode="&#x3ca;" horiz-adv-x="216" d="M119 565q0 14 15 25t31 11q15 0 30.5 -11t15.5 -25t-15.5 -25t-30.5 -11q-16 0 -31 11t-15 25zM-27 565q0 14 15 25t31 11q15 0 30.5 -11t15.5 -25t-15.5 -25t-30.5 -11q-16 0 -31 11t-15 25zM173 0h-7q-55 0 -75 27t-20 97v314q0 30 21 30t21 -30v-332q0 -35 13 -49.5 t47 -14.5q30 0 30 -22q0 -20 -30 -20z" />
<glyph unicode="&#x3cb;" horiz-adv-x="583" d="M318 565q0 14 15 25t31 11q15 0 30.5 -11t15.5 -25t-15.5 -25t-30.5 -11q-16 0 -31 11t-15 25zM172 565q0 14 15 25t31 11q15 0 30.5 -11t15.5 -25t-15.5 -25t-30.5 -11q-16 0 -31 11t-15 25zM306 0h-28q-106 0 -157 35t-51 140v263q0 30 20 30q22 0 22 -30v-263 q0 -45 9.5 -72t32.5 -40.5t49.5 -17t74.5 -3.5h28q48 0 74.5 3.5t49.5 17t32.5 40.5t9.5 72v263q0 30 21 30t21 -30v-263q0 -105 -51 -140t-157 -35z" />
<glyph unicode="&#x3cc;" horiz-adv-x="568" d="M309 742q20 0 20 -22q0 -8 -1 -12l-45 -165q-6 -21 -20 -21q-23 0 -23 21q0 3 2 11l44 165q6 23 23 23zM299 0h-29q-106 0 -157 35t-51 140v111q0 105 51 140t157 35h29q105 0 156 -35t51 -140v-111q0 -105 -51 -140t-156 -35zM270 42h29q47 0 73.5 3.5t49.5 17 t32.5 40.5t9.5 72v111q0 45 -9.5 72t-32.5 40.5t-49.5 17t-73.5 3.5h-29q-48 0 -74.5 -3.5t-49.5 -17t-32.5 -40.5t-9.5 -72v-111q0 -45 9.5 -72t32.5 -40.5t49.5 -17t74.5 -3.5z" />
<glyph unicode="&#x3cd;" horiz-adv-x="583" d="M316 749q20 0 20 -22q0 -8 -1 -12l-45 -165q-6 -21 -20 -21q-23 0 -23 21q0 3 2 11l44 165q6 23 23 23zM306 0h-28q-106 0 -157 35t-51 140v263q0 30 20 30q22 0 22 -30v-263q0 -45 9.5 -72t32.5 -40.5t49.5 -17t74.5 -3.5h28q48 0 74.5 3.5t49.5 17t32.5 40.5t9.5 72 v263q0 30 21 30t21 -30v-263q0 -105 -51 -140t-157 -35z" />
<glyph unicode="&#x3ce;" horiz-adv-x="647" d="M348 749q20 0 20 -22q0 -8 -1 -12l-45 -165q-6 -21 -20 -21q-23 0 -23 21q0 3 2 11l44 165q6 23 23 23zM324 59q-35 -66 -117 -66q-65 0 -104.5 46t-39.5 106v169q0 63 30 108.5t94 45.5q30 0 30 -20q0 -22 -30 -22q-26 0 -44.5 -15t-25.5 -38t-9.5 -39t-2.5 -28v-153 q0 -54 26.5 -86t63.5 -32q105 0 105 114v101q0 30 23 30q24 0 24 -30v-101q0 -114 105 -114q37 0 63.5 32t26.5 86v153q0 12 -2.5 28t-9.5 39t-25.5 38t-44.5 15q-30 0 -30 22q0 20 30 20q64 0 94 -45.5t30 -108.5v-169q0 -60 -39.5 -106t-104.5 -46q-81 0 -116 66z" />
<glyph unicode="&#x400;" horiz-adv-x="577" d="M199 799q0 6 6.5 13t14.5 7q10 0 20 -11l70 -69q11 -13 11 -22q0 -6 -6 -12.5t-14 -6.5q-11 0 -21 11l-69 69q-12 12 -12 21zM126 337v-295h373q29 0 29 -23q0 -19 -29 -19h-396q-19 0 -19 31v574q0 31 19 31h396q29 0 29 -23q0 -19 -29 -19h-373v-215h255q30 0 30 -23 q0 -19 -30 -19h-255z" />
<glyph unicode="&#x401;" horiz-adv-x="577" d="M329 743q0 14 15 25t31 11q15 0 30.5 -11t15.5 -25t-15.5 -25t-30.5 -11q-16 0 -31 11t-15 25zM183 743q0 14 15 25t31 11q15 0 30.5 -11t15.5 -25t-15.5 -25t-30.5 -11q-16 0 -31 11t-15 25zM126 337v-295h373q29 0 29 -23q0 -19 -29 -19h-396q-19 0 -19 31v574 q0 31 19 31h396q29 0 29 -23q0 -19 -29 -19h-373v-215h255q30 0 30 -23q0 -19 -30 -19h-255z" />
<glyph unicode="&#x402;" horiz-adv-x="682" d="M404 636q28 0 28 -22q0 -20 -28 -20h-153v-205q56 72 166 72q105 0 156 -35t51 -140v-367q0 -77 -25 -100.5t-77 -23.5q-31 0 -31 21t31 21q34 0 47 15t13 50v384q0 45 -9.5 72t-32.5 40.5t-49.5 17t-73.5 3.5q-80 0 -123 -48.5t-43 -138.5v-209q0 -30 -21 -30t-21 30 v571h-155q-28 0 -28 21t28 21h350z" />
<glyph unicode="&#x403;" horiz-adv-x="536" d="M391 799q0 -8 -11 -21l-70 -69q-10 -11 -20 -11q-8 0 -14.5 6.5t-6.5 12.5q0 10 12 22l69 69q10 11 21 11q8 0 14 -7t6 -13zM184 594q-34 0 -47 -15t-13 -50v-506q0 -30 -22 -30q-20 0 -20 30v489q0 70 20 97t75 27h305q30 0 30 -21t-30 -21h-298z" />
<glyph unicode="&#x404;" horiz-adv-x="570" d="M421 636q31 0 51.5 -9t29 -26t11.5 -33t3 -38q0 -31 -21 -31t-21 28q0 37 -13 52t-47 15h-134q-48 0 -74.5 -3.5t-49.5 -17t-32.5 -40.5t-9.5 -72v-107h254q30 0 30 -19q0 -23 -30 -23h-254v-137q0 -45 9.5 -72t32.5 -40.5t49.5 -17t74.5 -3.5h134q34 0 47 15.5t13 51.5 q0 28 21 28t21 -30q0 -23 -3 -39t-11.5 -33t-29 -26t-51.5 -9h-141q-106 0 -157 35t-51 140v286q0 105 51 140t157 35h141z" />
<glyph unicode="&#x405;" horiz-adv-x="570" d="M104 484q0 -42 18.5 -71.5t45.5 -36.5l217 -52q123 -31 123 -170q0 -66 -37.5 -114t-123.5 -48h-76q-52 0 -86.5 6t-64.5 24t-44 54t-14 91q0 28 23 28q20 0 20 -28q0 -86 36 -109.5t130 -23.5h93q53 0 77.5 38t24.5 82q0 51 -20.5 84t-43.5 38l-216 53q-68 16 -96 52 t-28 103q0 66 38 113t124 47h76q52 0 86 -6t64 -23.5t44 -53t14 -90.5q0 -28 -22 -28q-21 0 -21 28q0 45 -9 72t-32.5 39.5t-49.5 16t-74 3.5h-94q-53 0 -77.5 -37.5t-24.5 -80.5z" />
<glyph unicode="&#x406;" horiz-adv-x="210" d="M126 20q0 -27 -22 -27q-20 0 -20 27v595q0 28 21 28t21 -28v-595z" />
<glyph unicode="&#x407;" horiz-adv-x="210" d="M133 743q0 14 15 25t31 11q15 0 30.5 -11t15.5 -25t-15.5 -25t-30.5 -11q-16 0 -31 11t-15 25zM-13 743q0 14 15 25t31 11q15 0 30.5 -11t15.5 -25t-15.5 -25t-30.5 -11q-16 0 -31 11t-15 25zM126 20q0 -27 -22 -27q-20 0 -20 27v595q0 28 21 28t21 -28v-595z" />
<glyph unicode="&#x408;" horiz-adv-x="530" d="M241 34q48 0 74.5 3.5t49.5 17t32.5 40.5t9.5 72v448q0 28 21 28t21 -28v-448q0 -55 -14 -91t-44 -54t-64 -24t-86 -6t-86.5 6t-64.5 24t-44 54t-14 91q0 28 23 28q20 0 20 -28q0 -86 36 -109.5t130 -23.5z" />
<glyph unicode="&#x409;" horiz-adv-x="853" d="M468 35h141q81 0 123 44.5t42 117.5t-42.5 117.5t-122.5 44.5h-141v-324zM468 401h141q93 0 150 -56t57 -148q0 -93 -57 -148.5t-150 -55.5h-162q-21 0 -21 31v570h-213q-34 0 -47 -15t-13 -50v-405q0 -77 -25 -100.5t-77 -23.5q-31 0 -31 22q0 20 31 20q34 0 47 14.5 t13 49.5v406q0 70 20 97t75 27h262v-235z" />
<glyph unicode="&#x40a;" horiz-adv-x="912" d="M528 35h141q81 0 123 44.5t42 117.5t-42.5 117.5t-122.5 44.5h-141v-324zM528 401h141q93 0 150 -56t57 -148q0 -93 -57 -148.5t-150 -55.5h-162q-21 0 -21 31v335h-360v-336q0 -30 -21 -30t-21 30v589q0 31 19 31q23 0 23 -31v-211h360v211q0 31 20 31q22 0 22 -31v-211 z" />
<glyph unicode="&#x40b;" horiz-adv-x="682" d="M404 594h-153v-205q56 72 166 72q105 0 156 -35t51 -140v-263q0 -30 -20 -30q-22 0 -22 30v263q0 45 -9.5 72t-32.5 40.5t-49.5 17t-73.5 3.5q-80 0 -123 -48.5t-43 -138.5v-209q0 -30 -21 -30t-21 30v571h-155q-28 0 -28 21t28 21h350q28 0 28 -22q0 -20 -28 -20z" />
<glyph unicode="&#x40c;" horiz-adv-x="553" d="M373 741q0 -10 -8 -19l-96 -115q-12 -13 -21 -13q-7 0 -13.5 6t-6.5 14q0 11 8 20l96 115q12 13 21 13q7 0 13.5 -6t6.5 -15zM126 275v-255q0 -27 -22 -27q-20 0 -20 27v550q0 28 21 28t21 -28v-253h125q59 0 94.5 20.5t35.5 54.5v83q0 77 25 100.5t77 23.5q31 0 31 -21 t-31 -21q-34 0 -47 -15t-13 -50v-93q0 -76 -58 -105q58 -32 58 -101v-93q0 -35 13 -50t47 -15q31 0 31 -21t-31 -21q-52 0 -77 23.5t-25 100.5v83q0 31 -44.5 53t-85.5 22h-125z" />
<glyph unicode="&#x40d;" horiz-adv-x="612" d="M205 783q0 9 6.5 15t13.5 6q9 0 21 -13l96 -115q8 -9 8 -20q0 -8 -6.5 -14t-13.5 -6q-9 0 -21 13l-96 115q-8 9 -8 19zM104 -7q-20 0 -20 30v589q0 31 22 31q20 0 20 -31v-528l357 542q11 17 26 17q19 0 19 -31v-589q0 -30 -21 -30t-21 30v534l-366 -557q-4 -7 -16 -7z " />
<glyph unicode="&#x40e;" horiz-adv-x="506" d="M407 770v-22q0 -64 -18 -88t-68 -24h-117q-49 0 -67.5 24.5t-18.5 87.5v22h42v-38q0 -31 10.5 -42.5t41.5 -11.5h102q31 0 41 11.5t10 42.5v38h42zM155 36q28 0 43 31l36 81l-190 459q-3 2 -3 10t5.5 13.5t13.5 5.5q15 0 23 -19l177 -411l183 412q8 18 23 18q19 0 19 -18 q0 -5 -3 -11l-249 -567q-20 -46 -77 -46q-31 0 -51.5 9t-29 26.5t-11.5 33t-3 38.5q0 30 21 30t21 -28q0 -36 11.5 -51.5t40.5 -15.5z" />
<glyph unicode="&#x40f;" horiz-adv-x="602" d="M280 0h-196v571q0 30 20 30q22 0 22 -30v-529h350v529q0 30 21 30t21 -30v-571h-196v-62q0 -30 -21 -30t-21 30v62z" />
<glyph unicode="&#x410;" horiz-adv-x="548" d="M44 -16q-21 0 -21 20q0 6 3 14l225 618h46l225 -618q3 -7 3 -14q0 -20 -21 -20q-14 0 -22 20l-72 200h-272l-72 -200q-9 -20 -22 -20zM154 246h240l-121 329z" />
<glyph unicode="&#x411;" horiz-adv-x="534" d="M423 636q30 0 30 -21t-30 -21h-297v-133h153q90 0 148.5 -69.5t58.5 -164.5q0 -96 -58 -165t-149 -69h-176q-19 0 -19 31v612h339zM279 419h-153v-384h153q78 0 121.5 57.5t43.5 134.5t-43.5 134.5t-121.5 57.5z" />
<glyph unicode="&#x412;" horiz-adv-x="584" d="M126 42h195q47 0 73.5 3.5t49.5 17t32.5 40.5t9.5 72v29q0 45 -9.5 72t-32.5 40.5t-49.5 17t-73.5 3.5h-195v-295zM84 31v574q0 31 19 31h176q103 0 155 -32t52 -118q0 -84 -55 -119q49 -15 73 -53t24 -110v-29q0 -105 -51 -140t-156 -35h-218q-19 0 -19 31zM279 379 q90 0 127.5 21t37.5 86q0 66 -37.5 87t-127.5 21h-153v-215h153z" />
<glyph unicode="&#x413;" horiz-adv-x="536" d="M184 594q-34 0 -47 -15t-13 -50v-506q0 -30 -22 -30q-20 0 -20 30v489q0 70 20 97t75 27h305q30 0 30 -21t-30 -21h-298z" />
<glyph unicode="&#x414;" horiz-adv-x="549" d="M52 -62q0 -30 -21 -30t-21 30v52q0 52 46 52h13q31 52 66 246t35 348h280v-594h14q46 0 46 -52v-52q0 -30 -21 -30t-21 30v62h-416v-62zM408 594h-197q0 -131 -33.5 -316.5t-62.5 -235.5h293v552z" />
<glyph unicode="&#x415;" horiz-adv-x="577" d="M126 337v-295h373q29 0 29 -23q0 -19 -29 -19h-396q-19 0 -19 31v574q0 31 19 31h396q29 0 29 -23q0 -19 -29 -19h-373v-215h255q30 0 30 -23q0 -19 -30 -19h-255z" />
<glyph unicode="&#x416;" horiz-adv-x="648" d="M304 317v253q0 28 21 28t21 -28v-253q59 0 94.5 20.5t35.5 54.5v83q0 77 25 100.5t77 23.5q31 0 31 -21t-31 -21q-34 0 -47 -15t-13 -50v-93q0 -76 -58 -105q58 -32 58 -101v-93q0 -35 13 -50t47 -15q31 0 31 -21t-31 -21q-52 0 -77 23.5t-25 100.5v83q0 31 -44.5 52.5 t-85.5 22.5v-255q0 -27 -22 -27q-20 0 -20 27v255q-60 0 -96 -20.5t-36 -54.5v-83q0 -77 -25 -100.5t-77 -23.5q-31 0 -31 21t31 21q34 0 47 15t13 50v93q0 72 63 103q-63 31 -63 103v93q0 35 -13 50t-47 15q-31 0 -31 21t31 21q52 0 77 -23.5t25 -100.5v-83q0 -34 36 -54.5 t96 -20.5z" />
<glyph unicode="&#x417;" horiz-adv-x="563" d="M258 349h86q47 0 80 34.5t33 88.5q0 40 -33 81t-84 41h-183q-34 0 -47 -14.5t-13 -49.5v-18q0 -30 -22 -30q-20 0 -20 30q0 70 20 97t75 27h197q64 0 108 -47t44 -117q0 -48 -21.5 -86t-57.5 -59q36 -23 57.5 -63.5t21.5 -89.5q0 -70 -44.5 -122t-107.5 -52h-197 q-55 0 -75 27t-20 97q0 30 20 30q22 0 22 -30v-18q0 -35 13 -49.5t47 -14.5h183q51 0 84 45t33 87q0 55 -33 94t-80 39h-86q-31 0 -31 21t31 21z" />
<glyph unicode="&#x418;" horiz-adv-x="612" d="M104 -7q-20 0 -20 30v589q0 31 22 31q20 0 20 -31v-528l357 542q11 17 26 17q19 0 19 -31v-589q0 -30 -21 -30t-21 30v534l-366 -557q-4 -7 -16 -7z" />
<glyph unicode="&#x419;" horiz-adv-x="612" d="M449 770v-22q0 -64 -18 -88t-68 -24h-117q-49 0 -67.5 24.5t-18.5 87.5v22h42v-38q0 -31 10.5 -42.5t41.5 -11.5h102q31 0 41 11.5t10 42.5v38h42zM104 -7q-20 0 -20 30v589q0 31 22 31q20 0 20 -31v-528l357 542q11 17 26 17q19 0 19 -31v-589q0 -30 -21 -30t-21 30v534 l-366 -557q-4 -7 -16 -7z" />
<glyph unicode="&#x41a;" horiz-adv-x="553" d="M126 275v-255q0 -27 -22 -27q-20 0 -20 27v550q0 28 21 28t21 -28v-253h125q59 0 94.5 20.5t35.5 54.5v83q0 77 25 100.5t77 23.5q31 0 31 -21t-31 -21q-34 0 -47 -15t-13 -50v-93q0 -76 -58 -105q58 -32 58 -101v-93q0 -35 13 -50t47 -15q31 0 31 -21t-31 -21 q-52 0 -77 23.5t-25 100.5v83q0 31 -44.5 53t-85.5 22h-125z" />
<glyph unicode="&#x41b;" horiz-adv-x="552" d="M468 24q0 -31 -22 -31q-20 0 -20 31v570h-213q-34 0 -47 -15t-13 -50v-405q0 -77 -25 -100.5t-77 -23.5q-31 0 -31 22q0 20 31 20q34 0 47 14.5t13 49.5v406q0 70 20 97t75 27h262v-612z" />
<glyph unicode="&#x41c;" horiz-adv-x="633" d="M316 279q-7 0 -12 6l-178 272v-534q0 -30 -21 -30t-21 30v589q0 31 19 31q15 0 26 -17l187 -284l188 284q11 17 25 17q20 0 20 -31v-589q0 -30 -22 -30q-20 0 -20 30v534l-178 -272q-5 -6 -13 -6z" />
<glyph unicode="&#x41d;" horiz-adv-x="612" d="M126 23q0 -30 -21 -30t-21 30v589q0 31 19 31q23 0 23 -31v-248h360v248q0 31 20 31q22 0 22 -31v-589q0 -30 -20 -30q-22 0 -22 30v299h-360v-299z" />
<glyph unicode="&#x41e;" horiz-adv-x="574" d="M287 -9q-97 0 -159.5 63t-62.5 173v182q0 110 62.5 173t159.5 63t159.5 -63t62.5 -173v-182q0 -110 -62.5 -173t-159.5 -63zM287 603q-84 0 -132 -51.5t-48 -142.5v-182q0 -91 48 -142.5t132 -51.5t132 51.5t48 142.5v182q0 91 -48 142.5t-132 51.5z" />
<glyph unicode="&#x41f;" horiz-adv-x="602" d="M84 636h434v-613q0 -30 -20 -30q-22 0 -22 30v571h-350v-571q0 -30 -21 -30t-21 30v613z" />
<glyph unicode="&#x420;" horiz-adv-x="522" d="M126 20q0 -27 -22 -27q-20 0 -20 27v585q0 31 19 31h176q103 0 155 -32t52 -118q0 -73 -43.5 -111t-121.5 -38h-195v-317zM279 379q90 0 127.5 21t37.5 86q0 66 -37.5 87t-127.5 21h-153v-215h153z" />
<glyph unicode="&#x421;" horiz-adv-x="572" d="M421 0h-141q-106 0 -157 35t-51 140v286q0 105 51 140t157 35h141q31 0 51.5 -9t29 -26t11.5 -33t3 -39q0 -30 -21 -30t-21 28q0 36 -13 51.5t-47 15.5h-134q-48 0 -74.5 -3.5t-49.5 -17t-32.5 -40.5t-9.5 -72v-286q0 -45 9.5 -72t32.5 -40.5t49.5 -17t74.5 -3.5h134 q34 0 47 15t13 52q0 28 21 28t21 -31q0 -22 -3 -38t-11.5 -33t-29 -26t-51.5 -9z" />
<glyph unicode="&#x422;" horiz-adv-x="460" d="M405 636q28 0 28 -22q0 -20 -28 -20h-154v-574q0 -27 -22 -27q-20 0 -20 27v574h-155q-28 0 -28 21t28 21h351z" />
<glyph unicode="&#x423;" horiz-adv-x="506" d="M155 36q28 0 43 31l36 81l-190 459q-3 2 -3 10t5.5 13.5t13.5 5.5q15 0 23 -19l177 -411l183 412q8 18 23 18q19 0 19 -18q0 -5 -3 -11l-249 -567q-20 -46 -77 -46q-31 0 -51.5 9t-29 26.5t-11.5 33t-3 38.5q0 30 21 30t21 -28q0 -36 11.5 -51.5t40.5 -15.5z" />
<glyph unicode="&#x424;" horiz-adv-x="530" d="M288 20q0 -27 -22 -27q-20 0 -20 27v57q-90 6 -146.5 68t-56.5 167v12q0 105 56.5 167t146.5 68v56q0 28 21 28t21 -28v-56q88 -8 143.5 -70t55.5 -165v-12q0 -103 -55.5 -165t-143.5 -70v-57zM288 119q74 7 115.5 58t41.5 135v12q0 84 -41.5 134.5t-115.5 58.5v-398z M246 119v398q-76 -6 -118.5 -57t-42.5 -136v-12q0 -86 42.5 -136.5t118.5 -56.5z" />
<glyph unicode="&#x425;" horiz-adv-x="537" d="M481 643q7 0 14 -6t7 -14q0 -11 -7 -19l-201 -287l201 -285q7 -11 7 -20q0 -8 -6.5 -13.5t-14.5 -5.5q-10 0 -21 14l-192 274l-191 -274q-11 -14 -22 -14q-7 0 -13.5 5.5t-6.5 13.5q0 9 7 20l201 285l-201 287q-7 8 -7 19q0 8 6.5 14t13.5 6q11 0 22 -16l191 -273 l192 273q11 16 21 16z" />
<glyph unicode="&#x426;" horiz-adv-x="558" d="M518 -62q0 -30 -21 -30t-21 30v62h-392v571q0 30 20 30q22 0 22 -30v-529h292v529q0 30 21 30t21 -30v-529h12q46 0 46 -52v-52z" />
<glyph unicode="&#x427;" horiz-adv-x="585" d="M293 217q80 0 123 48.5t43 138.5v209q0 30 21 30t21 -30v-589q0 -31 -19 -31q-23 0 -23 31v223q-56 -72 -166 -72h-29q-105 0 -156 35t-51 140v263q0 30 20 30q22 0 22 -30v-263q0 -45 9.5 -72t32.5 -40.5t49.5 -17t73.5 -3.5h29z" />
<glyph unicode="&#x428;" horiz-adv-x="674" d="M84 0v571q0 30 20 30q22 0 22 -30v-529h190v529q0 30 20 30q22 0 22 -30v-529h190v529q0 30 21 30t21 -30v-571h-506z" />
<glyph unicode="&#x429;" horiz-adv-x="688" d="M316 571q0 30 20 30q22 0 22 -30v-529h190v529q0 30 21 30t21 -30v-529h12q46 0 46 -52v-52q0 -30 -21 -30t-21 30v62h-522v571q0 30 20 30q22 0 22 -30v-529h190v529z" />
<glyph unicode="&#x42a;" horiz-adv-x="595" d="M155 594h-101q-31 0 -31 23q0 19 31 19h143v-175h153q90 0 148.5 -69.5t58.5 -164.5q0 -96 -58 -165t-149 -69h-176q-19 0 -19 31v570zM350 419h-153v-384h153q78 0 121.5 57.5t43.5 134.5t-43.5 134.5t-121.5 57.5z" />
<glyph unicode="&#x42b;" horiz-adv-x="663" d="M579 20q0 -27 -22 -27q-20 0 -20 27v595q0 28 21 28t21 -28v-595zM279 461q90 0 148.5 -69.5t58.5 -164.5q0 -96 -58 -165t-149 -69h-176q-19 0 -19 31v585q0 27 20 27q22 0 22 -27v-148h153zM279 419h-153v-384h153q78 0 121.5 57.5t43.5 134.5t-43.5 134.5t-121.5 57.5 z" />
<glyph unicode="&#x42c;" horiz-adv-x="524" d="M279 461q90 0 148.5 -69.5t58.5 -164.5q0 -96 -58 -165t-149 -69h-176q-19 0 -19 31v585q0 27 20 27q22 0 22 -27v-148h153zM279 419h-153v-384h153q78 0 121.5 57.5t43.5 134.5t-43.5 134.5t-121.5 57.5z" />
<glyph unicode="&#x42d;" horiz-adv-x="570" d="M149 636h141q106 0 157 -35t51 -140v-286q0 -105 -51 -140t-157 -35h-141q-31 0 -51.5 9t-29 26t-11.5 33t-3 39q0 30 21 30t21 -28q0 -36 13 -51.5t47 -15.5h134q48 0 74.5 3.5t49.5 17t32.5 40.5t9.5 72v137h-254q-30 0 -30 23q0 19 30 19h254v107q0 45 -9.5 72 t-32.5 40.5t-49.5 17t-74.5 3.5h-134q-34 0 -47 -15t-13 -52q0 -28 -21 -28t-21 31q0 22 3 38t11.5 33t29 26t51.5 9z" />
<glyph unicode="&#x42e;" horiz-adv-x="700" d="M413 603q-84 0 -132 -51.5t-48 -142.5v-182q0 -91 48 -142.5t132 -51.5t132 51.5t48 142.5v182q0 91 -48 142.5t-132 51.5zM413 -9q-97 0 -159.5 63t-62.5 173v75h-65v-282q0 -27 -22 -27q-20 0 -20 27v595q0 28 21 28t21 -28v-271h65v65q0 110 62.5 173t159.5 63 t159.5 -63t62.5 -173v-182q0 -110 -62.5 -173t-159.5 -63z" />
<glyph unicode="&#x42f;" horiz-adv-x="564" d="M292 341h146v253h-146q-85 0 -125 -29.5t-40 -97.5t40 -97t125 -29zM204 308q-119 31 -119 159q0 169 207 169h169q19 0 19 -31v-585q0 -27 -20 -27q-22 0 -22 27v279h-130q-98 0 -122 -85l-28 -104q-14 -53 -47 -85t-74 -32q-31 0 -31 21t31 21q27 0 48 23t28 46l31 114 q14 56 60 90z" />
<glyph unicode="&#x430;" horiz-adv-x="534" d="M268 248q-48 0 -74.5 -3.5t-49.5 -17t-32.5 -40.5t-9.5 -72q0 -28 18.5 -50.5t41.5 -22.5h93q79 0 122 48t43 138v20h-152zM268 290h152v64q0 35 -13 50t-47 15h-141q-117 0 -117 -65q0 -30 -22 -30q-20 0 -20 30q0 54 42.5 80.5t109.5 26.5h155q55 0 75 -27t20 -97v-314 q0 -30 -21 -30t-21 30v49q-54 -72 -165 -72h-93q-45 0 -73.5 32.5t-28.5 87.5q0 42 10 73t27 49.5t44 29t57 14.5t70 4z" />
<glyph unicode="&#x431;" horiz-adv-x="577" d="M113 419v-244q0 -45 9.5 -72t32.5 -40.5t49.5 -17t73.5 -3.5h30q47 0 73.5 3.5t49.5 17t32.5 40.5t9.5 72v111q0 45 -9.5 72t-32.5 40.5t-49.5 17t-73.5 3.5h-195zM114 461h194q105 0 156 -35t51 -140v-111q0 -105 -51 -140t-156 -35h-30q-105 0 -156 35t-51 140v282 q0 50 16 83t41.5 52t77 29t101.5 12.5t135 2.5q31 0 31 -23q0 -19 -31 -19q-53 0 -83 -0.5t-67.5 -2t-58 -5.5t-44 -10.5t-35 -16t-22 -23.5t-14.5 -32.5t-4 -42.5z" />
<glyph unicode="&#x432;" horiz-adv-x="583" d="M75 461h292q63 0 107.5 -30t44.5 -94q0 -46 -17.5 -66.5t-47.5 -32.5q65 -38 65 -114q0 -64 -44.5 -94t-107.5 -30h-292v461zM117 42h243q117 0 117 69q0 106 -113 106h-247v-175zM117 259h247q57 0 85.5 18.5t28.5 72.5q0 69 -118 69h-243v-160z" />
<glyph unicode="&#x433;" horiz-adv-x="458" d="M175 419q-34 0 -47 -15t-13 -50v-331q0 -30 -22 -30q-20 0 -20 30v314q0 70 20 97t75 27h244q30 0 30 -21t-30 -21h-237z" />
<glyph unicode="&#x434;" horiz-adv-x="534" d="M52 -62q0 -30 -21 -30t-21 30v52q0 52 46 52h13q101 170 101 419h246v-419h48q46 0 46 -52v-52q0 -30 -21 -30t-21 30v62h-416v-62zM374 419h-163q0 -209 -96 -377h259v377z" />
<glyph unicode="&#x435;" horiz-adv-x="566" d="M506 286v-36h-402v-75q0 -45 9.5 -72t32.5 -40.5t49.5 -17t74.5 -3.5h134q34 0 47 15t13 52q0 28 21 28t21 -31q0 -22 -3 -38t-11.5 -33t-29 -26t-51.5 -9h-141q-106 0 -157 35t-51 140v111q0 105 51 140t157 35h29q105 0 156 -35t51 -140zM299 419h-29q-92 0 -129 -23 t-37 -104h360q0 81 -37 104t-128 23z" />
<glyph unicode="&#x436;" horiz-adv-x="644" d="M302 252v188q0 28 21 28t21 -28v-188q130 0 130 65v28q0 77 25 100.5t77 23.5q31 0 31 -21t-31 -21q-34 0 -47 -15t-13 -50v-28q0 -76 -58 -105q58 -32 58 -101v-28q0 -35 13 -50t47 -15q31 0 31 -21t-31 -21q-52 0 -77 23.5t-25 100.5v28q0 30 -43 47t-87 18v-190 q0 -27 -22 -27q-20 0 -20 27v190q-132 0 -132 -65v-28q0 -77 -25 -100.5t-77 -23.5q-31 0 -31 21t31 21q34 0 47 15t13 50v28q0 72 63 103q-63 31 -63 103v28q0 35 -13 50t-47 15q-31 0 -31 21t31 21q52 0 77 -23.5t25 -100.5v-28q0 -65 132 -65z" />
<glyph unicode="&#x437;" horiz-adv-x="566" d="M261 217q-31 0 -31 19q0 23 31 23h86q57 0 85.5 18.5t28.5 72.5q0 69 -118 69h-183q-34 0 -47 -14.5t-13 -49.5v-18q0 -30 -22 -30q-20 0 -20 30q0 70 20 97t75 27h197q64 0 108 -30t44 -94q0 -46 -17.5 -66.5t-47.5 -32.5q65 -38 65 -114q0 -64 -44 -94t-108 -30h-197 q-55 0 -75 27t-20 97q0 30 20 30q22 0 22 -30v-18q0 -35 13 -49.5t47 -14.5h183q117 0 117 69q0 106 -113 106h-86z" />
<glyph unicode="&#x438;" horiz-adv-x="583" d="M509 461v-437q0 -31 -20 -31q-22 0 -22 31v379l-343 -403h-49v437q0 31 20 31q22 0 22 -31v-383l346 407h46z" />
<glyph unicode="&#x439;" horiz-adv-x="583" d="M442 636v-22q0 -64 -18 -88t-68 -24h-117q-49 0 -67.5 24.5t-18.5 87.5v22h42v-38q0 -31 10.5 -42.5t41.5 -11.5h102q31 0 41 11.5t10 42.5v38h42zM509 461v-437q0 -31 -20 -31q-22 0 -22 31v379l-343 -403h-49v437q0 31 20 31q22 0 22 -31v-383l346 407h46z" />
<glyph unicode="&#x43a;" horiz-adv-x="538" d="M185 210h-69v-190q0 -27 -22 -27q-20 0 -20 27v420q0 28 21 28t21 -28v-188h69q39 0 79.5 9.5t74 34t33.5 59.5q0 69 25.5 91.5t76.5 22.5q31 0 31 -21t-31 -21q-34 0 -47 -15t-13 -50v-20q0 -38 -45 -73t-78 -40q33 -5 78 -39t45 -70v-20q0 -35 13 -50t47 -15 q31 0 31 -21t-31 -21q-51 0 -76.5 22.5t-25.5 91.5q0 33 -33 57.5t-74.5 35t-79.5 10.5z" />
<glyph unicode="&#x43b;" horiz-adv-x="546" d="M472 24q0 -31 -22 -31q-20 0 -20 31v395h-213q-34 0 -47 -15t-13 -50v-230q0 -77 -25 -100.5t-77 -23.5q-31 0 -31 22q0 20 31 20q34 0 47 14.5t13 49.5v231q0 70 20 97t75 27h262v-437z" />
<glyph unicode="&#x43c;" horiz-adv-x="613" d="M306 104q-7 0 -12 6l-178 272v-359q0 -30 -21 -30t-21 30v414q0 31 19 31q15 0 26 -17l187 -284l188 284q11 17 25 17q20 0 20 -31v-414q0 -30 -22 -30q-20 0 -20 30v359l-178 -272q-5 -6 -13 -6z" />
<glyph unicode="&#x43d;" horiz-adv-x="582" d="M116 23q0 -30 -21 -30t-21 30v414q0 31 19 31q23 0 23 -31v-172h350v172q0 31 20 31q22 0 22 -31v-414q0 -30 -20 -30q-22 0 -22 30v200h-350v-200z" />
<glyph unicode="&#x43e;" horiz-adv-x="568" d="M299 0h-29q-106 0 -157 35t-51 140v111q0 105 51 140t157 35h29q105 0 156 -35t51 -140v-111q0 -105 -51 -140t-156 -35zM270 42h29q47 0 73.5 3.5t49.5 17t32.5 40.5t9.5 72v111q0 45 -9.5 72t-32.5 40.5t-49.5 17t-73.5 3.5h-29q-48 0 -74.5 -3.5t-49.5 -17 t-32.5 -40.5t-9.5 -72v-111q0 -45 9.5 -72t32.5 -40.5t49.5 -17t74.5 -3.5z" />
<glyph unicode="&#x43f;" horiz-adv-x="582" d="M74 461h434v-438q0 -30 -20 -30q-22 0 -22 30v396h-350v-396q0 -30 -21 -30t-21 30v438z" />
<glyph unicode="&#x440;" horiz-adv-x="581" d="M477 286q0 45 -9.5 72t-32.5 40.5t-49.5 17t-73.5 3.5h-29q-80 0 -123 -48.5t-43 -138.5v-190h195q47 0 73.5 3.5t49.5 17t32.5 40.5t9.5 72v111zM519 175q0 -105 -51 -140t-156 -35h-195v-152q0 -30 -23 -30q-19 0 -19 30v590q0 30 21 30t21 -30v-49q56 72 166 72h29 q105 0 156 -35t51 -140v-111z" />
<glyph unicode="&#x441;" horiz-adv-x="564" d="M411 0h-141q-106 0 -157 35t-51 140v111q0 105 51 140t157 35h141q31 0 51.5 -9t29 -26.5t11.5 -33t3 -38.5q0 -30 -21 -30t-21 28q0 36 -13 51.5t-47 15.5h-134q-48 0 -74.5 -3.5t-49.5 -17t-32.5 -40.5t-9.5 -72v-111q0 -45 9.5 -72t32.5 -40.5t49.5 -17t74.5 -3.5h134 q34 0 47 15t13 52q0 28 21 28t21 -31q0 -22 -3 -38t-11.5 -33t-29 -26t-51.5 -9z" />
<glyph unicode="&#x442;" horiz-adv-x="437" d="M394 461q28 0 28 -22q0 -20 -28 -20h-154v-399q0 -27 -22 -27q-20 0 -20 27v399h-155q-28 0 -28 21t28 21h351z" />
<glyph unicode="&#x443;" horiz-adv-x="589" d="M514 -92q0 -64 -18 -88.5t-68 -24.5h-263q-31 0 -51.5 9t-29 26.5t-11.5 33t-3 38.5q0 30 21 30t21 -28q0 -36 13 -51.5t47 -15.5h249q31 0 41 11.5t10 43.5v180q-54 -72 -165 -72h-29q-106 0 -157 35t-51 140v261q0 32 21 32t21 -32v-261q0 -45 9.5 -72t32.5 -40.5 t49.5 -17t74.5 -3.5h29q79 0 122 48t43 138v208q0 32 22 32q20 0 20 -32v-528z" />
<glyph unicode="&#x444;" horiz-adv-x="750" d="M647 195v71q0 25 -1.5 43t-8.5 40.5t-19 36t-35 23.5t-55 10q-71 0 -101.5 -55.5t-30.5 -132.5t30.5 -133t101.5 -56q32 0 55 10t35 23.5t19 36t8.5 40.5t1.5 43zM103 195q0 -25 1.5 -43t8.5 -40.5t19 -36t35 -23.5t55 -10q71 0 101.5 56t30.5 133t-30.5 132.5 t-101.5 55.5q-32 0 -55 -10t-35 -23.5t-19 -36t-8.5 -40.5t-1.5 -43v-71zM396 -152q0 -30 -21 -30t-21 30v224q-30 -39 -58 -55.5t-74 -16.5q-161 0 -161 195v71q0 195 161 195q46 0 74 -16.5t58 -55.5v224q0 30 21 30t21 -30v-224q30 39 58 55.5t74 16.5q161 0 161 -195 v-71q0 -195 -161 -195q-46 0 -74 16.5t-58 55.5v-224z" />
<glyph unicode="&#x445;" horiz-adv-x="488" d="M450 8q0 -8 -6.5 -13.5t-13.5 -5.5q-10 0 -20 12l-165 197l-166 -197q-11 -12 -21 -12q-7 0 -13.5 5.5t-6.5 13.5q0 7 9 21l170 201l-170 203q-9 11 -9 20q0 8 6.5 13.5t13.5 5.5q10 0 21 -12l166 -197l165 197q10 12 20 12q7 0 13.5 -5.5t6.5 -13.5q0 -9 -9 -20 l-170 -203l170 -201q9 -14 9 -21z" />
<glyph unicode="&#x446;" horiz-adv-x="541" d="M509 -62q0 -30 -21 -30t-21 30v62h-392v438q0 30 20 30q22 0 22 -30v-396h292v396q0 30 21 30t21 -30v-396h12q46 0 46 -52v-52z" />
<glyph unicode="&#x447;" horiz-adv-x="567" d="M285 175q80 0 123 48.5t43 138.5v76q0 30 21 30t21 -30v-414q0 -31 -19 -31q-23 0 -23 31v181q-56 -72 -166 -72h-29q-105 0 -156 35t-51 140v130q0 30 20 30q22 0 22 -30v-130q0 -45 9.5 -72t32.5 -40.5t49.5 -17t73.5 -3.5h29z" />
<glyph unicode="&#x448;" horiz-adv-x="616" d="M75 0v438q0 30 20 30q22 0 22 -30v-396h170v396q0 30 20 30q22 0 22 -30v-396h170v396q0 30 21 30t21 -30v-438h-466z" />
<glyph unicode="&#x449;" horiz-adv-x="631" d="M287 438q0 30 20 30q22 0 22 -30v-396h170v396q0 30 21 30t21 -30v-396h12q46 0 46 -52v-52q0 -30 -21 -30t-21 30v62h-482v438q0 30 20 30q22 0 22 -30v-396h170v396z" />
<glyph unicode="&#x44a;" horiz-adv-x="556" d="M361 42q118 0 118 88q0 16 -3 28t-13.5 27t-36 23.5t-65.5 8.5h-164v-175h164zM155 0v419h-101q-31 0 -31 23q0 19 31 19h143v-202h171q63 0 107.5 -29.5t44.5 -99.5q0 -71 -44.5 -100.5t-107.5 -29.5h-213z" />
<glyph unicode="&#x44b;" horiz-adv-x="662" d="M588 20q0 -27 -22 -27q-20 0 -20 27v420q0 28 21 28t21 -28v-420zM322 42q118 0 118 88q0 16 -3 28t-13.5 27t-36 23.5t-65.5 8.5h-205v-175h205zM75 0v437q0 31 20 31q22 0 22 -31v-178h212q63 0 107.5 -29.5t44.5 -99.5q0 -71 -44.5 -100.5t-107.5 -29.5h-254z" />
<glyph unicode="&#x44c;" horiz-adv-x="516" d="M322 42q118 0 118 88q0 16 -3 28t-13.5 27t-36 23.5t-65.5 8.5h-205v-175h205zM75 0v437q0 31 20 31q22 0 22 -31v-178h212q63 0 107.5 -29.5t44.5 -99.5q0 -71 -44.5 -100.5t-107.5 -29.5h-254z" />
<glyph unicode="&#x44d;" horiz-adv-x="563" d="M152 461h141q106 0 157 -35t51 -140v-111q0 -105 -51 -140t-157 -35h-141q-31 0 -51.5 9t-29 26.5t-11.5 33t-3 38.5q0 30 21 30t21 -28q0 -36 13 -51.5t47 -15.5h134q48 0 74.5 3.5t49.5 17t32.5 40.5t9.5 72v42h-199q-31 0 -31 19q0 23 31 23h199v27q0 45 -9.5 72 t-32.5 40.5t-49.5 17t-74.5 3.5h-134q-34 0 -47 -15t-13 -52q0 -28 -21 -28t-21 31q0 22 3 38t11.5 33t29 26t51.5 9z" />
<glyph unicode="&#x44e;" horiz-adv-x="668" d="M116 20q0 -27 -22 -27q-20 0 -20 27v420q0 28 21 28t21 -28v-181h75v27q0 105 51 140t157 35q105 0 156 -35t51 -140v-111q0 -105 -51 -140t-156 -35q-106 0 -157 35t-51 140v42h-75v-197zM399 42q47 0 73.5 3.5t49.5 17t32.5 40.5t9.5 72v111q0 45 -9.5 72t-32.5 40.5 t-49.5 17t-73.5 3.5q-48 0 -74.5 -3.5t-49.5 -17t-32.5 -40.5t-9.5 -72v-111q0 -45 9.5 -72t32.5 -40.5t49.5 -17t74.5 -3.5z" />
<glyph unicode="&#x44f;" horiz-adv-x="532" d="M82 328q0 37 10 62t25.5 39t44.5 21t56 9t71 2h149q19 0 19 -31v-410q0 -27 -20 -27q-22 0 -22 27v182h-120q-55 0 -83 -23t-41 -70q-15 -52 -47.5 -84.5t-73.5 -32.5q-31 0 -31 21t31 21q27 0 48 23t28 46l5 18q14 53 55 86q-56 8 -80 35.5t-24 85.5zM258 244h157v175 h-157q-77 0 -105.5 -15t-28.5 -73t28.5 -72.5t105.5 -14.5z" />
<glyph unicode="&#x450;" horiz-adv-x="566" d="M181 657q0 9 6.5 15t13.5 6q9 0 21 -13l96 -115q8 -9 8 -20q0 -8 -6.5 -14t-13.5 -6q-9 0 -21 13l-96 115q-8 9 -8 19zM506 286v-36h-402v-75q0 -45 9.5 -72t32.5 -40.5t49.5 -17t74.5 -3.5h134q34 0 47 15t13 52q0 28 21 28t21 -31q0 -22 -3 -38t-11.5 -33t-29 -26 t-51.5 -9h-141q-106 0 -157 35t-51 140v111q0 105 51 140t157 35h29q105 0 156 -35t51 -140zM299 419h-29q-92 0 -129 -23t-37 -104h360q0 81 -37 104t-128 23z" />
<glyph unicode="&#x451;" horiz-adv-x="566" d="M312 558q0 14 15 25t31 11q15 0 30.5 -11t15.5 -25t-15.5 -25t-30.5 -11q-16 0 -31 11t-15 25zM166 558q0 14 15 25t31 11q15 0 30.5 -11t15.5 -25t-15.5 -25t-30.5 -11q-16 0 -31 11t-15 25zM506 286v-36h-402v-75q0 -45 9.5 -72t32.5 -40.5t49.5 -17t74.5 -3.5h134 q34 0 47 15t13 52q0 28 21 28t21 -31q0 -22 -3 -38t-11.5 -33t-29 -26t-51.5 -9h-141q-106 0 -157 35t-51 140v111q0 105 51 140t157 35h29q105 0 156 -35t51 -140zM299 419h-29q-92 0 -129 -23t-37 -104h360q0 81 -37 104t-128 23z" />
<glyph unicode="&#x452;" horiz-adv-x="589" d="M518 -81q0 -77 -25 -100.5t-77 -23.5q-31 0 -31 21t31 21q34 0 47 15t13 50v384q0 45 -9.5 72t-32.5 40.5t-49.5 17t-73.5 3.5h-29q-80 0 -123 -48.5t-43 -138.5v-209q0 -30 -21 -30t-21 30v487q-25 0 -25 22q0 21 25 21v59q0 31 19 31q23 0 23 -31v-59h204q29 0 29 -23 q0 -20 -29 -20h-204v-121q56 72 166 72h29q105 0 156 -35t51 -140v-367z" />
<glyph unicode="&#x453;" horiz-adv-x="458" d="M376 657q0 -10 -8 -19l-96 -115q-12 -13 -21 -13q-7 0 -13.5 6t-6.5 14q0 11 8 20l96 115q12 13 21 13q7 0 13.5 -6t6.5 -15zM175 419q-34 0 -47 -15t-13 -50v-331q0 -30 -22 -30q-20 0 -20 30v314q0 70 20 97t75 27h244q30 0 30 -21t-30 -21h-237z" />
<glyph unicode="&#x454;" horiz-adv-x="563" d="M411 461q31 0 51.5 -9t29 -26t11.5 -33t3 -38q0 -31 -21 -31t-21 28q0 37 -13 52t-47 15h-134q-48 0 -74.5 -3.5t-49.5 -17t-32.5 -40.5t-9.5 -72v-27h199q31 0 31 -23q0 -19 -31 -19h-199v-42q0 -45 9.5 -72t32.5 -40.5t49.5 -17t74.5 -3.5h134q34 0 47 15.5t13 51.5 q0 28 21 28t21 -30q0 -23 -3 -38.5t-11.5 -33t-29 -26.5t-51.5 -9h-141q-106 0 -157 35t-51 140v111q0 105 51 140t157 35h141z" />
<glyph unicode="&#x455;" horiz-adv-x="566" d="M155 0q-31 0 -51.5 9t-29 26t-11.5 33t-3 38q0 31 21 31t21 -28q0 -37 13 -52t47 -15h238q64 0 64 81q0 42 -18 67t-46 25h-216q-124 0 -124 128q0 58 28.5 88t95.5 30h225q31 0 51.5 -9t29 -26.5t11.5 -33t3 -38.5q0 -30 -21 -30t-21 28q0 36 -13 51.5t-47 15.5h-236 q-64 0 -64 -76q0 -41 18 -63.5t46 -22.5h217q123 0 123 -134q0 -123 -123 -123h-228z" />
<glyph unicode="&#x456;" horiz-adv-x="190" d="M49 601q0 14 15 25t31 11q15 0 30.5 -11t15.5 -25t-15.5 -25t-30.5 -11q-16 0 -31 11t-15 25zM116 20q0 -27 -22 -27q-20 0 -20 27v420q0 28 21 28t21 -28v-420z" />
<glyph unicode="&#x457;" horiz-adv-x="190" d="M122 565q0 14 15 25t31 11q15 0 30.5 -11t15.5 -25t-15.5 -25t-30.5 -11q-16 0 -31 11t-15 25zM-24 565q0 14 15 25t31 11q15 0 30.5 -11t15.5 -25t-15.5 -25t-30.5 -11q-16 0 -31 11t-15 25zM116 20q0 -27 -22 -27q-20 0 -20 27v420q0 28 21 28t21 -28v-420z" />
<glyph unicode="&#x458;" horiz-adv-x="192" d="M50 601q0 14 15.5 25t30.5 11q16 0 31 -11t15 -25t-15 -25t-31 -11q-15 0 -30.5 11t-15.5 25zM117 0q0 -56 -14 -92t-44 -53.5t-64 -23.5t-86 -6q-31 0 -31 22q0 20 31 20q48 0 74.5 3.5t49.5 17t32.5 40.5t9.5 72v437q0 31 22 31q20 0 20 -31v-437z" />
<glyph unicode="&#x459;" horiz-adv-x="725" d="M435 217v-175h94q118 0 118 88q0 16 -3 28t-13.5 27t-36 23.5t-65.5 8.5h-94zM435 259h101q63 0 107.5 -29.5t44.5 -99.5q0 -71 -44.5 -100.5t-107.5 -29.5h-143v419h-170q-34 0 -47 -15t-13 -50v-230q0 -77 -25 -100.5t-77 -23.5q-31 0 -31 22q0 20 31 20q34 0 47 14.5 t13 49.5v231q0 70 20 97t75 27h219v-202z" />
<glyph unicode="&#x45a;" horiz-adv-x="769" d="M479 217v-175h94q118 0 118 88q0 16 -3 28t-13.5 27t-36 23.5t-65.5 8.5h-94zM479 259h101q63 0 107.5 -29.5t44.5 -99.5q0 -71 -44.5 -100.5t-107.5 -29.5h-143v217h-321v-194q0 -30 -21 -30t-21 30v414q0 31 19 31q23 0 23 -31v-178h321v178q0 31 20 31q22 0 22 -31 v-178z" />
<glyph unicode="&#x45b;" horiz-adv-x="588" d="M518 23q0 -30 -20 -30q-22 0 -22 30v263q0 45 -9.5 72t-32.5 40.5t-49.5 17t-73.5 3.5h-29q-80 0 -123 -48.5t-43 -138.5v-209q0 -30 -21 -30t-21 30v487q-25 0 -25 22q0 21 25 21v59q0 31 19 31q23 0 23 -31v-59h204q29 0 29 -23q0 -20 -29 -20h-204v-121q56 72 166 72 h29q105 0 156 -35t51 -140v-263z" />
<glyph unicode="&#x45c;" horiz-adv-x="538" d="M365 657q0 -10 -8 -19l-96 -115q-12 -13 -21 -13q-7 0 -13.5 6t-6.5 14q0 11 8 20l96 115q12 13 21 13q7 0 13.5 -6t6.5 -15zM185 210h-69v-190q0 -27 -22 -27q-20 0 -20 27v420q0 28 21 28t21 -28v-188h69q39 0 79.5 9.5t74 34t33.5 59.5q0 69 25.5 91.5t76.5 22.5 q31 0 31 -21t-31 -21q-34 0 -47 -15t-13 -50v-20q0 -38 -45 -73t-78 -40q33 -5 78 -39t45 -70v-20q0 -35 13 -50t47 -15q31 0 31 -21t-31 -21q-51 0 -76.5 22.5t-25.5 91.5q0 33 -33 57.5t-74.5 35t-79.5 10.5z" />
<glyph unicode="&#x45d;" horiz-adv-x="583" d="M197 657q0 9 6.5 15t13.5 6q9 0 21 -13l96 -115q8 -9 8 -20q0 -8 -6.5 -14t-13.5 -6q-9 0 -21 13l-96 115q-8 9 -8 19zM509 461v-437q0 -31 -20 -31q-22 0 -22 31v379l-343 -403h-49v437q0 31 20 31q22 0 22 -31v-383l346 407h46z" />
<glyph unicode="&#x45e;" horiz-adv-x="589" d="M441 636v-22q0 -64 -18 -88t-68 -24h-117q-49 0 -67.5 24.5t-18.5 87.5v22h42v-38q0 -31 10.5 -42.5t41.5 -11.5h102q31 0 41 11.5t10 42.5v38h42zM514 -92q0 -64 -18 -88.5t-68 -24.5h-263q-31 0 -51.5 9t-29 26.5t-11.5 33t-3 38.5q0 30 21 30t21 -28q0 -36 13 -51.5 t47 -15.5h249q31 0 41 11.5t10 43.5v180q-54 -72 -165 -72h-29q-106 0 -157 35t-51 140v261q0 32 21 32t21 -32v-261q0 -45 9.5 -72t32.5 -40.5t49.5 -17t74.5 -3.5h29q79 0 122 48t43 138v208q0 32 22 32q20 0 20 -32v-528z" />
<glyph unicode="&#x45f;" horiz-adv-x="584" d="M271 0h-196v438q0 30 20 30q22 0 22 -30v-396h350v396q0 30 21 30t21 -30v-438h-196v-62q0 -30 -21 -30t-21 30v62z" />
<glyph unicode="&#x462;" horiz-adv-x="631" d="M205 612q0 31 20 31q22 0 22 -31v-109h150q28 0 28 -22q0 -20 -28 -20h-150v-60h141q93 0 150 -56t57 -148q0 -93 -57 -148.5t-150 -55.5h-162q-21 0 -21 31v437h-147q-28 0 -28 21t28 21h147v109zM247 35h141q81 0 123 44.5t42 117.5t-42.5 117.5t-122.5 44.5h-141v-324 z" />
<glyph unicode="&#x463;" horiz-adv-x="630" d="M207 0q-19 0 -19 31v388h-142q-28 0 -28 21t28 21h142v155q0 27 20 27q22 0 22 -27v-155h142q28 0 28 -22q0 -20 -28 -20h-142v-120h195q78 0 121.5 -38t43.5 -111q0 -86 -52 -118t-155 -32h-176zM383 42q90 0 127.5 21t37.5 87q0 65 -37.5 86t-127.5 21h-153v-215h153z " />
<glyph unicode="&#x472;" horiz-adv-x="574" d="M467 303q-31 -23 -65 -23q-36 0 -119 20t-100 20q-15 0 -34 -8t-31 -16l-11 -9v-60q0 -91 48 -142.5t132 -51.5t132 51.5t48 142.5v76zM467 409q0 91 -48 142.5t-132 51.5t-132 -51.5t-48 -142.5v-70q29 23 63 23q36 0 119 -20t100 -20q15 0 34.5 8.5t31.5 17.5l12 8v53z M509 227q0 -110 -62.5 -173t-159.5 -63t-159.5 63t-62.5 173v182q0 110 62.5 173t159.5 63t159.5 -63t62.5 -173v-182z" />
<glyph unicode="&#x473;" horiz-adv-x="554" d="M450 214q-31 -23 -65 -23q-36 0 -112 20t-93 20q-15 0 -34 -8.5t-30 -16.5l-12 -8v-23q0 -45 9.5 -72t32.5 -40.5t49.5 -17t74.5 -3.5h15q47 0 73.5 3.5t49.5 17t32.5 40.5t9.5 72v39zM450 286q0 45 -9.5 72t-32.5 40.5t-49.5 17t-73.5 3.5h-15q-48 0 -74.5 -3.5 t-49.5 -17t-32.5 -40.5t-9.5 -72v-36q29 23 63 23q36 0 112 -20t93 -20q15 0 34.5 8.5t31.5 16.5l12 9v19zM285 0h-15q-106 0 -157 35t-51 140v111q0 105 51 140t157 35h15q105 0 156 -35t51 -140v-111q0 -105 -51 -140t-156 -35z" />
<glyph unicode="&#x490;" horiz-adv-x="539" d="M512 594h-328q-34 0 -47 -15t-13 -50v-506q0 -30 -22 -30q-20 0 -20 30v489q0 70 20 97t75 27h293v82q0 30 22 30q20 0 20 -30v-124z" />
<glyph unicode="&#x491;" horiz-adv-x="461" d="M175 419q-34 0 -47 -15t-13 -50v-331q0 -30 -22 -30q-20 0 -20 30v314q0 70 20 97t75 27h232v82q0 30 22 30q20 0 20 -30v-124h-267z" />
<glyph unicode="&#x1e02;" horiz-adv-x="584" d="M238 742q0 14 15 25t31 11q15 0 30.5 -11t15.5 -25t-15.5 -25t-30.5 -11q-16 0 -31 11t-15 25zM126 42h195q47 0 73.5 3.5t49.5 17t32.5 40.5t9.5 72v29q0 45 -9.5 72t-32.5 40.5t-49.5 17t-73.5 3.5h-195v-295zM84 31v574q0 31 19 31h176q103 0 155 -32t52 -118 q0 -84 -55 -119q49 -15 73 -53t24 -110v-29q0 -105 -51 -140t-156 -35h-218q-19 0 -19 31zM279 379q90 0 127.5 21t37.5 86q0 66 -37.5 87t-127.5 21h-153v-215h153z" />
<glyph unicode="&#x1e03;" horiz-adv-x="580" d="M250 558q0 14 15 25t31 11q15 0 30.5 -11t15.5 -25t-15.5 -25t-30.5 -11q-16 0 -31 11t-15 25zM116 389q56 72 166 72h29q105 0 156 -35t51 -140v-111q0 -105 -51 -140t-156 -35h-29q-110 0 -166 72v-49q0 -30 -21 -30t-21 30v589q0 31 19 31q23 0 23 -31v-223zM282 419 q-80 0 -123 -48.5t-43 -138.5v-4q0 -90 43 -138t123 -48h29q47 0 73.5 3.5t49.5 17t32.5 40.5t9.5 72v111q0 45 -9.5 72t-32.5 40.5t-49.5 17t-73.5 3.5h-29z" />
<glyph unicode="&#x1e0a;" horiz-adv-x="600" d="M238 742q0 14 15 25t31 11q15 0 30.5 -11t15.5 -25t-15.5 -25t-30.5 -11q-16 0 -31 11t-15 25zM528 461v-286q0 -105 -51 -140t-156 -35h-218q-19 0 -19 31v574q0 31 19 31h218q105 0 156 -35t51 -140zM486 175v286q0 45 -9.5 72t-32.5 40.5t-49.5 17t-73.5 3.5h-195 v-552h195q47 0 73.5 3.5t49.5 17t32.5 40.5t9.5 72z" />
<glyph unicode="&#x1e0b;" horiz-adv-x="580" d="M238 558q0 14 15 25t31 11q15 0 30.5 -11t15.5 -25t-15.5 -25t-30.5 -11q-16 0 -31 11t-15 25zM104 175q0 -45 9.5 -72t32.5 -40.5t49.5 -17t74.5 -3.5h29q79 0 122 48t43 138v191h-194q-48 0 -74.5 -3.5t-49.5 -17t-32.5 -40.5t-9.5 -72v-111zM62 286q0 105 51 140 t157 35h194v151q0 31 23 31q19 0 19 -31v-589q0 -30 -21 -30t-21 30v49q-54 -72 -165 -72h-29q-106 0 -157 35t-51 140v111z" />
<glyph unicode="&#x1e1e;" horiz-adv-x="558" d="M255 742q0 14 15 25t31 11q15 0 30.5 -11t15.5 -25t-15.5 -25t-30.5 -11q-16 0 -31 11t-15 25zM126 23q0 -30 -21 -30t-21 30v582q0 31 19 31h396q29 0 29 -23q0 -19 -29 -19h-373v-215h255q30 0 30 -23q0 -19 -30 -19h-255v-314z" />
<glyph unicode="&#x1e1f;" horiz-adv-x="313" d="M147 714q0 14 15 25t31 11q15 0 30.5 -11t15.5 -25t-15.5 -25t-30.5 -11q-16 0 -31 11t-15 25zM287 594q-48 0 -74.5 -3.5t-49.5 -17t-32.5 -40.5t-9.5 -72h143q31 0 31 -23q0 -19 -31 -19h-143v-395q0 -31 -23 -31q-19 0 -19 31v395q-31 0 -31 22q0 20 31 20 q0 56 14 91.5t44 53.5t64 24t86 6q31 0 31 -23q0 -19 -31 -19z" />
<glyph unicode="&#x1e40;" horiz-adv-x="633" d="M270 672q0 14 15 25t31 11q15 0 30.5 -11t15.5 -25t-15.5 -25t-30.5 -11q-16 0 -31 11t-15 25zM316 279q-7 0 -12 6l-178 272v-534q0 -30 -21 -30t-21 30v589q0 31 19 31q15 0 26 -17l187 -284l188 284q11 17 25 17q20 0 20 -31v-589q0 -30 -22 -30q-20 0 -20 30v534 l-178 -272q-5 -6 -13 -6z" />
<glyph unicode="&#x1e41;" horiz-adv-x="812" d="M363 565q0 14 15 25t31 11q15 0 30.5 -11t15.5 -25t-15.5 -25t-30.5 -11q-16 0 -31 11t-15 25zM251 419q-64 0 -99.5 -48.5t-35.5 -138.5v-209q0 -30 -21 -30t-21 30v414q0 31 19 31q23 0 23 -31v-48q30 39 59 55.5t76 16.5q67 0 108 -18t58 -69q47 87 146 87 q89 0 133.5 -35t44.5 -140v-263q0 -30 -21 -30t-21 30v263q0 45 -7 72t-26 40.5t-41 17t-62 3.5q-64 0 -99.5 -48.5t-35.5 -138.5v-209q0 -30 -20 -30q-22 0 -22 30v263q0 45 -7 72t-26 40.5t-40.5 17t-61.5 3.5z" />
<glyph unicode="&#x1e56;" horiz-adv-x="520" d="M211 742q0 14 15 25t31 11q15 0 30.5 -11t15.5 -25t-15.5 -25t-30.5 -11q-16 0 -31 11t-15 25zM126 20q0 -27 -22 -27q-20 0 -20 27v585q0 31 19 31h176q103 0 155 -32t52 -118q0 -73 -43.5 -111t-121.5 -38h-195v-317zM279 379q90 0 127.5 21t37.5 86q0 66 -37.5 87 t-127.5 21h-153v-215h153z" />
<glyph unicode="&#x1e57;" horiz-adv-x="581" d="M268 565q0 14 15 25t31 11q15 0 30.5 -11t15.5 -25t-15.5 -25t-30.5 -11q-16 0 -31 11t-15 25zM477 286q0 45 -9.5 72t-32.5 40.5t-49.5 17t-73.5 3.5h-29q-80 0 -123 -48.5t-43 -138.5v-190h195q47 0 73.5 3.5t49.5 17t32.5 40.5t9.5 72v111zM519 175q0 -105 -51 -140 t-156 -35h-195v-152q0 -30 -23 -30q-19 0 -19 30v590q0 30 21 30t21 -30v-49q56 72 166 72h29q105 0 156 -35t51 -140v-111z" />
<glyph unicode="&#x1e60;" horiz-adv-x="570" d="M244 742q0 14 15 25t31 11q15 0 30.5 -11t15.5 -25t-15.5 -25t-30.5 -11q-16 0 -31 11t-15 25zM104 484q0 -42 18.5 -71.5t45.5 -36.5l217 -52q123 -31 123 -170q0 -66 -37.5 -114t-123.5 -48h-76q-52 0 -86.5 6t-64.5 24t-44 54t-14 91q0 28 23 28q20 0 20 -28 q0 -86 36 -109.5t130 -23.5h93q53 0 77.5 38t24.5 82q0 51 -20.5 84t-43.5 38l-216 53q-68 16 -96 52t-28 103q0 66 38 113t124 47h76q52 0 86 -6t64 -23.5t44 -53t14 -90.5q0 -28 -22 -28q-21 0 -21 28q0 45 -9 72t-32.5 39.5t-49.5 16t-74 3.5h-94q-53 0 -77.5 -37.5 t-24.5 -80.5z" />
<glyph unicode="&#x1e61;" horiz-adv-x="566" d="M250 558q0 14 15 25t31 11q15 0 30.5 -11t15.5 -25t-15.5 -25t-30.5 -11q-16 0 -31 11t-15 25zM155 0q-31 0 -51.5 9t-29 26t-11.5 33t-3 38q0 31 21 31t21 -28q0 -37 13 -52t47 -15h238q64 0 64 81q0 42 -18 67t-46 25h-216q-124 0 -124 128q0 58 28.5 88t95.5 30h225 q31 0 51.5 -9t29 -26.5t11.5 -33t3 -38.5q0 -30 -21 -30t-21 28q0 36 -13 51.5t-47 15.5h-236q-64 0 -64 -76q0 -41 18 -63.5t46 -22.5h217q123 0 123 -134q0 -123 -123 -123h-228z" />
<glyph unicode="&#x1e6a;" horiz-adv-x="460" d="M183 742q0 14 15 25t31 11q15 0 30.5 -11t15.5 -25t-15.5 -25t-30.5 -11q-16 0 -31 11t-15 25zM405 636q28 0 28 -22q0 -20 -28 -20h-154v-574q0 -27 -22 -27q-20 0 -20 27v574h-155q-28 0 -28 21t28 21h351z" />
<glyph unicode="&#x1e6b;" horiz-adv-x="330" d="M52 698q0 14 15 25t31 11q15 0 30.5 -11t15.5 -25t-15.5 -25t-30.5 -11q-16 0 -31 11t-15 25zM119 175q0 -45 9.5 -72t32.5 -40.5t49.5 -17t74.5 -3.5q30 0 30 -19q0 -23 -30 -23q-51 0 -86 6.5t-64.5 24.5t-43.5 53.5t-14 90.5v244q-31 0 -31 22q0 20 31 20v109 q0 31 19 31q23 0 23 -31v-109h143q31 0 31 -23q0 -19 -31 -19h-143v-244z" />
<glyph unicode="&#x1e80;" horiz-adv-x="892" d="M343 799q0 6 6.5 13t14.5 7q10 0 20 -11l70 -69q11 -13 11 -22q0 -6 -6 -12.5t-14 -6.5q-11 0 -21 11l-69 69q-12 12 -12 21zM444 652q18 0 25 -22l177 -570l176 572q8 20 20 20q3 0 8 -1.5t10 -6.5t5 -12q0 -6 -3 -15l-192 -617h-50l-176 565l-175 -565h-49l-188 617 q-1 3 -4.5 8t-3.5 7q0 7 5.5 12t10.5 6.5t8 1.5q13 0 19 -20l178 -572l176 570q7 22 23 22z" />
<glyph unicode="&#x1e81;" horiz-adv-x="771" d="M259 658q0 9 6.5 15t13.5 6q9 0 21 -13l96 -115q8 -9 8 -20q0 -8 -6.5 -14t-13.5 -6q-9 0 -21 13l-96 115q-8 9 -8 19zM408 450l138 -404h6l145 404q6 18 17 18q8 0 17.5 -5.5t9.5 -12.5q0 -8 -3 -11l-155 -439h-71l-126 384l-136 -384h-71l-145 439q-3 2 -3 10 q0 7 10 13t17 6q10 0 17 -19l139 -403h6l144 404q3 17 23 17q16 0 21 -17z" />
<glyph unicode="&#x1e82;" horiz-adv-x="892" d="M546 799q0 -8 -11 -21l-70 -69q-10 -11 -20 -11q-8 0 -14.5 6.5t-6.5 12.5q0 10 12 22l69 69q10 11 21 11q8 0 14 -7t6 -13zM444 652q18 0 25 -22l177 -570l176 572q8 20 20 20q3 0 8 -1.5t10 -6.5t5 -12q0 -6 -3 -15l-192 -617h-50l-176 565l-175 -565h-49l-188 617 q-1 3 -4.5 8t-3.5 7q0 7 5.5 12t10.5 6.5t8 1.5q13 0 19 -20l178 -572l176 570q7 22 23 22z" />
<glyph unicode="&#x1e83;" horiz-adv-x="771" d="M519 657q0 -10 -8 -19l-96 -115q-12 -13 -21 -13q-7 0 -13.5 6t-6.5 14q0 11 8 20l96 115q12 13 21 13q7 0 13.5 -6t6.5 -15zM408 450l138 -404h6l145 404q6 18 17 18q8 0 17.5 -5.5t9.5 -12.5q0 -8 -3 -11l-155 -439h-71l-126 384l-136 -384h-71l-145 439q-3 2 -3 10 q0 7 10 13t17 6q10 0 17 -19l139 -403h6l144 404q3 17 23 17q16 0 21 -17z" />
<glyph unicode="&#x1e84;" horiz-adv-x="892" d="M472 749q0 14 15 25t31 11q15 0 30.5 -11t15.5 -25t-15.5 -25t-30.5 -11q-16 0 -31 11t-15 25zM326 749q0 14 15 25t31 11q15 0 30.5 -11t15.5 -25t-15.5 -25t-30.5 -11q-16 0 -31 11t-15 25zM444 652q18 0 25 -22l177 -570l176 572q8 20 20 20q3 0 8 -1.5t10 -6.5t5 -12 q0 -6 -3 -15l-192 -617h-50l-176 565l-175 -565h-49l-188 617q-1 3 -4.5 8t-3.5 7q0 7 5.5 12t10.5 6.5t8 1.5q13 0 19 -20l178 -572l176 570q7 22 23 22z" />
<glyph unicode="&#x1e85;" horiz-adv-x="771" d="M413 565q0 14 15 25t31 11q15 0 30.5 -11t15.5 -25t-15.5 -25t-30.5 -11q-16 0 -31 11t-15 25zM267 565q0 14 15 25t31 11q15 0 30.5 -11t15.5 -25t-15.5 -25t-30.5 -11q-16 0 -31 11t-15 25zM408 450l138 -404h6l145 404q6 18 17 18q8 0 17.5 -5.5t9.5 -12.5 q0 -8 -3 -11l-155 -439h-71l-126 384l-136 -384h-71l-145 439q-3 2 -3 10q0 7 10 13t17 6q10 0 17 -19l139 -403h6l144 404q3 17 23 17q16 0 21 -17z" />
<glyph unicode="&#x1ea0;" horiz-adv-x="548" d="M228 -104q0 14 15 25t31 11q15 0 30.5 -11t15.5 -25t-15.5 -25t-30.5 -11q-16 0 -31 11t-15 25zM44 -16q-21 0 -21 20q0 6 3 14l225 618h46l225 -618q3 -7 3 -14q0 -20 -21 -20q-14 0 -22 20l-72 200h-272l-72 -200q-9 -20 -22 -20zM154 246h240l-121 329z" />
<glyph unicode="&#x1ea1;" horiz-adv-x="535" d="M213 -104q0 14 15 25t31 11q15 0 30.5 -11t15.5 -25t-15.5 -25t-30.5 -11q-16 0 -31 11t-15 25zM268 248q-48 0 -74.5 -3.5t-49.5 -17t-32.5 -40.5t-9.5 -72q0 -28 18.5 -50.5t41.5 -22.5h93q79 0 122 48t43 138v20h-152zM268 290h152v64q0 35 -13 50t-47 15h-141 q-117 0 -117 -65q0 -30 -22 -30q-20 0 -20 30q0 54 42.5 80.5t109.5 26.5h155q55 0 75 -27t20 -97v-314q0 -30 -21 -30t-21 30v49q-54 -72 -165 -72h-93q-45 0 -73.5 32.5t-28.5 87.5q0 42 10 73t27 49.5t44 29t57 14.5t70 4z" />
<glyph unicode="&#x1ea2;" horiz-adv-x="548" d="M255 769q0 -13 -17 -13t-17 13q0 23 20.5 38t44.5 15q25 0 41.5 -17t16.5 -46q0 -24 -27 -40t-27 -33q0 -14 -15 -14q-7 0 -13 4t-6 10q0 26 27 42.5t27 35.5q0 11 -8 18t-18 7q-29 0 -29 -20zM44 -16q-21 0 -21 20q0 6 3 14l225 618h46l225 -618q3 -7 3 -14 q0 -20 -21 -20q-14 0 -22 20l-72 200h-272l-72 -200q-9 -20 -22 -20zM154 246h240l-121 329z" />
<glyph unicode="&#x1ea3;" horiz-adv-x="534" d="M252 618q0 -13 -17 -13t-17 13q0 23 20.5 38t44.5 15q25 0 41.5 -17t16.5 -46q0 -24 -27 -40t-27 -33q0 -14 -15 -14q-7 0 -13 4t-6 10q0 26 27 42.5t27 35.5q0 11 -8 18t-18 7q-29 0 -29 -20zM268 248q-48 0 -74.5 -3.5t-49.5 -17t-32.5 -40.5t-9.5 -72 q0 -28 18.5 -50.5t41.5 -22.5h93q79 0 122 48t43 138v20h-152zM268 290h152v64q0 35 -13 50t-47 15h-141q-117 0 -117 -65q0 -30 -22 -30q-20 0 -20 30q0 54 42.5 80.5t109.5 26.5h155q55 0 75 -27t20 -97v-314q0 -30 -21 -30t-21 30v49q-54 -72 -165 -72h-93 q-45 0 -73.5 32.5t-28.5 87.5q0 42 10 73t27 49.5t44 29t57 14.5t70 4z" />
<glyph unicode="&#x1ea4;" horiz-adv-x="550" d="M480 760q0 -8 -11 -21l-70 -69q-10 -11 -20 -11q-8 0 -14.5 6.5t-6.5 12.5q0 10 12 22l69 69q10 11 21 11q8 0 14 -7t6 -13zM275 685h-3l-92 -104q-16 -18 -24 -18q-18 0 -18 18q0 9 4 13l104 137h55l106 -137q4 -5 4 -13q0 -18 -18 -18q-4 0 -7.5 1.5t-5 3t-5.5 6.5 t-6 7zM45 -7q-21 0 -21 17q0 6 3 12l225 530h46l225 -530q3 -6 3 -12q0 -17 -21 -17q-17 0 -25 17l-72 172h-266l-72 -172q-7 -17 -25 -17zM160 224h230l-116 273z" />
<glyph unicode="&#x1ea5;" horiz-adv-x="534" d="M467 715q0 -8 -11 -21l-70 -69q-10 -11 -20 -11q-8 0 -14.5 6.5t-6.5 12.5q0 10 12 22l69 69q10 11 21 11q8 0 14 -7t6 -13zM262 640h-3l-92 -104q-2 -2 -5.5 -6t-5 -5.5t-4 -3.5t-4.5 -2.5t-5 -0.5q-18 0 -18 18q0 9 4 13l104 137h55l106 -137q4 -5 4 -13q0 -18 -18 -18 q-4 0 -7.5 1.5t-5 3t-5.5 6.5t-6 7zM268 248q-48 0 -74.5 -3.5t-49.5 -17t-32.5 -40.5t-9.5 -72q0 -28 18.5 -50.5t41.5 -22.5h93q79 0 122 48t43 138v20h-152zM268 290h152v64q0 35 -13 50t-47 15h-141q-117 0 -117 -65q0 -30 -22 -30q-20 0 -20 30q0 54 42.5 80.5 t109.5 26.5h155q55 0 75 -27t20 -97v-314q0 -30 -21 -30t-21 30v49q-54 -72 -165 -72h-93q-45 0 -73.5 32.5t-28.5 87.5q0 42 10 73t27 49.5t44 29t57 14.5t70 4z" />
<glyph unicode="&#x1ea6;" horiz-adv-x="546" d="M68 752q0 6 6.5 13t14.5 7q10 0 20 -11l70 -69q11 -13 11 -22q0 -6 -6 -12.5t-14 -6.5q-11 0 -21 11l-69 69q-12 12 -12 21zM275 677h-3l-92 -104q-16 -18 -24 -18q-18 0 -18 18q0 9 4 13l104 137h55l106 -137q4 -5 4 -13q0 -18 -18 -18q-4 0 -7.5 1.5t-5 3t-5.5 6.5 t-6 7zM45 -7q-21 0 -21 17q0 6 3 12l225 530h46l225 -530q3 -6 3 -12q0 -17 -21 -17q-17 0 -25 17l-72 172h-266l-72 -172q-7 -17 -25 -17zM160 224h230l-116 273z" />
<glyph unicode="&#x1ea7;" horiz-adv-x="534" d="M55 715q0 6 6.5 13t14.5 7q10 0 20 -11l70 -69q11 -13 11 -22q0 -6 -6 -12.5t-14 -6.5q-11 0 -21 11l-69 69q-12 12 -12 21zM262 640h-3l-92 -104q-2 -2 -5.5 -6t-5 -5.5t-4 -3.5t-4.5 -2.5t-5 -0.5q-18 0 -18 18q0 9 4 13l104 137h55l106 -137q4 -5 4 -13q0 -18 -18 -18 q-4 0 -7.5 1.5t-5 3t-5.5 6.5t-6 7zM268 248q-48 0 -74.5 -3.5t-49.5 -17t-32.5 -40.5t-9.5 -72q0 -28 18.5 -50.5t41.5 -22.5h93q79 0 122 48t43 138v20h-152zM268 290h152v64q0 35 -13 50t-47 15h-141q-117 0 -117 -65q0 -30 -22 -30q-20 0 -20 30q0 54 42.5 80.5 t109.5 26.5h155q55 0 75 -27t20 -97v-314q0 -30 -21 -30t-21 30v49q-54 -72 -165 -72h-93q-45 0 -73.5 32.5t-28.5 87.5q0 42 10 73t27 49.5t44 29t57 14.5t70 4z" />
<glyph unicode="&#x1ea8;" horiz-adv-x="550" d="M389 769q0 -13 -17 -13t-17 13q0 23 20.5 38t44.5 15q25 0 41.5 -17t16.5 -46q0 -24 -27 -40t-27 -33q0 -14 -15 -14q-7 0 -13 4t-6 10q0 26 27 42.5t27 35.5q0 11 -8 18t-18 7q-29 0 -29 -20zM275 685h-3l-92 -104q-16 -18 -24 -18q-18 0 -18 18q0 9 4 13l104 137h55 l106 -137q4 -5 4 -13q0 -18 -18 -18q-4 0 -7.5 1.5t-5 3t-5.5 6.5t-6 7zM45 -7q-21 0 -21 17q0 6 3 12l225 530h46l225 -530q3 -6 3 -12q0 -17 -21 -17q-17 0 -25 17l-72 172h-266l-72 -172q-7 -17 -25 -17zM160 224h230l-116 273z" />
<glyph unicode="&#x1ea9;" horiz-adv-x="534" d="M376 724q0 -13 -17 -13t-17 13q0 23 20.5 38t44.5 15q25 0 41.5 -17t16.5 -46q0 -24 -27 -40t-27 -33q0 -14 -15 -14q-7 0 -13 4t-6 10q0 26 27 42.5t27 35.5q0 11 -8 18t-18 7q-29 0 -29 -20zM262 640h-3l-92 -104q-2 -2 -5.5 -6t-5 -5.5t-4 -3.5t-4.5 -2.5t-5 -0.5 q-18 0 -18 18q0 9 4 13l104 137h55l106 -137q4 -5 4 -13q0 -18 -18 -18q-4 0 -7.5 1.5t-5 3t-5.5 6.5t-6 7zM268 248q-48 0 -74.5 -3.5t-49.5 -17t-32.5 -40.5t-9.5 -72q0 -28 18.5 -50.5t41.5 -22.5h93q79 0 122 48t43 138v20h-152zM268 290h152v64q0 35 -13 50t-47 15 h-141q-117 0 -117 -65q0 -30 -22 -30q-20 0 -20 30q0 54 42.5 80.5t109.5 26.5h155q55 0 75 -27t20 -97v-314q0 -30 -21 -30t-21 30v49q-54 -72 -165 -72h-93q-45 0 -73.5 32.5t-28.5 87.5q0 42 10 73t27 49.5t44 29t57 14.5t70 4z" />
<glyph unicode="&#x1eaa;" horiz-adv-x="550" d="M321 780q4 -2 7 -2q4 0 11 5l31 28q11 8 19 8t14.5 -5t6.5 -13q0 -12 -12 -23l-47 -39q-7 -7 -16 -7q-4 0 -10 2l-98 36q-4 2 -8 2t-11 -5l-31 -28q-11 -8 -19 -8q-7 0 -13.5 5.5t-6.5 13.5q0 13 12 22l47 39q5 7 15 7q3 0 11 -2zM275 685h-3l-92 -104q-16 -18 -24 -18 q-18 0 -18 18q0 9 4 13l104 137h55l106 -137q4 -5 4 -13q0 -18 -18 -18q-4 0 -7.5 1.5t-5 3t-5.5 6.5t-6 7zM45 -7q-21 0 -21 17q0 6 3 12l225 530h46l225 -530q3 -6 3 -12q0 -17 -21 -17q-17 0 -25 17l-72 172h-266l-72 -172q-7 -17 -25 -17zM160 224h230l-116 273z" />
<glyph unicode="&#x1eab;" horiz-adv-x="534" d="M308 735q4 -2 7 -2q4 0 11 5l31 28q11 8 19 8t14.5 -5t6.5 -13q0 -12 -12 -23l-47 -39q-7 -7 -16 -7q-4 0 -10 2l-98 36q-4 2 -8 2t-11 -5l-31 -28q-11 -8 -19 -8q-7 0 -13.5 5.5t-6.5 13.5q0 13 12 22l47 39q5 7 15 7q3 0 11 -2zM262 640h-3l-92 -104q-2 -2 -5.5 -6 t-5 -5.5t-4 -3.5t-4.5 -2.5t-5 -0.5q-18 0 -18 18q0 9 4 13l104 137h55l106 -137q4 -5 4 -13q0 -18 -18 -18q-4 0 -7.5 1.5t-5 3t-5.5 6.5t-6 7zM268 248q-48 0 -74.5 -3.5t-49.5 -17t-32.5 -40.5t-9.5 -72q0 -28 18.5 -50.5t41.5 -22.5h93q79 0 122 48t43 138v20h-152z M268 290h152v64q0 35 -13 50t-47 15h-141q-117 0 -117 -65q0 -30 -22 -30q-20 0 -20 30q0 54 42.5 80.5t109.5 26.5h155q55 0 75 -27t20 -97v-314q0 -30 -21 -30t-21 30v49q-54 -72 -165 -72h-93q-45 0 -73.5 32.5t-28.5 87.5q0 42 10 73t27 49.5t44 29t57 14.5t70 4z" />
<glyph unicode="&#x1eac;" horiz-adv-x="548" d="M275 773h-3l-92 -104q-16 -18 -24 -18q-18 0 -18 18q0 9 4 13l104 137h55l106 -137q4 -5 4 -13q0 -18 -18 -18q-4 0 -7.5 1.5t-5 3t-5.5 6.5t-6 7zM228 -104q0 14 15 25t31 11q15 0 30.5 -11t15.5 -25t-15.5 -25t-30.5 -11q-16 0 -31 11t-15 25zM44 -16q-21 0 -21 20 q0 6 3 14l225 618h46l225 -618q3 -7 3 -14q0 -20 -21 -20q-14 0 -22 20l-72 200h-272l-72 -200q-9 -20 -22 -20zM154 246h240l-121 329z" />
<glyph unicode="&#x1ead;" horiz-adv-x="534" d="M278 640h-3l-92 -104q-2 -2 -5.5 -6t-5 -5.5t-4 -3.5t-4.5 -2.5t-5 -0.5q-18 0 -18 18q0 9 4 13l104 137h55l106 -137q4 -5 4 -13q0 -18 -18 -18q-4 0 -7.5 1.5t-5 3t-5.5 6.5t-6 7zM213 -104q0 14 15 25t31 11q15 0 30.5 -11t15.5 -25t-15.5 -25t-30.5 -11q-16 0 -31 11 t-15 25zM268 248q-48 0 -74.5 -3.5t-49.5 -17t-32.5 -40.5t-9.5 -72q0 -28 18.5 -50.5t41.5 -22.5h93q79 0 122 48t43 138v20h-152zM268 290h152v64q0 35 -13 50t-47 15h-141q-117 0 -117 -65q0 -30 -22 -30q-20 0 -20 30q0 54 42.5 80.5t109.5 26.5h155q55 0 75 -27t20 -97 v-314q0 -30 -21 -30t-21 30v49q-54 -72 -165 -72h-93q-45 0 -73.5 32.5t-28.5 87.5q0 42 10 73t27 49.5t44 29t57 14.5t70 4z" />
<glyph unicode="&#x1eae;" horiz-adv-x="542" d="M385 700q0 -48 -34 -84.5t-81 -36.5t-81 36.5t-34 84.5h43q0 -34 19.5 -55.5t52.5 -21.5t52.5 21.5t19.5 55.5h43zM373 780q0 -8 -11 -21l-70 -69q-10 -11 -20 -11q-8 0 -14.5 6.5t-6.5 12.5q0 10 12 22l69 69q10 11 21 11q8 0 14 -7t6 -13zM41 -7q-21 0 -21 17q0 6 3 12 l225 530h46l225 -530q3 -6 3 -12q0 -17 -21 -17q-17 0 -25 17l-72 172h-266l-72 -172q-7 -17 -25 -17zM156 224h230l-116 273z" />
<glyph unicode="&#x1eaf;" horiz-adv-x="534" d="M376 643q0 -48 -34 -84.5t-81 -36.5t-81 36.5t-34 84.5h43q0 -34 19.5 -55.5t52.5 -21.5t52.5 21.5t19.5 55.5h43zM364 723q0 -8 -11 -21l-70 -69q-10 -11 -20 -11q-8 0 -14.5 6.5t-6.5 12.5q0 10 12 22l69 69q10 11 21 11q8 0 14 -7t6 -13zM268 248q-48 0 -74.5 -3.5 t-49.5 -17t-32.5 -40.5t-9.5 -72q0 -28 18.5 -50.5t41.5 -22.5h93q79 0 122 48t43 138v20h-152zM268 290h152v64q0 35 -13 50t-47 15h-141q-117 0 -117 -65q0 -30 -22 -30q-20 0 -20 30q0 54 42.5 80.5t109.5 26.5h155q55 0 75 -27t20 -97v-314q0 -30 -21 -30t-21 30v49 q-54 -72 -165 -72h-93q-45 0 -73.5 32.5t-28.5 87.5q0 42 10 73t27 49.5t44 29t57 14.5t70 4z" />
<glyph unicode="&#x1eb0;" horiz-adv-x="542" d="M385 700q0 -48 -34 -84.5t-81 -36.5t-81 36.5t-34 84.5h43q0 -34 19.5 -55.5t52.5 -21.5t52.5 21.5t19.5 55.5h43zM166 780q0 6 6.5 13t14.5 7q10 0 20 -11l70 -69q11 -13 11 -22q0 -6 -6 -12.5t-14 -6.5q-11 0 -21 11l-69 69q-12 12 -12 21zM41 -7q-21 0 -21 17 q0 6 3 12l225 530h46l225 -530q3 -6 3 -12q0 -17 -21 -17q-17 0 -25 17l-72 172h-266l-72 -172q-7 -17 -25 -17zM156 224h230l-116 273z" />
<glyph unicode="&#x1eb1;" horiz-adv-x="534" d="M376 643q0 -48 -34 -84.5t-81 -36.5t-81 36.5t-34 84.5h43q0 -34 19.5 -55.5t52.5 -21.5t52.5 21.5t19.5 55.5h43zM157 723q0 6 6.5 13t14.5 7q10 0 20 -11l70 -69q11 -13 11 -22q0 -6 -6 -12.5t-14 -6.5q-11 0 -21 11l-69 69q-12 12 -12 21zM268 248q-48 0 -74.5 -3.5 t-49.5 -17t-32.5 -40.5t-9.5 -72q0 -28 18.5 -50.5t41.5 -22.5h93q79 0 122 48t43 138v20h-152zM268 290h152v64q0 35 -13 50t-47 15h-141q-117 0 -117 -65q0 -30 -22 -30q-20 0 -20 30q0 54 42.5 80.5t109.5 26.5h155q55 0 75 -27t20 -97v-314q0 -30 -21 -30t-21 30v49 q-54 -72 -165 -72h-93q-45 0 -73.5 32.5t-28.5 87.5q0 42 10 73t27 49.5t44 29t57 14.5t70 4z" />
<glyph unicode="&#x1eb2;" horiz-adv-x="542" d="M385 700q0 -48 -34 -84.5t-81 -36.5t-81 36.5t-34 84.5h43q0 -34 19.5 -55.5t52.5 -21.5t52.5 21.5t19.5 55.5h43zM250 770q0 -13 -17 -13t-17 13q0 23 20.5 38t44.5 15q25 0 41.5 -17t16.5 -46q0 -24 -27 -40t-27 -33q0 -14 -15 -14q-7 0 -13 4t-6 10q0 26 27 42.5 t27 35.5q0 11 -8 18t-18 7q-29 0 -29 -20zM41 -7q-21 0 -21 17q0 6 3 12l225 530h46l225 -530q3 -6 3 -12q0 -17 -21 -17q-17 0 -25 17l-72 172h-266l-72 -172q-7 -17 -25 -17zM156 224h230l-116 273z" />
<glyph unicode="&#x1eb3;" horiz-adv-x="534" d="M376 643q0 -48 -34 -84.5t-81 -36.5t-81 36.5t-34 84.5h43q0 -34 19.5 -55.5t52.5 -21.5t52.5 21.5t19.5 55.5h43zM241 713q0 -13 -17 -13t-17 13q0 23 20.5 38t44.5 15q25 0 41.5 -17t16.5 -46q0 -24 -27 -40t-27 -33q0 -14 -15 -14q-7 0 -13 4t-6 10q0 26 27 42.5 t27 35.5q0 11 -8 18t-18 7q-29 0 -29 -20zM268 248q-48 0 -74.5 -3.5t-49.5 -17t-32.5 -40.5t-9.5 -72q0 -28 18.5 -50.5t41.5 -22.5h93q79 0 122 48t43 138v20h-152zM268 290h152v64q0 35 -13 50t-47 15h-141q-117 0 -117 -65q0 -30 -22 -30q-20 0 -20 30q0 54 42.5 80.5 t109.5 26.5h155q55 0 75 -27t20 -97v-314q0 -30 -21 -30t-21 30v49q-54 -72 -165 -72h-93q-45 0 -73.5 32.5t-28.5 87.5q0 42 10 73t27 49.5t44 29t57 14.5t70 4z" />
<glyph unicode="&#x1eb4;" horiz-adv-x="542" d="M385 700q0 -48 -34 -84.5t-81 -36.5t-81 36.5t-34 84.5h43q0 -34 19.5 -55.5t52.5 -21.5t52.5 21.5t19.5 55.5h43zM319 780q4 -2 7 -2q4 0 11 5l31 28q11 8 19 8t14.5 -5t6.5 -13q0 -12 -12 -23l-47 -39q-7 -7 -16 -7q-4 0 -10 2l-98 36q-4 2 -8 2t-11 -5l-31 -28 q-11 -8 -19 -8q-7 0 -13.5 5.5t-6.5 13.5q0 13 12 22l47 39q5 7 15 7q3 0 11 -2zM41 -7q-21 0 -21 17q0 6 3 12l225 530h46l225 -530q3 -6 3 -12q0 -17 -21 -17q-17 0 -25 17l-72 172h-266l-72 -172q-7 -17 -25 -17zM156 224h230l-116 273z" />
<glyph unicode="&#x1eb5;" horiz-adv-x="534" d="M395 643q0 -48 -34 -84.5t-81 -36.5t-81 36.5t-34 84.5h43q0 -34 19.5 -55.5t52.5 -21.5t52.5 21.5t19.5 55.5h43zM329 723q4 -2 7 -2q4 0 11 5l31 28q11 8 19 8t14.5 -5t6.5 -13q0 -12 -12 -23l-47 -39q-7 -7 -16 -7q-4 0 -10 2l-98 36q-4 2 -8 2t-11 -5l-31 -28 q-11 -8 -19 -8q-7 0 -13.5 5.5t-6.5 13.5q0 13 12 22l47 39q5 7 15 7q3 0 11 -2zM268 248q-48 0 -74.5 -3.5t-49.5 -17t-32.5 -40.5t-9.5 -72q0 -28 18.5 -50.5t41.5 -22.5h93q79 0 122 48t43 138v20h-152zM268 290h152v64q0 35 -13 50t-47 15h-141q-117 0 -117 -65 q0 -30 -22 -30q-20 0 -20 30q0 54 42.5 80.5t109.5 26.5h155q55 0 75 -27t20 -97v-314q0 -30 -21 -30t-21 30v49q-54 -72 -165 -72h-93q-45 0 -73.5 32.5t-28.5 87.5q0 42 10 73t27 49.5t44 29t57 14.5t70 4z" />
<glyph unicode="&#x1eb6;" horiz-adv-x="548" d="M389 819q0 -48 -34 -84.5t-81 -36.5t-81 36.5t-34 84.5h43q0 -34 19.5 -55.5t52.5 -21.5t52.5 21.5t19.5 55.5h43zM228 -104q0 14 15 25t31 11q15 0 30.5 -11t15.5 -25t-15.5 -25t-30.5 -11q-16 0 -31 11t-15 25zM44 -16q-21 0 -21 20q0 6 3 14l225 618h46l225 -618 q3 -7 3 -14q0 -20 -21 -20q-14 0 -22 20l-72 200h-272l-72 -200q-9 -20 -22 -20zM154 246h240l-121 329z" />
<glyph unicode="&#x1eb7;" horiz-adv-x="534" d="M376 643q0 -48 -34 -84.5t-81 -36.5t-81 36.5t-34 84.5h43q0 -34 19.5 -55.5t52.5 -21.5t52.5 21.5t19.5 55.5h43zM213 -104q0 14 15 25t31 11q15 0 30.5 -11t15.5 -25t-15.5 -25t-30.5 -11q-16 0 -31 11t-15 25zM268 248q-48 0 -74.5 -3.5t-49.5 -17t-32.5 -40.5 t-9.5 -72q0 -28 18.5 -50.5t41.5 -22.5h93q79 0 122 48t43 138v20h-152zM268 290h152v64q0 35 -13 50t-47 15h-141q-117 0 -117 -65q0 -30 -22 -30q-20 0 -20 30q0 54 42.5 80.5t109.5 26.5h155q55 0 75 -27t20 -97v-314q0 -30 -21 -30t-21 30v49q-54 -72 -165 -72h-93 q-45 0 -73.5 32.5t-28.5 87.5q0 42 10 73t27 49.5t44 29t57 14.5t70 4z" />
<glyph unicode="&#x1eb8;" horiz-adv-x="577" d="M255 -97q0 14 15 25t31 11q15 0 30.5 -11t15.5 -25t-15.5 -25t-30.5 -11q-16 0 -31 11t-15 25zM126 337v-295h373q29 0 29 -23q0 -19 -29 -19h-396q-19 0 -19 31v574q0 31 19 31h396q29 0 29 -23q0 -19 -29 -19h-373v-215h255q30 0 30 -23q0 -19 -30 -19h-255z" />
<glyph unicode="&#x1eb9;" horiz-adv-x="566" d="M238 -97q0 14 15 25t31 11q15 0 30.5 -11t15.5 -25t-15.5 -25t-30.5 -11q-16 0 -31 11t-15 25zM506 286v-36h-402v-75q0 -45 9.5 -72t32.5 -40.5t49.5 -17t74.5 -3.5h134q34 0 47 15t13 52q0 28 21 28t21 -31q0 -22 -3 -38t-11.5 -33t-29 -26t-51.5 -9h-141 q-106 0 -157 35t-51 140v111q0 105 51 140t157 35h29q105 0 156 -35t51 -140zM299 419h-29q-92 0 -129 -23t-37 -104h360q0 81 -37 104t-128 23z" />
<glyph unicode="&#x1eba;" horiz-adv-x="577" d="M283 769q0 -13 -17 -13t-17 13q0 23 20.5 38t44.5 15q25 0 41.5 -17t16.5 -46q0 -24 -27 -40t-27 -33q0 -14 -15 -14q-7 0 -13 4t-6 10q0 26 27 42.5t27 35.5q0 11 -8 18t-18 7q-29 0 -29 -20zM126 337v-295h373q29 0 29 -23q0 -19 -29 -19h-396q-19 0 -19 31v574 q0 31 19 31h396q29 0 29 -23q0 -19 -29 -19h-373v-215h255q30 0 30 -23q0 -19 -30 -19h-255z" />
<glyph unicode="&#x1ebb;" horiz-adv-x="566" d="M266 618q0 -13 -17 -13t-17 13q0 23 20.5 38t44.5 15q25 0 41.5 -17t16.5 -46q0 -24 -27 -40t-27 -33q0 -14 -15 -14q-7 0 -13 4t-6 10q0 26 27 42.5t27 35.5q0 11 -8 18t-18 7q-29 0 -29 -20zM506 286v-36h-402v-75q0 -45 9.5 -72t32.5 -40.5t49.5 -17t74.5 -3.5h134 q34 0 47 15t13 52q0 28 21 28t21 -31q0 -22 -3 -38t-11.5 -33t-29 -26t-51.5 -9h-141q-106 0 -157 35t-51 140v111q0 105 51 140t157 35h29q105 0 156 -35t51 -140zM299 419h-29q-92 0 -129 -23t-37 -104h360q0 81 -37 104t-128 23z" />
<glyph unicode="&#x1ebc;" horiz-adv-x="577" d="M348 755q4 -2 7 -2q4 0 11 5l31 28q11 8 19 8t14.5 -5t6.5 -13q0 -12 -12 -23l-47 -39q-7 -7 -16 -7q-4 0 -10 2l-98 36q-4 2 -8 2t-11 -5l-31 -28q-11 -8 -19 -8q-7 0 -13.5 5.5t-6.5 13.5q0 13 12 22l47 39q5 7 15 7q3 0 11 -2zM126 337v-295h373q29 0 29 -23 q0 -19 -29 -19h-396q-19 0 -19 31v574q0 31 19 31h396q29 0 29 -23q0 -19 -29 -19h-373v-215h255q30 0 30 -23q0 -19 -30 -19h-255z" />
<glyph unicode="&#x1ebd;" horiz-adv-x="566" d="M331 571q4 -2 7 -2q4 0 11 5l31 28q11 8 19 8t14.5 -5t6.5 -13q0 -12 -12 -23l-47 -39q-7 -7 -16 -7q-4 0 -10 2l-98 36q-4 2 -8 2t-11 -5l-31 -28q-11 -8 -19 -8q-7 0 -13.5 5.5t-6.5 13.5q0 13 12 22l47 39q5 7 15 7q3 0 11 -2zM506 286v-36h-402v-75q0 -45 9.5 -72 t32.5 -40.5t49.5 -17t74.5 -3.5h134q34 0 47 15t13 52q0 28 21 28t21 -31q0 -22 -3 -38t-11.5 -33t-29 -26t-51.5 -9h-141q-106 0 -157 35t-51 140v111q0 105 51 140t157 35h29q105 0 156 -35t51 -140zM299 419h-29q-92 0 -129 -23t-37 -104h360q0 81 -37 104t-128 23z" />
<glyph unicode="&#x1ebe;" horiz-adv-x="579" d="M495 780q0 -8 -11 -21l-70 -69q-10 -11 -20 -11q-8 0 -14.5 6.5t-6.5 12.5q0 10 12 22l69 69q10 11 21 11q8 0 14 -7t6 -13zM290 705h-3l-92 -104q-16 -18 -24 -18q-18 0 -18 18q0 9 4 13l104 137h55l106 -137q4 -5 4 -13q0 -18 -18 -18q-4 0 -7.5 1.5t-5 3t-5.5 6.5 t-6 7zM122 276v-234h373q29 0 29 -23q0 -19 -29 -19h-396q-19 0 -19 31v490q0 31 19 31h396q29 0 29 -23q0 -19 -29 -19h-373v-192h255q30 0 30 -23q0 -19 -30 -19h-255z" />
<glyph unicode="&#x1ebf;" horiz-adv-x="566" d="M489 715q0 -8 -11 -21l-70 -69q-10 -11 -20 -11q-8 0 -14.5 6.5t-6.5 12.5q0 10 12 22l69 69q10 11 21 11q8 0 14 -7t6 -13zM284 640h-3l-92 -104q-2 -2 -5.5 -6t-5 -5.5t-4 -3.5t-4.5 -2.5t-5 -0.5q-18 0 -18 18q0 9 4 13l104 137h55l106 -137q4 -5 4 -13q0 -18 -18 -18 q-4 0 -7.5 1.5t-5 3t-5.5 6.5t-6 7zM506 286v-36h-402v-75q0 -45 9.5 -72t32.5 -40.5t49.5 -17t74.5 -3.5h134q34 0 47 15t13 52q0 28 21 28t21 -31q0 -22 -3 -38t-11.5 -33t-29 -26t-51.5 -9h-141q-106 0 -157 35t-51 140v111q0 105 51 140t157 35h29q105 0 156 -35 t51 -140zM299 419h-29q-92 0 -129 -23t-37 -104h360q0 81 -37 104t-128 23z" />
<glyph unicode="&#x1ec0;" horiz-adv-x="578" d="M83 772q0 6 6.5 13t14.5 7q10 0 20 -11l70 -69q11 -13 11 -22q0 -6 -6 -12.5t-14 -6.5q-11 0 -21 11l-69 69q-12 12 -12 21zM290 697h-3l-92 -104q-16 -18 -24 -18q-18 0 -18 18q0 9 4 13l104 137h55l106 -137q4 -5 4 -13q0 -18 -18 -18q-4 0 -7.5 1.5t-5 3t-5.5 6.5 t-6 7zM122 276v-234h373q29 0 29 -23q0 -19 -29 -19h-396q-19 0 -19 31v490q0 31 19 31h396q29 0 29 -23q0 -19 -29 -19h-373v-192h255q30 0 30 -23q0 -19 -30 -19h-255z" />
<glyph unicode="&#x1ec1;" horiz-adv-x="566" d="M77 715q0 6 6.5 13t14.5 7q10 0 20 -11l70 -69q11 -13 11 -22q0 -6 -6 -12.5t-14 -6.5q-11 0 -21 11l-69 69q-12 12 -12 21zM284 640h-3l-92 -104q-2 -2 -5.5 -6t-5 -5.5t-4 -3.5t-4.5 -2.5t-5 -0.5q-18 0 -18 18q0 9 4 13l104 137h55l106 -137q4 -5 4 -13q0 -18 -18 -18 q-4 0 -7.5 1.5t-5 3t-5.5 6.5t-6 7zM506 286v-36h-402v-75q0 -45 9.5 -72t32.5 -40.5t49.5 -17t74.5 -3.5h134q34 0 47 15t13 52q0 28 21 28t21 -31q0 -22 -3 -38t-11.5 -33t-29 -26t-51.5 -9h-141q-106 0 -157 35t-51 140v111q0 105 51 140t157 35h29q105 0 156 -35 t51 -140zM299 419h-29q-92 0 -129 -23t-37 -104h360q0 81 -37 104t-128 23z" />
<glyph unicode="&#x1ec2;" horiz-adv-x="578" d="M405 769q0 -13 -17 -13t-17 13q0 23 20.5 38t44.5 15q25 0 41.5 -17t16.5 -46q0 -24 -27 -40t-27 -33q0 -14 -15 -14q-7 0 -13 4t-6 10q0 26 27 42.5t27 35.5q0 11 -8 18t-18 7q-29 0 -29 -20zM291 685h-3l-92 -104q-16 -18 -24 -18q-18 0 -18 18q0 9 4 13l104 137h55 l106 -137q4 -5 4 -13q0 -18 -18 -18q-4 0 -7.5 1.5t-5 3t-5.5 6.5t-6 7zM123 276v-234h373q29 0 29 -23q0 -19 -29 -19h-396q-19 0 -19 31v490q0 31 19 31h396q29 0 29 -23q0 -19 -29 -19h-373v-192h255q30 0 30 -23q0 -19 -30 -19h-255z" />
<glyph unicode="&#x1ec3;" horiz-adv-x="566" d="M398 724q0 -13 -17 -13t-17 13q0 23 20.5 38t44.5 15q25 0 41.5 -17t16.5 -46q0 -24 -27 -40t-27 -33q0 -14 -15 -14q-7 0 -13 4t-6 10q0 26 27 42.5t27 35.5q0 11 -8 18t-18 7q-29 0 -29 -20zM284 640h-3l-92 -104q-2 -2 -5.5 -6t-5 -5.5t-4 -3.5t-4.5 -2.5t-5 -0.5 q-18 0 -18 18q0 9 4 13l104 137h55l106 -137q4 -5 4 -13q0 -18 -18 -18q-4 0 -7.5 1.5t-5 3t-5.5 6.5t-6 7zM506 286v-36h-402v-75q0 -45 9.5 -72t32.5 -40.5t49.5 -17t74.5 -3.5h134q34 0 47 15t13 52q0 28 21 28t21 -31q0 -22 -3 -38t-11.5 -33t-29 -26t-51.5 -9h-141 q-106 0 -157 35t-51 140v111q0 105 51 140t157 35h29q105 0 156 -35t51 -140zM299 419h-29q-92 0 -129 -23t-37 -104h360q0 81 -37 104t-128 23z" />
<glyph unicode="&#x1ec4;" horiz-adv-x="578" d="M337 780q4 -2 7 -2q4 0 11 5l31 28q11 8 19 8t14.5 -5t6.5 -13q0 -12 -12 -23l-47 -39q-7 -7 -16 -7q-4 0 -10 2l-98 36q-4 2 -8 2t-11 -5l-31 -28q-11 -8 -19 -8q-7 0 -13.5 5.5t-6.5 13.5q0 13 12 22l47 39q5 7 15 7q3 0 11 -2zM291 685h-3l-92 -104q-16 -18 -24 -18 q-18 0 -18 18q0 9 4 13l104 137h55l106 -137q4 -5 4 -13q0 -18 -18 -18q-4 0 -7.5 1.5t-5 3t-5.5 6.5t-6 7zM123 276v-234h373q29 0 29 -23q0 -19 -29 -19h-396q-19 0 -19 31v490q0 31 19 31h396q29 0 29 -23q0 -19 -29 -19h-373v-192h255q30 0 30 -23q0 -19 -30 -19h-255z " />
<glyph unicode="&#x1ec5;" horiz-adv-x="566" d="M330 735q4 -2 7 -2q4 0 11 5l31 28q11 8 19 8t14.5 -5t6.5 -13q0 -12 -12 -23l-47 -39q-7 -7 -16 -7q-4 0 -10 2l-98 36q-4 2 -8 2t-11 -5l-31 -28q-11 -8 -19 -8q-7 0 -13.5 5.5t-6.5 13.5q0 13 12 22l47 39q5 7 15 7q3 0 11 -2zM284 640h-3l-92 -104q-2 -2 -5.5 -6 t-5 -5.5t-4 -3.5t-4.5 -2.5t-5 -0.5q-18 0 -18 18q0 9 4 13l104 137h55l106 -137q4 -5 4 -13q0 -18 -18 -18q-4 0 -7.5 1.5t-5 3t-5.5 6.5t-6 7zM506 286v-36h-402v-75q0 -45 9.5 -72t32.5 -40.5t49.5 -17t74.5 -3.5h134q34 0 47 15t13 52q0 28 21 28t21 -31q0 -22 -3 -38 t-11.5 -33t-29 -26t-51.5 -9h-141q-106 0 -157 35t-51 140v111q0 105 51 140t157 35h29q105 0 156 -35t51 -140zM299 419h-29q-92 0 -129 -23t-37 -104h360q0 81 -37 104t-128 23z" />
<glyph unicode="&#x1ec6;" horiz-adv-x="577" d="M301 773h-3l-92 -104q-16 -18 -24 -18q-18 0 -18 18q0 9 4 13l104 137h55l106 -137q4 -5 4 -13q0 -18 -18 -18q-4 0 -7.5 1.5t-5 3t-5.5 6.5t-6 7zM255 -97q0 14 15 25t31 11q15 0 30.5 -11t15.5 -25t-15.5 -25t-30.5 -11q-16 0 -31 11t-15 25zM126 337v-295h373 q29 0 29 -23q0 -19 -29 -19h-396q-19 0 -19 31v574q0 31 19 31h396q29 0 29 -23q0 -19 -29 -19h-373v-215h255q30 0 30 -23q0 -19 -30 -19h-255z" />
<glyph unicode="&#x1ec7;" horiz-adv-x="566" d="M285 644h-3l-92 -104q-16 -18 -24 -18q-18 0 -18 18q0 9 4 13l104 137h55l106 -137q4 -5 4 -13q0 -18 -18 -18q-4 0 -7.5 1.5t-5 3t-5.5 6.5t-6 7zM238 -97q0 14 15 25t31 11q15 0 30.5 -11t15.5 -25t-15.5 -25t-30.5 -11q-16 0 -31 11t-15 25zM506 286v-36h-402v-75 q0 -45 9.5 -72t32.5 -40.5t49.5 -17t74.5 -3.5h134q34 0 47 15t13 52q0 28 21 28t21 -31q0 -22 -3 -38t-11.5 -33t-29 -26t-51.5 -9h-141q-106 0 -157 35t-51 140v111q0 105 51 140t157 35h29q105 0 156 -35t51 -140zM299 419h-29q-92 0 -129 -23t-37 -104h360q0 81 -37 104 t-128 23z" />
<glyph unicode="&#x1ec8;" horiz-adv-x="210" d="M87 769q0 -13 -17 -13t-17 13q0 23 20.5 38t44.5 15q25 0 41.5 -17t16.5 -46q0 -24 -27 -40t-27 -33q0 -14 -15 -14q-7 0 -13 4t-6 10q0 26 27 42.5t27 35.5q0 11 -8 18t-18 7q-29 0 -29 -20zM126 20q0 -27 -22 -27q-20 0 -20 27v595q0 28 21 28t21 -28v-595z" />
</font>
</defs>
</svg>
